<?xml version="1.0" encoding="UTF-8" standalone="no"?>
<!DOCTYPE svg PUBLIC "-//W3C//DTD SVG 1.1//EN" "http://www.w3.org/Graphics/SVG/1.1/DTD/svg11.dtd">
<svg width="100%" height="100%" viewBox="0 0 1000 1000" version="1.1" xmlns="http://www.w3.org/2000/svg" xmlns:xlink="http://www.w3.org/1999/xlink" xml:space="preserve" xmlns:serif="http://www.serif.com/" style="fill-rule:evenodd;clip-rule:evenodd;stroke-linejoin:round;stroke-miterlimit:2;">
    <g>
        <clipPath id="_clip1">
            <rect x="195.088" y="278.719" width="591.906" height="721.281"/>
        </clipPath>
        <g clip-path="url(#_clip1)">
            <g id="Layer1">
                <path d="M305.058,629.601C304.629,629.669 304.247,629.675 303.956,629.586C302.734,629.212 302.633,626.358 302.486,625.425C301.714,620.522 301.811,615.551 301.407,610.615C300.265,596.675 298.957,580.599 301.94,566.854C302.711,563.305 306.397,552.543 303.611,549.44C301.888,547.521 296.004,556.102 294.167,557.032C292.916,557.665 289.818,558.999 289.339,556.888C288.438,552.913 290.7,548.183 292.009,544.587C295.957,533.746 302.225,524.421 307.684,514.356C308.36,513.11 309.034,511.864 309.702,510.613C310.331,509.433 315.073,500.828 313.799,498.848C312.472,496.784 308.116,494.497 306.121,492.925C302.597,490.15 298.901,486.061 297.016,481.948C285.165,456.094 295.861,420.543 324.294,411.789C329.798,410.095 340.638,410.606 346.023,413.19C349.176,414.703 350.387,418.778 353.464,420.379C353.528,420.413 353.896,420.627 353.988,420.568C355.185,419.798 356.463,417.609 357.317,416.508C358.13,415.46 359.032,414.374 359.588,413.159C361.05,409.964 362.028,406.339 357.462,406.295C356.798,406.289 352.548,406.703 352.405,405.649C352.04,402.962 357.414,397.223 359.074,395.572C373.895,380.828 394.883,370.354 413.509,361.324C418.467,358.921 424.573,358.526 429.228,355.885C431.446,354.626 433.194,351.441 434.417,349.328C434.752,348.75 434.85,346.741 435.082,346.61C441.182,343.174 449.927,342.125 456.646,340.442C469.352,337.26 482.676,341.929 495.516,340.781C500.428,340.341 496.884,336.98 499.379,334.953C501.25,333.432 505.503,333.613 507.779,333.386C513.091,332.857 519.454,335.85 523.722,339.691C524.22,340.139 524.704,340.734 525.163,341.419C528.125,341.268 531.509,341.737 533.854,341.349C552.366,338.288 572.075,342.666 589.698,348.485C594.806,350.172 605.276,352.254 608.806,356.987C610.005,358.593 598.976,360.007 603.432,363.368C607.647,366.547 613.714,367.583 618.397,369.966C625.113,373.384 631.526,378.119 637.627,382.544C640.721,384.788 643.852,387.047 646.715,389.581C647.491,390.267 649.201,391.153 649.527,392.213C650.027,393.842 645.478,395.808 646.064,397.945C647.125,401.816 650.833,406.044 652.774,409.527C654.962,413.451 656.969,417.532 659.56,421.214C659.651,421.345 660.703,422.566 661.37,423.467C661.53,424.143 661.699,424.808 661.907,424.416C661.958,424.319 661.716,423.936 661.37,423.467C661.288,423.124 661.208,422.777 661.126,422.567C660.891,421.962 659.723,419.922 660.07,419.267C661.578,416.424 669.212,417.293 671.791,417.033C686.448,415.556 701.275,426.224 705.482,440.541C709.375,453.787 711.773,471.589 703.291,483.676C699.448,489.152 692.835,492.47 689.312,498.412C688.832,499.222 686.638,501.351 686.616,502.267C686.606,502.677 688.658,506.344 688.867,507.31C690.248,513.664 691.51,520.02 693.365,526.265C693.528,526.814 696.105,533.511 695.129,534.442C694.899,534.66 693.215,532.764 693.109,532.653C691.324,530.781 688.077,526.184 687.217,531.03C685.846,538.765 689.739,547.438 690.795,555.042C690.847,555.419 691.049,556.351 691.27,557.457C691.606,557.667 691.912,557.914 692.18,558.205C693.868,560.035 692.878,563.426 692.823,565.621C692.721,569.735 693.254,573.908 693.915,577.959C695.243,586.093 697.709,594.004 698.815,602.173C700.159,612.103 699.773,623.152 697.799,633C695.299,645.477 689.374,658.385 683.349,669.51C681.821,672.333 680.951,677.496 678.566,679.695C678.318,679.925 676.439,677.767 676.359,677.683C674.47,675.677 672.622,673.169 670.236,671.726C669.409,671.226 667.916,670.211 667.431,671.537C664.882,678.49 664.161,685.918 661.092,692.774C660.18,694.812 655.577,700.143 656.048,702.485C657.236,708.396 660.219,714.07 662.931,719.374C663.333,720.16 666.158,723.982 665.417,725.032L664.33,726.859C667.145,729.188 669.99,734.549 670.915,736.047C678.02,747.555 684.378,759.502 690.73,771.425C695.557,780.485 701.641,788.931 706.483,798.02C714.696,813.436 720.666,830.75 725.62,847.458C733.95,875.555 736.372,905.17 741.494,933.881C744.418,950.277 743.699,966.36 742.917,983.065C742.643,988.936 741.972,994.82 742.454,1000.69L727.14,1011.06C725.859,1021.73 723.588,1032.25 720.155,1042.55L295.621,1032.34C290.107,1029.8 288.182,1019.07 287.591,1007.85C287.502,1007.84 287.419,1007.83 287.343,1007.82C280.378,1006.96 273.636,1004.85 266.794,1003.38C264.443,1002.88 260.49,1003.14 258.405,1001.8C254.055,999.014 256.469,988.86 256.297,984.777C255.56,967.311 255.95,951.653 257.069,934.204C258.555,911.022 263.274,887.244 268.315,864.734C272.03,848.141 274.581,829.629 281.936,814.162C285.376,806.929 290.294,800.562 293.998,793.482C301.26,779.603 308.927,768.19 317.706,755.185C323.735,746.255 331.294,735.752 335.991,725.831C339.802,717.783 339.258,708.233 339.74,699.594C339.964,695.578 340.788,691.623 340.14,687.605C339.154,681.487 336.387,676.387 334.88,670.548C333.944,666.92 332.246,653.442 326.384,652.851C322.885,652.499 319.291,662.925 317.915,665.387C317.725,665.725 315.919,669.401 315.439,669.193C313.218,668.232 312.308,664.744 311.708,662.745C310.075,657.31 308.894,651.765 308.033,646.161C307.49,642.632 306.778,639.141 306,635.659C305.544,633.621 305.258,631.611 305.058,629.601Z" style="fill:rgb(241,200,45);"/>
                <clipPath id="_clip2">
                    <path d="M305.058,629.601C304.629,629.669 304.247,629.675 303.956,629.586C302.734,629.212 302.633,626.358 302.486,625.425C301.714,620.522 301.811,615.551 301.407,610.615C300.265,596.675 298.957,580.599 301.94,566.854C302.711,563.305 306.397,552.543 303.611,549.44C301.888,547.521 296.004,556.102 294.167,557.032C292.916,557.665 289.818,558.999 289.339,556.888C288.438,552.913 290.7,548.183 292.009,544.587C295.957,533.746 302.225,524.421 307.684,514.356C308.36,513.11 309.034,511.864 309.702,510.613C310.331,509.433 315.073,500.828 313.799,498.848C312.472,496.784 308.116,494.497 306.121,492.925C302.597,490.15 298.901,486.061 297.016,481.948C285.165,456.094 295.861,420.543 324.294,411.789C329.798,410.095 340.638,410.606 346.023,413.19C349.176,414.703 350.387,418.778 353.464,420.379C353.528,420.413 353.896,420.627 353.988,420.568C355.185,419.798 356.463,417.609 357.317,416.508C358.13,415.46 359.032,414.374 359.588,413.159C361.05,409.964 362.028,406.339 357.462,406.295C356.798,406.289 352.548,406.703 352.405,405.649C352.04,402.962 357.414,397.223 359.074,395.572C373.895,380.828 394.883,370.354 413.509,361.324C418.467,358.921 424.573,358.526 429.228,355.885C431.446,354.626 433.194,351.441 434.417,349.328C434.752,348.75 434.85,346.741 435.082,346.61C441.182,343.174 449.927,342.125 456.646,340.442C469.352,337.26 482.676,341.929 495.516,340.781C500.428,340.341 496.884,336.98 499.379,334.953C501.25,333.432 505.503,333.613 507.779,333.386C513.091,332.857 519.454,335.85 523.722,339.691C524.22,340.139 524.704,340.734 525.163,341.419C528.125,341.268 531.509,341.737 533.854,341.349C552.366,338.288 572.075,342.666 589.698,348.485C594.806,350.172 605.276,352.254 608.806,356.987C610.005,358.593 598.976,360.007 603.432,363.368C607.647,366.547 613.714,367.583 618.397,369.966C625.113,373.384 631.526,378.119 637.627,382.544C640.721,384.788 643.852,387.047 646.715,389.581C647.491,390.267 649.201,391.153 649.527,392.213C650.027,393.842 645.478,395.808 646.064,397.945C647.125,401.816 650.833,406.044 652.774,409.527C654.962,413.451 656.969,417.532 659.56,421.214C659.651,421.345 660.703,422.566 661.37,423.467C661.53,424.143 661.699,424.808 661.907,424.416C661.958,424.319 661.716,423.936 661.37,423.467C661.288,423.124 661.208,422.777 661.126,422.567C660.891,421.962 659.723,419.922 660.07,419.267C661.578,416.424 669.212,417.293 671.791,417.033C686.448,415.556 701.275,426.224 705.482,440.541C709.375,453.787 711.773,471.589 703.291,483.676C699.448,489.152 692.835,492.47 689.312,498.412C688.832,499.222 686.638,501.351 686.616,502.267C686.606,502.677 688.658,506.344 688.867,507.31C690.248,513.664 691.51,520.02 693.365,526.265C693.528,526.814 696.105,533.511 695.129,534.442C694.899,534.66 693.215,532.764 693.109,532.653C691.324,530.781 688.077,526.184 687.217,531.03C685.846,538.765 689.739,547.438 690.795,555.042C690.847,555.419 691.049,556.351 691.27,557.457C691.606,557.667 691.912,557.914 692.18,558.205C693.868,560.035 692.878,563.426 692.823,565.621C692.721,569.735 693.254,573.908 693.915,577.959C695.243,586.093 697.709,594.004 698.815,602.173C700.159,612.103 699.773,623.152 697.799,633C695.299,645.477 689.374,658.385 683.349,669.51C681.821,672.333 680.951,677.496 678.566,679.695C678.318,679.925 676.439,677.767 676.359,677.683C674.47,675.677 672.622,673.169 670.236,671.726C669.409,671.226 667.916,670.211 667.431,671.537C664.882,678.49 664.161,685.918 661.092,692.774C660.18,694.812 655.577,700.143 656.048,702.485C657.236,708.396 660.219,714.07 662.931,719.374C663.333,720.16 666.158,723.982 665.417,725.032L664.33,726.859C667.145,729.188 669.99,734.549 670.915,736.047C678.02,747.555 684.378,759.502 690.73,771.425C695.557,780.485 701.641,788.931 706.483,798.02C714.696,813.436 720.666,830.75 725.62,847.458C733.95,875.555 736.372,905.17 741.494,933.881C744.418,950.277 743.699,966.36 742.917,983.065C742.643,988.936 741.972,994.82 742.454,1000.69L727.14,1011.06C725.859,1021.73 723.588,1032.25 720.155,1042.55L295.621,1032.34C290.107,1029.8 288.182,1019.07 287.591,1007.85C287.502,1007.84 287.419,1007.83 287.343,1007.82C280.378,1006.96 273.636,1004.85 266.794,1003.38C264.443,1002.88 260.49,1003.14 258.405,1001.8C254.055,999.014 256.469,988.86 256.297,984.777C255.56,967.311 255.95,951.653 257.069,934.204C258.555,911.022 263.274,887.244 268.315,864.734C272.03,848.141 274.581,829.629 281.936,814.162C285.376,806.929 290.294,800.562 293.998,793.482C301.26,779.603 308.927,768.19 317.706,755.185C323.735,746.255 331.294,735.752 335.991,725.831C339.802,717.783 339.258,708.233 339.74,699.594C339.964,695.578 340.788,691.623 340.14,687.605C339.154,681.487 336.387,676.387 334.88,670.548C333.944,666.92 332.246,653.442 326.384,652.851C322.885,652.499 319.291,662.925 317.915,665.387C317.725,665.725 315.919,669.401 315.439,669.193C313.218,668.232 312.308,664.744 311.708,662.745C310.075,657.31 308.894,651.765 308.033,646.161C307.49,642.632 306.778,639.141 306,635.659C305.544,633.621 305.258,631.611 305.058,629.601Z"/>
                </clipPath>
                <g clip-path="url(#_clip2)">
                    <g>
                        <path d="M354.369,421.185C357.184,417.191 359.725,412.792 360.284,408.376C360.801,404.299 349.327,407.664 352.017,402.355C354.969,396.528 363.646,392.078 368.711,388.36C378.26,381.351 388.217,374.144 398.874,368.916C406.747,365.053 415.276,363.029 423.27,359.512C426.608,358.043 433.211,355.946 434.957,352.421C436.377,349.554 430.534,347.642 434.448,346.464C435.006,346.296 435.566,346.139 436.132,346.008C436.935,345.822 437.742,345.645 438.551,345.491C447.638,343.769 456.847,341.424 466.14,341.389C473.758,341.36 481.047,342.996 488.832,342.272C492.72,341.911 496.427,341.972 500.316,342.234C501.268,342.298 503.555,342.569 504.208,341.559C505.216,340.003 499.725,336.14 500.39,335.146C500.788,334.551 505.005,335.159 505.55,335.187C509.184,335.37 513.254,335.272 516.692,336.635C517.324,336.886 517.909,337.26 518.479,337.667C520.791,336.094 532.154,337.545 534.345,337.415C552.574,336.334 580.257,345.227 597.96,349.734C603.836,351.23 608.214,354.335 612.416,358.557C612.638,358.78 615.836,361.6 615.58,361.956C614.517,363.436 606.537,362.803 604.856,362.951C603.278,363.091 599.033,362.51 600.151,363.633C603.307,366.805 614.426,369.607 618.584,371.263C627.279,374.724 634.915,379.775 642.692,384.886C646.058,387.099 653.697,390.325 655.104,394.58C655.763,396.573 648.573,395.985 648.568,397.956C648.561,400.953 652.962,414.044 654.49,416.583C662.207,429.402 673.966,435.837 680.242,449.523C682.007,453.372 686.399,458.431 686.993,462.667C687.523,466.443 673.95,457.912 673.935,463.876C673.9,478.497 683.4,495.664 688.486,508.838C691.496,516.632 692.346,526.207 694.15,534.414C694.489,535.96 688.012,530.31 689.158,532.616C691.998,538.331 690.892,546.138 692.575,552.279C700.768,582.181 701.187,615.284 696.105,645.679C695.608,648.651 694.987,651.594 694.187,654.499C693.45,657.177 692.61,659.846 691.725,662.479C690.362,666.535 683.735,690.344 674.057,684.936C671.278,683.383 671.939,677.325 670.105,675.482C669.871,675.247 669.84,676.091 669.702,676.393C668.765,678.44 667.756,680.454 666.843,682.512C664.76,687.202 662.569,691.834 660.209,696.39C652.609,711.054 644.676,724.27 634.729,737.39C633.304,739.269 627.605,749.917 624.998,749.911C621.359,749.902 619.584,737.446 618.944,735.273C618.503,733.776 617.784,732.311 616.93,730.86C614.15,735.06 610.819,739.528 610.561,739.994C603.616,752.501 596.107,765.227 587.319,776.489C580.696,784.976 572.693,802.039 560.779,804.332C560.214,804.441 559.571,801.534 559.493,801.253C558.172,796.541 558.83,791.785 554.315,795.454C553.399,796.198 552.517,796.989 551.614,797.749C550.229,798.914 548.845,800.081 547.473,801.26C538.249,809.195 530.078,818.755 521.309,827.236C518.028,830.408 513.669,836.359 508.855,837.286C504.695,838.086 506.627,824.269 502.908,823.777C502.679,823.747 502.308,824.842 502.275,824.94C501.764,826.436 499.17,837.709 497.688,837.374C495.251,836.823 494.315,832.402 493.504,830.587C491.069,825.135 487.594,820.44 485.49,814.823C481.398,803.896 469.982,798.134 464.13,788.566C460.968,783.396 442.805,774.174 441.832,774.92C440.734,775.761 440.24,785.786 440.118,787.657C440.043,788.811 435.775,800.165 434.216,799.406C429.068,796.897 425.39,786.044 422.023,781.65C413.705,770.795 403.956,760.663 396.023,749.633C394.701,747.795 394.779,745.469 393.559,743.617C392.245,741.622 389.834,740.273 387.779,738.714C387.662,739.404 387.558,740.097 387.471,740.795C387.291,742.227 387.439,745.831 385.215,745.857C381.623,745.899 379.402,741.452 378.294,738.687C375.723,732.273 372.246,724.921 367.193,720.036C363.583,716.546 357.24,717.13 353.113,719.337C351.768,720.056 348.865,724.41 347.583,723.397C343.765,720.379 344.444,711.541 343.215,707.242C338.719,691.511 340.124,672.27 332.509,657.341C329.284,651.018 325.655,661.972 324.736,663.165C323.293,665.036 320.85,665.921 318.783,666.89C317.724,667.386 314.735,669.069 313.584,667.858C312.497,666.715 312.243,663.411 311.841,661.955C310.389,656.702 308.91,651.449 307.517,646.179C301.145,622.077 299.708,598.362 299.745,573.673C299.754,567.687 300.705,561.974 301.794,556.112C302.041,554.786 303.529,550.792 302.901,549.452C302.847,549.339 299.568,551.227 299.337,551.345C296.203,552.939 287.602,554.996 287.407,554.756C287.128,554.414 291.73,545.726 292.069,545.049C297.094,535.038 301.324,524.796 306.64,514.988C313.738,501.891 320.614,486.988 323.997,472.45C325.342,466.665 323.678,460.52 325.053,454.954C326.34,449.744 329.881,444.551 332.747,440.131C336.435,434.445 346.719,421.71 354.247,421.085L354.369,421.185ZM476.442,404.833L477.365,404.512C477.423,404.808 477.561,403.609 477.26,403.613C477.147,403.615 476.688,404.433 476.651,404.493L476.442,404.833L427.428,421.869C417.027,429.932 403.97,433.724 394.388,443.034C390.894,446.429 387.559,450.282 384.846,454.338C384.686,454.576 383.895,456.294 383.269,457.389C379.661,466.985 378.551,477.238 376.846,487.688C369.866,530.472 374.797,573.013 385.904,614.778C389.853,629.63 399.536,645.001 409.285,656.78C411.217,659.114 418.958,663.993 419.049,667.383C423.152,667.182 427.442,667.069 430.246,668.82C433.463,670.829 434.759,678.625 436.904,681.784C440.015,686.363 447.192,688.901 452.163,690.867C465.266,696.049 478.626,695.249 492.363,695.294C506.86,695.341 521.473,696.038 535.812,693.278C545.278,691.456 552.24,686.754 558.066,679.219C560.156,676.517 561.707,671.631 564.429,669.545C566.02,668.326 570.667,668.435 572.621,667.785C578.661,665.775 584.546,663.252 590.146,660.228C592.821,658.783 595.938,655.683 599.145,653.305C599.184,652.443 599.25,651.585 599.347,650.732C599.49,649.468 602.877,648.203 603.658,647.242C606.359,643.923 607.797,639.56 609.703,635.77C615.213,624.817 619.068,610.864 622.081,598.932C629.777,568.462 633.087,526.957 627.728,495.891C624.826,479.07 623.633,458.58 611.294,445.527C603.861,437.666 593.548,433.295 584.973,426.975C580.723,423.843 566.28,410.897 561.857,410.254C559.363,409.892 558.386,415.947 555.392,414.87C552.598,413.864 548.272,407.216 545.16,408.244C542.699,409.058 542.174,416.588 539.269,416.581C538.671,416.58 536.501,411.896 536.291,411.469C535.331,409.511 534.451,407.495 533.626,405.452C530.431,409.101 526.594,412.579 523.547,416.226C522.143,417.907 520.759,419.596 519.42,421.328C519.217,421.59 517.443,424.549 517.141,424.215C514.441,421.235 515.513,413.656 515.871,410.223C515.937,409.589 517.029,404.975 515.677,404.804C515.45,404.775 513.487,406.977 513.234,407.173C510.844,409.026 508.326,410.846 505.709,412.361C497.576,417.071 488.508,417.952 479.325,418.28C477.252,418.354 471.716,419.938 469.896,418.56C468.68,417.638 471.444,413.688 471.852,412.934C473.324,410.215 474.822,407.47 476.442,404.833Z" style="fill:rgb(113,59,4);"/>
                        <path d="M569.542,478.167C569.022,477.102 566.145,477.592 565.39,477.721C561.691,478.353 558.789,480.369 556.762,483.517C551.269,492.049 553.297,504.485 555.046,513.772C555.812,517.843 557.34,523.268 561.712,524.874C567.808,527.114 574.894,523.662 577.407,517.874C580.863,509.916 581.076,501.471 578.232,493.305C577.643,491.614 577.033,489.9 576.828,488.11C576.8,487.87 577.03,485.615 576.939,485.524" style="fill:rgb(42,42,42);"/>
                        <path d="M434.602,476.003C419.062,478.457 418.25,496.256 420.039,508.688C420.666,513.049 420.962,517.904 423.963,521.396C425.731,523.454 428.583,526.17 431.164,527.149C440.34,530.629 445.628,520.248 446.592,512.858C447.148,508.598 446.999,504.202 446.481,499.949C445.823,494.556 446.067,484.693 441.42,480.82" style="fill:rgb(42,42,42);"/>
                        <path d="M485.22,549.426C483.67,549.12 480.628,551.215 479.107,551.668C471.266,554.004 462.701,558.31 463.269,567.764C463.601,573.297 467.686,577.483 471.155,581.404C475.424,586.23 479.659,591.7 484.892,595.529C487.334,597.316 490.088,600.448 493.264,600.765C504.261,601.865 516.031,591.348 523.646,584.701C527.037,581.743 530.012,578.809 532.115,574.778C536.015,567.303 538.877,560.162 531.339,554.06C527.679,551.097 523.361,551.403 519.121,550.343" style="fill:rgb(66,43,20);"/>
                        <path d="M670.999,434.556C679.077,427.098 691.768,440.284 695.131,450.094C697.589,457.261 694.735,466.04 692.725,472.907C691.018,478.74 689.055,479.612 683.951,481.932C682.905,482.407 682.507,485.351 681.695,484.539C680.411,483.255 679.511,478.877 678.837,477.219C678.23,475.726 677.624,474.224 677.082,472.706C675.959,469.563 673.453,462.562 679.589,462.829C680.572,462.872 685.547,464.472 686.057,463.581C687.453,461.138 685.243,456.945 684.151,454.908C683.978,454.583 682.046,451.947 682.046,452" style="fill:rgb(208,143,35);"/>
                        <path d="M319.52,481.45C315.94,478.901 313.965,474.76 312.27,470.792C306.957,458.351 308.207,439.488 322.27,433.301C325.803,431.746 333.883,429.404 337.572,430.88C338.102,431.092 342.074,433.532 341.808,434.396C341.167,436.48 338.304,438.402 336.822,439.813C333.269,443.197 327.85,448.303 326.102,453.069C324.865,456.443 326.765,458.56 326.765,461.83C326.765,464.404 325.209,466.528 324.172,468.775" style="fill:rgb(208,143,35);"/>
                        <path d="M416.552,1008.6C411.022,926.545 441.373,869.321 485.453,860.416C572.93,842.744 599.156,922.724 593.113,1014.59" style="fill:rgb(233,220,170);"/>
                    </g>
                </g>
                <g>
                    <path d="M628.598,1016.55C631.625,1015.3 627.527,1010.07 627.459,1006.8C627.324,1000.43 627.17,994.057 627.087,987.686C626.775,963.799 628.023,940.08 628.277,916.221C628.344,909.897 627.852,896.459 635.044,893.02C641.387,889.986 647.745,904.496 649.322,908.19C657.405,927.135 659.253,948.759 660.477,969.095C661.564,987.167 664.715,1005.73 664.715,1023.75" style="fill-opacity:0.2;"/>
                    <path d="M386.267,1012.01C385.533,1011.7 386.165,1003.86 386.165,1003.23C386.165,995.856 386.127,988.498 385.955,981.131C385.456,959.641 384.915,939.734 381.83,918.487C380.68,910.563 378.564,897.153 370.854,892.408C367.044,890.064 365.708,899.675 365.4,901.427C363.485,912.345 364.142,923.744 364.142,934.777L364.142,970.784C364.142,988.626 370.993,1006.22 370.993,1023.71" style="fill-opacity:0.2;"/>
                    <path d="M290.488,1002.61C290.777,985.299 290.352,968.123 289.621,950.825C287.46,899.698 293.38,846.283 323.345,803.859C337.758,783.453 349.605,777.488 362.828,776.424C390.504,774.197 402.342,808.455 415.226,814.897C416.519,815.544 415.313,812.006 415.313,810.56C415.313,805.513 416.527,795.467 416.527,795.467C416.527,795.467 418.454,798.151 419.563,799.37C425.807,806.238 433.223,810.076 440.121,816.112C448.457,823.405 449.9,840.271 462.154,842.569C468.881,843.83 469.598,826.929 472.824,827.736C479.824,829.486 487.07,842.282 493.903,846.125C500.752,849.978 499.36,841.581 505.266,840.4C511.966,839.06 517.838,845.336 525.044,839.793C532.255,834.246 534.468,820.459 543.867,817.326C544.766,817.027 545.886,832.424 549.245,829.904C562.599,819.889 576.355,805.091 583.943,789.915C587.993,781.815 593.745,773.956 596.608,765.367C596.75,764.941 596.837,761.637 597.388,761.637C597.477,761.637 596.427,764.911 596.347,765.106C593.284,772.595 588.873,778.809 583.076,784.45C578.28,789.116 573.441,794.083 567.982,797.982C562.299,802.042 562.811,790.843 557.139,794.513C550.007,799.128 516.614,834.435 514.114,834.935C506.562,836.446 505.596,822.298 501.623,820.709C501.338,820.595 497.611,833.443 496.765,832.767C493.669,830.289 493.12,817.323 491.127,813.336C484.198,799.478 471.897,782.444 458.771,773.694C441.017,761.858 439.655,779.994 437.432,793.645C437.391,793.897 436.691,799.239 436.305,799.11C432.24,797.755 401.54,757.438 397.01,751.054C394.912,748.098 394.005,741.977 391.632,739.604C390.919,738.891 386.662,748.081 383.564,745.242C375.74,738.07 371.513,720.404 360.404,717.137C356.175,715.893 351.881,716.521 348.52,719.479C348.011,719.927 343.39,725.502 343.142,725.378C341.841,724.727 345.844,710.631 343.224,711.504C334.419,714.439 313.107,767.058 306.665,775.774C268.625,827.242 254.944,928.503 255.979,1005.48" style="fill-opacity:0.2;"/>
                    <path d="M487.725,549.929C480.212,550.483 477.503,560.645 479.544,567.232C481.186,572.532 486.092,576.496 490.527,579.471C495.933,583.099 502.373,585.989 508.904,586.614C512.413,586.95 527.031,581.793 519.671,588.839C518.678,589.79 518.781,589.687 517.805,590.598C516.326,591.978 514.858,593.37 513.39,594.761C511.25,596.788 509.263,599.013 506.642,600.432C492.477,608.105 480.449,592.547 473.371,582.45C471.011,579.085 468.504,575.68 467.341,571.683C465.496,565.341 466.131,552.194 475.488,552.194" style="fill-opacity:0.2;"/>
                    <path d="M496.162,626.206C495.464,625.485 495.912,628.221 495.532,629.149C494.72,631.134 493.55,632.788 492.189,634.442C488.314,639.155 483.96,644.263 479.235,648.14C467.363,657.881 448.441,659.192 433.963,654.548C414.346,648.255 402.519,627.423 396.306,609.23C385.561,577.761 382.313,541.741 385.07,508.657C385.851,499.282 385.847,485.308 388.877,476.387C396.496,453.954 415.645,439.363 435.913,429.536C442.011,426.58 451.983,421.039 458.944,421.039C459.173,421.039 455.304,432.028 457.411,431.904C466.574,431.365 476.807,427.881 485.317,424.707C494.062,421.446 498.033,420.05 498.04,420.064C499.087,422.158 494.663,429.971 502.126,429.397C505.813,429.113 508.153,421.364 511.691,421.364C512.19,421.364 511.77,422.362 511.876,422.85C512.404,425.275 514.078,434.919 517.959,434.272C523.235,433.393 524.581,421.977 529.428,419.553C532.187,418.174 537.036,428.639 540.015,424.057C541.832,421.261 538.01,404.391 535.789,403.999C527.539,402.543 523.571,421.932 519.445,421.689C515.089,421.433 519.386,407.941 515.22,406.552C511.903,405.447 506.123,410.363 503.333,411.613C495.279,415.224 484.113,420.166 474.963,418.81C468.617,417.87 479.383,409.275 472.78,409.106C458.487,408.74 445.042,419.028 433.174,425.311C425.825,429.202 417.441,430.796 410.329,435.015C404.537,438.451 400.388,443.578 395.285,447.831C392.502,450.15 387.827,451.394 385.673,454.331C375.186,468.632 375.314,485.335 374.251,501.924C372.17,534.383 373.266,565.534 381.448,596.971C383.021,603.016 383.69,609.37 386.091,615.173C392.794,631.37 401.902,652.152 416.458,662.952C434.446,676.298 468.062,676.7 480.349,655.476C481.541,653.417 484.097,652.636 484.899,650.229" style="fill-opacity:0.2;"/>
                    <path d="M510.968,595.69C511.74,595.654 510.16,597.047 510.017,597.807C509.724,599.362 509.677,600.979 509.571,602.554C509.248,607.347 508.753,612.16 509.837,616.895C512.881,630.187 521.565,642.147 532.144,650.411C542.592,658.573 553.556,664.075 567.218,664.139C572.234,664.163 576.792,662.425 581.602,661.284C583.307,660.879 589.738,658.514 585.953,662.11C580.985,666.829 573.028,668.307 566.536,669.297C543,672.885 525.047,664.023 511.603,644.897C505.566,636.31 501.469,627.638 500.231,617.168C499.827,613.747 499.694,610.271 499.43,606.836C499.349,605.77 499.276,604.694 499.105,603.64C499.006,603.028 499.006,601.257 498.743,601.818" style="fill-opacity:0.2;"/>
                    <path d="M561.605,676.351C561.677,676.559 562.659,676.369 562.686,676.599C562.862,678.131 556.292,679.505 555.577,679.64C548.799,680.917 542.057,680.204 535.513,678.134C523.101,674.206 513.349,667.085 506.598,656.022C504.289,652.237 502.196,649.136 500.74,644.941C500.275,643.6 499.792,642.266 499.16,640.993C498.857,640.381 498.602,639.021 498.602,639.021C498.602,639.021 495.343,646.1 494.058,648.175C490.076,654.605 487.037,657.865 480.347,664.042C475.953,668.099 468.323,671.43 462.74,673.502C460.35,674.389 456.9,676.084 459.377,679.043C461.415,681.478 465.189,682.712 467.992,683.952C476.739,687.821 485.013,688.262 494.58,687.582C498.107,687.331 503.802,685.198 507.27,686.181C507.438,686.228 506.222,687.005 506.163,687.037C505.312,687.505 504.447,687.924 503.56,688.318C503.131,688.509 501.887,688.74 502.304,688.954C504.325,689.989 510.238,688.475 512.489,688.303C512.643,688.291 515.442,687.868 515.51,688.079C515.562,688.241 513.094,689.047 513.117,689.119C513.174,689.295 517.215,688.763 517.435,688.745C521.547,688.413 525.435,688.736 529.519,688.981C529.866,689.002 532.505,688.841 532.743,689.267C532.922,689.589 530.177,690.964 529.914,691.101C529.853,691.133 528.979,691.61 529.099,691.672C530.62,692.451 534.106,691.663 535.784,691.669C536.501,691.671 537.218,691.652 537.935,691.667C538.008,691.668 539.002,691.742 538.998,691.747C538.133,692.837 534.888,693.242 533.718,693.545C527.627,695.124 521.315,696.347 515.051,696.968C494.208,699.034 473.007,695.28 452.905,690.198C446.012,688.455 435.451,684.26 434.671,675.71C434.455,673.342 436.729,673.199 438.596,672.985C443.336,672.44 447.609,671.672 452.256,670.541C462.692,668.001 471.189,662.673 479.991,656.625C481.915,655.303 483.15,653.188 484.772,651.549C489.821,646.447 494.121,640.61 496.492,633.669C497.604,630.414 498.486,625.792 498.686,622.356C498.698,622.161 498.838,619.037 499.493,619.137C500.183,619.242 501.244,622.77 501.487,623.297C503.442,627.532 504.175,632.371 506.411,636.427C512.238,646.996 519.79,656.995 530.446,663.129C533.758,665.035 536.197,666.938 540.073,667.365" style="fill-opacity:0.2;"/>
                    <path d="M362.103,409.36C362.139,408.789 361.737,412.045 361.225,413.483C360.173,416.444 358.991,419.343 357.571,422.149C353.18,430.827 347.577,438.784 343.582,447.674C332.12,473.176 333.31,502.161 321.919,527.384C321.274,528.812 317.335,534.397 318.421,536.206C319.188,537.484 323.036,535.163 323.693,534.745C324.255,534.387 325.873,533.44 325.207,533.44C323.219,533.44 324.841,537.403 324.79,539.39C324.581,547.525 324.138,555.666 323.38,563.768C322.26,575.738 319.921,587.531 318.63,599.473C318.226,603.214 316.765,609.36 318.317,613.045C319.67,616.259 329.154,603.8 332.881,600.413C332.945,600.354 333.002,600.256 333.089,600.256C333.256,600.256 333.033,604.125 333.037,604.328C333.099,607.476 333.835,610.372 334.969,613.306C338.009,621.175 342.459,628.362 344.939,636.483C348.844,649.271 348.857,662.916 349.011,676.155C349.081,682.185 347.743,691.514 350.733,697.088C354.958,704.961 358.901,681.517 359.19,679.548C359.28,678.932 360.154,670.506 360.547,670.674C363.07,671.756 365.928,677.925 367.385,680.018C373.796,689.227 378.699,699.253 383.828,709.198C385.523,712.485 387.599,719.072 390.875,721.256C391.719,721.819 391.775,719.829 391.815,719.482C392.564,712.924 391.039,706.215 392.285,699.698C392.464,698.757 393.444,694.042 395.312,694.843C398.541,696.227 401.235,705.205 402.881,707.997C409.617,719.424 418.025,729.824 423.396,742.032C424.14,743.724 429.787,759.621 431.017,759.885C437.945,761.369 435.969,741.326 442.449,742.136C457.83,744.059 485.176,770.291 493.188,782.174C496.733,787.433 499.191,792.945 501.331,798.878C501.601,799.626 502.807,804.62 503.993,804.62C504.532,804.62 501.232,784.26 504.776,786.82C510.312,790.818 516.421,815.865 517.2,823.465C517.281,824.25 517.712,834.468 515.999,834.896C511.091,836.124 506.976,823.749 502.114,826.075C497.706,828.183 500.57,837.566 498.773,841.161C498.751,841.205 498.717,841.253 498.669,841.265C498.115,841.403 495.998,836.919 495.798,836.567C492.82,831.33 489.66,826.292 486.245,821.324C475.616,805.864 463.333,781.718 443.023,776.641C436.287,774.957 441.204,795.379 440.465,799.139C440.276,800.106 439.164,805.56 437.542,805.56C437.332,805.56 426.34,790.442 425.327,789.117C416.456,777.503 407.459,766.355 398.914,754.508C395.618,749.938 391.842,741.337 387.012,738.117C386.199,737.575 384.268,749.988 382.471,750.541C380.975,751.001 378.368,745.148 377.93,744.381C373.78,737.12 369.908,726.65 363.94,720.682C363.68,720.423 362.97,721.029 362.791,721.152C358.576,724.07 353.628,725.689 349.272,728.303C349.128,728.39 348.919,728.392 348.802,728.251C338.055,715.355 342.547,688.915 338.153,673.65C337.17,670.236 335.176,661.329 332.359,658.981C323.942,651.968 315.431,681.625 311.061,675.268C301.107,660.789 304.738,628.884 303.544,612.053C302.869,602.538 299.272,592.869 300.308,583.291C301.326,573.874 307.006,557.669 303.022,548.108C301.501,544.457 288.916,558.333 287.362,556.356C286.032,554.662 288.019,549.713 288.458,548.108C290.789,539.592 294.251,531.351 297.75,523.261C305.726,504.815 318.369,488.793 326.512,470.59C328.659,465.791 325.764,462.634 326.564,457.697C327.632,451.115 332.551,445.497 336.691,440.575C341.433,434.939 345.779,429.208 349.95,423.14C351.114,421.447 350.61,417.607 352.665,417.607" style="fill-opacity:0.2;"/>
                    <path d="M347.71,490.763C349.818,490.063 348.282,498.383 348.214,499.005C347.327,507.148 345.937,515.192 343.601,523.052C343.435,523.61 340.63,530.114 341.064,530.548C342.023,531.507 348.354,525.75 348.906,525.185C357.082,516.828 359.817,506.708 364.822,496.698C365.442,495.458 362.954,498.761 361.881,499.639C360.28,500.949 353.519,506.535 353.519,502.868" style="fill-opacity:0.2;"/>
                    <path d="M433.241,343.949C432.299,343.775 438.124,347.873 440.018,349.189C445.522,353.01 451.692,354.36 457.722,356.974C458.953,357.507 464.002,359.723 462.739,361.933C455.973,373.773 435.358,363.236 428.947,356.974C427.942,355.993 424.609,347.747 428.601,347.747" style="fill-opacity:0.2;"/>
                    <path d="M355.888,395.103C360.153,401.102 379.58,395.786 386.043,392.38C389.033,390.805 391.883,388.948 394.693,387.075C394.762,387.029 398.649,384.252 398.73,384.653C399.246,387.237 394.243,392.155 392.79,393.764C386.032,401.253 374.867,409.419 364.188,408.585C363.183,408.506 350.931,402.465 353.173,400.223" style="fill-opacity:0.2;"/>
                    <path d="M476.705,356.401C476.657,356.278 476.546,356.682 476.521,356.801C476.285,357.922 483.482,357.435 483.729,357.435C489.559,357.435 495.406,357.325 501.202,356.628C505.316,356.133 509.482,355.241 513.312,353.629C514.989,352.923 516.639,352.103 518.156,351.092C518.614,350.786 519.706,349.744 519.597,350.284C516.604,365.251 497.77,371.766 484.94,367.757C479.382,366.02 474.009,364.341 469.255,360.318C469.063,360.156 467.52,358.881 467.871,358.53" style="fill-opacity:0.2;"/>
                    <path d="M602.008,351.706C604.104,350.15 593.167,353.713 592.833,353.86C585.901,356.892 578.723,359.464 571.497,361.702C568.768,362.547 566.008,363.322 563.251,364.066C562.355,364.308 559.631,364.519 560.54,364.701C569.881,366.569 584.111,367.964 592.949,364.355C593.726,364.037 603.714,357.762 603.329,357.377" style="fill-opacity:0.2;"/>
                    <path d="M470.557,417.541C470.702,417.776 470.438,416.905 470.639,416.715C473.138,414.356 476.582,412.714 479.577,411.122C488.91,406.16 498.687,401.968 507.603,396.244C509.285,395.164 516.846,387.709 518.617,387.709C519.335,387.709 519.105,394.282 519.021,394.629C517.551,400.673 512.811,406.137 507.776,409.623C505.904,410.918 503.873,411.262 501.606,411.929C500.554,412.238 497.454,413.14 498.549,413.14" style="fill-opacity:0.2;"/>
                    <path d="M479.103,404.236C477.327,405.177 475.932,401.271 473.926,401.146C468.254,400.791 461.946,402.364 456.453,403.568C442.389,406.65 429.631,414.51 417.759,422.367C411.232,426.686 404.872,431.487 398.672,436.264C397.799,436.937 389.546,444.6 389.676,444.626C395.428,445.776 402.829,439.421 406.803,436.38C416.514,428.946 426.997,417.58 440.076,417.58" style="fill-opacity:0.2;"/>
                    <path d="M651.944,388.795C645.836,391.199 636.832,393.426 630.432,391.804C629.671,391.611 619.648,387.529 619.648,387.536C619.648,394.07 634.264,402.981 639.37,404.202C640.949,404.58 650.618,403.917 649,402.299" style="fill-opacity:0.2;"/>
                    <path d="M683.155,459.016C684.856,460.558 675.293,456.142 674.373,455.525C667.743,451.079 662.54,444.762 657.477,438.686C655.589,436.421 653.79,434.09 651.768,431.939C650.711,430.815 648.193,427.455 648.193,428.998C648.193,431.84 651.907,437.04 653.037,439.551C655.997,446.129 664.456,468.038 675.238,468.038" style="fill-opacity:0.2;"/>
                    <path d="M695.672,532.557C697.316,533.284 693.356,529.798 692.365,528.299C689.702,524.272 687.323,520.031 684.926,515.843C680.086,507.388 675.475,498.764 670.971,490.124C670.847,489.887 668.191,483.502 667.049,484.358C664.7,486.12 666.862,494.51 667.453,496.525C670.693,507.571 677.756,517.413 681.985,528.126C682.711,529.965 685.229,541.101 688.559,541.101" style="fill-opacity:0.2;"/>
                    <path d="M648.737,534.591C645.449,535.085 646.33,544.329 646.347,546.176C646.45,557.384 646.629,568.84 648.02,579.968C648.284,582.081 648.384,588.768 651.422,589.483C658.199,591.077 664.041,575.388 665.954,571.318C666.242,570.705 669.942,563.773 669.183,563.014C669.156,562.987 658.768,569.019 657.362,569.069C653.882,569.193 652.026,560.795 654.132,558.689" style="fill-opacity:0.2;"/>
                    <path d="M687.391,662.912C683.956,670.42 675.848,653.168 675.296,651.82C672.384,644.709 670.243,637.308 668.952,629.734C668.923,629.562 668.562,624.087 668.203,623.967C667.501,623.733 665.7,628.625 665.55,628.984C662.884,635.383 661.985,642.565 662.263,649.455C662.581,657.323 664.45,665.176 669.356,671.484C670.738,673.261 678.064,676.607 678.064,677.942" style="fill-opacity:0.2;"/>
                    <path d="M644.516,718.493C645.352,718.823 639.743,725.264 638.332,725.517C633.59,726.368 629.492,721.449 627.318,717.963C623.974,712.601 621.984,706.463 620.974,700.259C620.891,699.75 620.016,690.147 619.244,690.456C617.285,691.24 615.95,698.813 615.438,700.49C612.857,708.951 609.497,727.705 613.997,735.954C615.348,738.432 623.448,754.258 625.53,745.931" style="fill-opacity:0.2;"/>
                    <path d="M581.96,780.753C582.083,781.226 578.82,779.807 578.474,779.262C576.936,776.832 576.616,773.628 576.283,770.842C575.606,765.176 575.602,759.415 575.534,753.716C575.531,753.501 575.607,746.565 575.476,746.565C572.993,746.565 570.217,759.817 569.825,761.039C567.009,769.81 558.643,779.376 557.83,788.315C556.978,797.684 566.249,802.995 566.249,797.542" style="fill-opacity:0.2;"/>
                    <path d="M535.084,729.281C535.621,728.811 534.15,730.459 534.072,731.168C533.933,732.413 534.092,733.797 534.187,735.032C534.45,738.457 533.313,751.002 536.724,753.024C539.318,754.56 544.404,750.872 546.355,749.621C553.712,744.905 563.827,735.212 563.827,725.517C563.827,724.133 562.095,727.678 561.29,728.804C559.517,731.286 557.504,733.876 554.831,735.435C552.477,736.809 549.849,737.606 547.162,736.935C545.8,736.594 541.895,735.262 543.298,735.262" style="fill-opacity:0.2;"/>
                    <path d="M577.047,687.065C578.529,689.435 574.817,707.459 577.898,708.909C579.313,709.575 582.359,703.871 582.799,703.142C584.777,699.876 595.169,679.289 592.776,676.097C591.957,675.005 590.248,680.782 590.123,681.056C588.668,684.243 586.549,688.815 583.607,690.917" style="fill-opacity:0.2;"/>
                    <path d="M428.211,696.898C423.57,702.603 436.739,715.544 441.806,720.846C442.419,721.487 449.268,729.311 450.629,728.631C450.827,728.532 449.866,726.506 449.822,726.382C448.709,723.291 447.814,720.152 447.169,716.925C446.839,715.273 446.127,701.411 444.516,701.009C442.734,700.563 443.179,712.427 441.518,712.427" style="fill-opacity:0.2;"/>
                    <path d="M353.638,593.327C353.034,592.545 353.519,595.3 353.519,596.287C353.519,598.788 353.585,601.285 353.692,603.784C353.829,606.96 353.302,625.737 358.363,626.158C360.663,626.35 373.663,604.074 373.126,602.285C372.816,601.251 367.911,607.26 367.821,607.359C366.75,608.527 356.785,614.795 359.863,609.666" style="fill-opacity:0.2;"/>
                    <path d="M349.129,416.734C349.126,416.787 346.831,416.545 346.543,416.581C344.493,416.837 342.617,417.786 340.938,418.962C335.491,422.775 330.76,428.346 326.95,433.743C321.738,441.126 318.939,449.776 315.393,457.998C314.196,460.773 312.975,465.998 309.788,467.224C303.816,469.521 290.57,452.734 292.973,447.929C293.683,446.508 292.918,451.109 292.774,452.691C292.469,456.053 292.488,459.444 292.725,462.81C293.463,473.298 296.067,483.702 304.828,490.339C306.069,491.279 309.188,495.227 310.978,494.952C318.53,493.79 324.997,478.322 326.107,472.036C326.949,467.264 325.31,462.897 326.9,457.899C328.893,451.637 334.649,445.579 338.954,440.687C341.256,438.071 352.594,424.793 352.594,422.087" style="fill-opacity:0.2;"/>
                    <path d="M686.525,460.437C684.354,459.264 686.788,463.716 687.153,464.548C689.009,468.779 691.231,473.118 694.844,476.129C696.883,477.828 700.381,478.982 702.842,477.528C703.286,477.265 707.051,473.826 707.518,474.294C708.959,475.734 705.793,481.015 705.115,481.942C702.081,486.088 693.196,495.63 687.677,496.32C685.536,496.588 683.665,490.929 683.176,489.633C682.473,487.772 681.907,485.858 681.34,483.952C680.857,482.325 680.353,480.704 679.942,479.057C679.516,477.356 672.149,455.858 680.553,463.062" style="fill-opacity:0.2;"/>
                </g>
                <path d="M510.896,550.304C505.768,549.413 500.843,549.251 495.718,550.564C495.018,550.744 490.401,551.591 490.522,552.804C490.688,554.47 497.295,554.351 498.264,554.424C505.477,554.963 512.351,555.586 519.093,558.387C523.068,560.038 526.492,562.537 526.958,567.117C527.182,569.328 526.914,571.575 526.888,573.79C526.885,574.004 526.716,575.811 527.09,575.886C529.585,576.382 533.093,572.135 534.056,570.465C537.384,564.697 536.646,553.507 527.726,553.517" style="fill:white;fill-opacity:0.5;"/>
                <path d="M529.449,341.453C529.567,341.462 534.725,340.294 536.573,340.42C546.962,341.13 559.864,344.911 569.51,348.998C571.518,349.849 579.212,351.531 580.282,353.742C582.092,357.485 570.773,359.53 571.23,360.173C573.803,363.789 593.856,356.777 596.617,354.021C598.379,352.262 593.843,349.674 592.651,349.017C589.69,347.384 575.819,340.995 573.008,343.505" style="fill:white;fill-opacity:0.5;"/>
                <path d="M597.596,362.853C597.686,362.743 604.672,367.784 608.935,370.262C618.765,375.976 631.522,388.951 642.496,391.751C644.04,392.145 651.144,394.109 650.777,390.593C650.474,387.681 647.959,383.889 645.578,382.303C645.134,382.007 641.061,379.602 641.629,380.645" style="fill:white;fill-opacity:0.5;"/>
                <path d="M645.709,403.371C645.544,403.597 644.481,401.626 644.458,401.651C643.234,402.963 648.142,411.544 648.609,412.492C654.369,424.196 660.379,436.101 667.039,447.322C667.46,448.033 680.334,466.12 681.801,461.146C682.583,458.496 680.162,456.205 680.077,453.782" style="fill:white;fill-opacity:0.5;"/>
                <path d="M676.174,468.533C669.619,463.392 682.136,505.118 683.126,508.488C683.289,509.043 686.887,519.541 686.101,519.969C684.418,520.885 679.536,515.853 677.411,517.997C673.233,522.214 677.675,536.995 678.967,541.981C684.431,563.063 687.322,585.988 689.226,607.691C690.504,622.261 686.108,635.116 684.666,649.401C684.08,655.206 683.663,661.056 682.64,666.805C682.609,666.976 682.037,669.056 682.451,669.117C686.796,669.751 694.658,639.974 695.29,636.457C699.62,612.374 696.299,583.384 690.838,559.588C688.516,549.468 679.203,537.325 681.334,526.602C681.95,523.5 693.858,537.311 694.955,538.609C695.219,538.921 699.284,543.496 699.393,543.124C700.759,538.495 697.936,529.04 696.268,524.793C695.335,522.417 694.486,519.84 693.263,517.593C693.231,517.535 693.135,517.358 693.167,517.417" style="fill:white;fill-opacity:0.5;"/>
                <path d="M672.025,672.342C655.906,669.759 655.531,687.49 650.217,700.149C648.548,704.123 647.321,708.268 645.488,712.168C644.45,714.376 639.959,718.887 642.397,718.802C649.118,718.567 653.62,704.622 655.999,700.276" style="fill:white;fill-opacity:0.5;"/>
                <path d="M649.726,719.091C647.697,721.978 659.477,741.672 662.87,748.027C677.638,775.691 702.492,800.006 711.297,830.434C721.817,866.786 729.355,903.882 735.895,941.188C737.414,949.851 741.096,976.774 742.401,977.108C742.688,977.182 742.742,961.665 742.491,957.129C741.794,944.515 740.869,931.878 739.265,919.342C731.784,860.875 713.846,813.176 684.183,763.098C676.786,750.61 665.352,738.043 662.872,723.484C662.032,718.55 661.291,713.583 660.538,708.634C660.345,707.36 658.599,701.723 659.299,702.905" style="fill:white;fill-opacity:0.5;"/>
                <path d="M663.086,426.252C663.429,426.778 663.677,425.042 664.239,424.764C665.843,423.969 667.728,423.781 669.483,423.638C674.881,423.196 680.537,423.864 685.545,425.987C693.213,429.238 699.048,436.195 704.187,442.541C705.795,444.527 707.007,446.722 707.959,449.089C708.314,449.973 708.672,450.853 709.044,451.731C709.193,452.084 709.398,453.149 709.508,452.782C710.39,449.855 706.259,442.276 705.296,439.866C702.983,434.077 700.132,428.527 695.684,424.078C687.315,415.708 669.9,411.174 660.21,420.367" style="fill:white;fill-opacity:0.5;"/>
                <g>
                    <path d="M574.893,486.033C574.834,485.871 572.581,482.27 572.206,482.156C570.793,481.724 568.689,482.069 567.503,482.907C561.859,486.896 562.097,500.532 569.411,502.575C575.3,504.221 576.184,494.142 575.707,490.545C575.506,489.028 575.415,487.475 574.893,486.033Z" style="fill:white;fill-opacity:0.8;"/>
                    <path d="M563.595,507.058C563.008,507.145 562.137,507.55 561.718,508.33C561.342,509.03 561.139,509.89 561.072,510.659C560.998,511.508 561.054,512.343 561.267,513.168C561.419,513.755 561.661,514.331 561.973,514.851C563.007,516.574 564.872,516.132 565.865,514.581C567.066,512.704 566.609,507.058 563.595,507.058Z" style="fill:white;fill-opacity:0.8;"/>
                </g>
                <g transform="matrix(1,0,0,1,-133.554,0.998941)">
                    <path d="M574.893,486.033C574.834,485.871 572.581,482.27 572.206,482.156C570.793,481.724 568.689,482.069 567.503,482.907C561.859,486.896 562.097,500.532 569.411,502.575C575.3,504.221 576.184,494.142 575.707,490.545C575.506,489.028 575.415,487.475 574.893,486.033Z" style="fill:white;fill-opacity:0.8;"/>
                    <path d="M563.595,507.058C563.008,507.145 562.137,507.55 561.718,508.33C561.342,509.03 561.139,509.89 561.072,510.659C560.998,511.508 561.054,512.343 561.267,513.168C561.419,513.755 561.661,514.331 561.973,514.851C563.007,516.574 564.872,516.132 565.865,514.581C567.066,512.704 566.609,507.058 563.595,507.058Z" style="fill:white;fill-opacity:0.8;"/>
                </g>
            </g>
            <g>
                <path d="M494.551,546.68C486.783,546.649 477.928,548.102 471.136,550.81C467.456,552.277 463.265,554.633 461.403,558.354C458.613,563.932 460.634,571.193 463.438,576.283C468.457,585.394 478.62,594.806 487.628,599.946C491.599,602.211 496.889,603.85 501.509,603.067C505.467,602.397 509.132,600.048 512.439,597.923C521.077,592.373 528.927,584.71 534.011,575.719C537.296,569.91 539.511,561.55 535.372,555.489C533.355,552.535 529.936,550.457 525.962,549.108C520.791,547.353 514.68,546.787 510.517,546.418C505.968,546.016 499.128,544.843 494.693,546.619L494.551,546.68ZM500.714,551.835C500.094,552.649 499.088,553.143 497.993,553.06C490.306,552.482 480.603,553.764 473.45,556.616C471.092,557.556 468.186,558.766 466.993,561.15C465.095,564.943 467.006,569.807 468.912,573.268C473.429,581.467 482.619,589.891 490.726,594.517C493.524,596.114 497.209,597.457 500.465,596.905C503.606,596.373 506.437,594.351 509.06,592.665C516.861,587.653 523.979,580.762 528.57,572.643C529.774,570.513 530.88,567.929 531.287,565.315C531.629,563.116 531.487,560.882 530.211,559.014C528.894,557.086 526.546,555.907 523.953,555.026C519.273,553.438 513.734,552.978 509.966,552.644C507.922,552.463 505.363,552.059 502.817,551.902C502.109,551.858 501.403,551.829 500.714,551.835Z"/>
                <path d="M500.721,602.711C501.012,601.688 500.772,600.541 499.989,599.711C499.253,598.929 498.466,598.747 497.84,598.715C496.926,598.67 495.989,598.943 495.226,599.89C495.011,600.156 494.712,600.61 494.566,601.304C494.451,601.849 494.494,603.738 494.494,603.941L494.494,608.117C494.494,611.884 494.535,615.653 494.41,619.419C494.054,630.095 489.326,639.793 482.969,648.23C465.236,671.766 433.716,676.884 411.325,656.152C410.06,654.98 408.081,655.057 406.909,656.322C405.737,657.588 405.814,659.566 407.079,660.738C432.35,684.138 467.946,678.555 487.961,651.991C495.09,642.529 500.257,631.6 500.656,619.627C500.784,615.792 500.744,611.954 500.744,608.117L500.744,603.941L500.721,602.711ZM495.575,604.131C496.239,604.772 496.925,604.966 497.54,604.973C496.828,604.934 496.128,604.652 495.575,604.131Z"/>
                <path d="M466.895,414.726C466.414,414.74 465.976,414.765 465.629,414.806C464.678,414.918 464.01,415.218 463.671,415.436C462.218,416.371 461.976,417.643 462.239,418.849C462.358,419.394 462.678,420.463 464.188,421.219C465.16,421.704 466.321,421.841 467.632,421.457C467.986,421.353 468.366,421.2 468.764,421C469.532,420.994 470.284,420.994 470.692,421.004C473.73,421.077 476.744,421.196 479.78,420.959C489.661,420.189 499.777,417.318 508.609,412.798C509.11,412.542 510.716,411.748 512.454,410.76C512.481,412.987 512.544,416.919 512.768,419.972C512.929,422.173 513.235,423.99 513.563,424.805C514.383,426.842 515.958,427.183 516.972,427.124C517.275,427.106 518.463,426.925 519.648,425.603C521.389,423.658 526.845,416.291 531.378,411.338C531.854,410.818 532.312,410.325 532.749,409.875C533.874,412.632 535.479,416.306 536.702,418.048C537.82,419.642 539.127,420.405 540.084,420.587C541.29,420.817 542.968,420.434 544.307,418.565C545.304,417.174 546.437,414.349 547.518,412.08C547.648,411.806 547.816,411.495 547.978,411.209C548.232,411.378 548.502,411.569 548.71,411.745C551.019,413.693 553.409,416.694 554.329,417.505C555.622,418.646 557.598,418.523 558.739,417.23C559.881,415.936 559.757,413.96 558.464,412.819C557.336,411.824 554.066,407.735 551.322,405.886C548.95,404.287 546.648,404.174 545.055,405.118C544.26,405.589 543.275,406.692 542.434,408.275C541.824,409.424 541.213,410.917 540.615,412.259C540.434,411.918 540.262,411.575 540.117,411.255C538.76,408.262 537.543,404.842 537.071,403.809C535.795,401.014 533.017,401.815 532.64,402.003C531.188,402.729 529.047,404.629 526.768,407.118C524.137,409.993 521.195,413.677 518.844,416.652C518.702,413.174 518.698,409.589 518.681,408.955C518.655,407.998 518.702,405.598 518.725,404.538C518.745,404.39 518.754,404.246 518.754,404.11C518.754,403.564 518.711,403.295 518.703,403.247C518.517,402.174 517.968,401.695 517.769,401.507C516.932,400.717 516.024,400.563 515.174,400.687C515.062,400.703 512.912,401.03 512.545,403.238C512.153,403.548 511.323,404.188 510.658,404.599C508.655,405.834 506.343,406.937 505.763,407.234C497.653,411.383 488.366,414.021 479.294,414.728C478.046,414.825 476.803,414.855 475.56,414.851C477.397,412.687 478.917,410.626 479.422,409.929C479.856,409.331 480.287,408.369 480.642,407.31L481.041,406.111L481.087,406.085C482.557,405.183 483.018,403.257 482.116,401.787C481.344,400.527 480.379,400.175 479.665,400.051C478.793,399.9 477.912,400.055 477.075,400.673C476.582,401.036 475.89,401.89 475.421,403.172C475.073,404.124 474.824,405.623 474.361,406.262C473.676,407.208 470.898,411.012 468.22,413.62C467.835,413.996 467.335,414.396 466.895,414.726Z"/>
                <path d="M474.729,405.346C473.888,405.447 465.237,406.481 464.645,406.582C458.195,407.68 451.804,409.374 445.681,411.679C425.558,419.252 400.573,429.958 386.312,446.596C372.54,462.663 372.022,485.313 370.524,505.455C368.62,531.046 370.167,569.796 378.838,603.834C384.712,626.889 393.891,647.774 407.312,661.195C408.532,662.415 410.512,662.415 411.731,661.195C412.951,659.975 412.951,657.995 411.731,656.776C399.003,644.047 390.466,624.157 384.895,602.291C376.4,568.947 374.892,530.988 376.757,505.919C378.16,487.054 378.159,465.712 391.057,450.663C404.677,434.773 428.664,424.761 447.883,417.528C453.633,415.364 459.636,413.775 465.694,412.744C466.321,412.637 474.33,411.776 475.914,411.487C478.711,410.979 478.759,408.284 478.734,408.029C478.562,406.312 477.029,405.059 475.313,405.231C475.111,405.251 474.916,405.29 474.729,405.346ZM473.281,406.274C472.555,407.078 472.443,407.932 472.515,408.652C472.425,407.752 472.726,406.903 473.281,406.274Z"/>
                <path d="M555.806,416.07C555.759,416.555 555.826,417.059 556.023,417.541C556.635,419.043 557.702,419.308 557.996,419.403C558.883,419.689 559.692,419.58 560.431,419.185C560.927,418.92 561.533,418.461 561.886,417.528C561.953,417.353 562.122,416.889 562.088,416.161C579.784,427.854 603.125,438.793 615.573,455.962C623.417,466.781 625.476,482.189 626.018,494.908C627.235,523.423 624.162,567.494 617.076,600.742C613.127,619.274 606.374,642.442 590.972,654.693C570.522,670.96 548.676,671.995 531.896,661.829C514.891,651.526 503.221,629.978 503.125,601.826C503.119,600.101 501.714,598.706 499.989,598.712C498.265,598.717 496.869,600.123 496.875,601.847C496.98,632.582 510.092,655.926 528.658,667.174C547.449,678.559 571.961,677.801 594.863,659.584C611.344,646.474 618.963,621.875 623.189,602.045C630.379,568.304 633.497,523.579 632.263,494.641C631.672,480.789 629.176,464.077 620.633,452.293C606.988,433.473 580.794,421.697 562.28,408.737C560.803,407.703 559.575,407.73 558.701,407.959C557.802,408.196 557.032,408.728 556.466,409.605C556.068,410.223 555.752,411.151 555.657,412.253C555.548,413.517 555.707,415.135 555.806,416.07Z"/>
                <path d="M566.486,674.891C567.623,673.646 567.565,671.712 566.343,670.536C565.101,669.34 563.121,669.378 561.925,670.621C561.458,671.106 560.92,671.961 560.419,672.96C560.025,673.745 559.651,674.682 559.222,675.21C555.425,679.871 551.243,683.797 546.008,686.81C538.764,690.98 530.095,692.087 521.931,693.081C505.21,695.117 489.353,694.777 472.626,693.318C461.621,692.358 449.129,688.577 441.485,680.289C439.842,678.508 437.293,676.208 436.752,673.725C436.386,672.039 434.72,670.969 433.034,671.336C431.349,671.702 430.279,673.368 430.645,675.053C431.403,678.536 434.587,682.029 436.891,684.527C445.555,693.92 459.609,698.457 472.083,699.545C489.25,701.042 505.525,701.375 522.686,699.285C531.666,698.192 541.158,696.813 549.126,692.227C555.036,688.825 559.781,684.419 564.067,679.157C564.64,678.453 565.229,677.337 565.764,676.25C566.011,675.748 566.459,674.939 566.486,674.891Z"/>
                <path d="M497.507,339.779C496.518,339.057 495.157,338.963 494.057,339.624C493.929,339.643 493.227,339.744 492.731,339.741C491.574,339.733 490.192,339.566 488.727,339.333C483.626,338.522 477.671,336.985 475.449,337C460.515,337.099 445.485,339.574 431.065,343.4C427.915,344.236 427.557,346.16 427.582,347.279C427.599,347.998 427.836,348.825 428.487,349.632C428.787,350.004 429.611,350.726 430.268,351.281C427.586,353.325 423.685,354.608 419.698,355.785C414.489,357.323 409.103,358.599 405.303,360.399C386.297,369.402 362.886,384.428 349.2,400.734C346.788,403.609 347.033,405.704 347.491,406.72C348.072,408.007 349.749,409.233 352.435,409.142C353.399,409.109 354.97,408.936 356.342,408.765C355.282,410.96 353.487,413.608 351.362,416.527C342.885,428.172 328.767,443.09 324.406,449.633C321.159,454.502 321.432,457.441 321.997,460.699C322.381,462.914 323.018,465.351 321.652,469.541C316.81,484.402 309.368,498.515 302.854,512.679C300.264,518.312 292.353,532.735 288.27,543.786C286.3,549.117 285.285,553.786 285.715,556.648C285.895,557.851 286.461,558.652 287.167,559.207C287.976,559.843 289.151,560.238 290.673,559.957C291.807,559.748 293.421,559.016 295.107,557.966C296.666,556.995 298.338,555.765 299.707,554.7C299.466,556.552 299.059,558.53 298.637,560.523C297.603,565.409 296.404,570.365 296.358,574.14C296.209,586.178 299.133,622.957 303.689,648.417C305.72,659.763 308.165,668.918 310.696,672.989C311.751,674.686 313.175,675.136 314.762,674.85C315.398,674.736 316.135,674.44 316.895,673.859C317.742,673.212 318.775,672.04 319.857,670.499C322.58,666.62 325.979,659.941 328.439,656.57C328.56,656.777 328.681,656.998 328.805,657.23C329.586,658.698 330.309,660.573 330.995,662.754C334.455,673.752 336.785,692.024 338.145,707.113C338.395,709.878 339.251,717.52 340.786,722.906C341.601,725.77 342.715,728.053 343.854,729.191C344.447,729.784 345.995,730.864 347.999,729.515C348.905,728.905 352.415,724.789 352.882,724.396C355.371,722.303 358.801,721.219 361.968,722.219C367.267,723.893 369.344,729.03 371.473,734.081C374.269,740.714 377.055,747.332 382.867,750.239C383.877,750.743 384.809,750.732 385.655,750.447C386.451,750.179 387.313,749.575 387.911,748.405C388.329,747.585 388.67,746.142 388.884,744.539C398.639,754.625 413.18,777.247 420.006,785.955C421.968,788.459 426.284,795.744 430.497,800.08C432.894,802.547 435.407,804.07 437.511,804.281C438.463,804.376 439.377,804.142 440.222,803.496C440.93,802.956 441.741,801.844 442.274,800.111C443.678,795.553 444.109,784.3 445.088,778.144C459.774,785.868 474.662,804.291 482.525,817.528C483.7,819.507 492.247,838.048 494.56,841.9C495.502,843.469 496.646,843.925 496.956,844.008C498.201,844.34 499.362,844.082 500.362,843.025C500.835,842.524 501.444,841.398 501.709,839.679C502.019,837.668 502.112,834.285 502.256,830.945C503.213,834.214 504.334,837.335 505.632,838.898C506.995,840.538 508.619,841.12 510.313,840.838C512.223,840.52 514.458,839.2 516.655,837.202C520.571,833.638 524.672,827.831 526.994,825.576C536.39,816.448 546.289,807.585 556.237,798.961C555.913,800.491 555.71,801.873 555.761,802.799C555.87,804.772 556.871,805.885 557.89,806.396C558.695,806.8 559.786,807.027 561.198,806.438C565.973,804.449 571.461,799.883 576.963,793.984C589.113,780.958 601.622,761.416 607.341,751.904C609.132,748.927 610.884,744.814 612.874,740.877C613.727,739.191 614.614,737.532 615.584,736.046C615.915,737.528 616.266,739.164 616.551,740.636C617.447,745.256 618.391,749.876 619.014,751.319C620.099,753.832 622.202,753.754 623.055,753.521C625.169,752.945 627.512,751.17 629.716,748.637C633.81,743.932 637.755,736.534 639.815,733.573C648.539,721.026 657.104,708.157 663.835,694.409C666.741,688.474 668.379,681.39 671.165,675.285C671.365,675.697 671.555,676.108 671.715,676.488C673.062,679.673 674.393,683.057 675.147,684.082C676.832,686.372 678.833,685.784 679.889,685.038C681.309,684.036 683.351,680.845 685.278,676.533C689.083,668.019 693.316,654.934 694.487,651.505C705.595,618.987 702.955,597.933 697.829,575.622C695.007,563.341 691.406,550.67 689.038,535.353C689.663,536.523 690.118,537.43 690.261,537.744C690.475,538.213 693.99,545.022 694.953,545.984C695.93,546.96 696.94,547.023 697.495,546.991C698.472,546.936 699.306,546.523 699.927,545.627C700.949,544.15 701.296,541.359 700.697,538.005C699.712,532.482 696.614,524.901 695.939,522.53C690.632,503.905 681.886,485.517 677.779,466.532C678.298,466.698 678.81,466.858 679.249,466.989C680.82,467.459 682.367,467.718 683.619,467.601C685.072,467.465 686.26,466.893 687.141,465.918C688.181,464.768 689.015,462.703 688.248,459.096C687.717,456.6 685.208,452.225 681.641,447.095C674.144,436.315 661.974,421.542 658.247,414.142C656.897,411.462 652.227,404.436 649.546,399.099C649.253,398.515 648.974,397.964 648.736,397.455C649.192,397.488 649.627,397.51 649.959,397.509C652.421,397.497 654.098,396.398 654.747,394.544C655.304,392.953 655.065,391.187 654.091,389.467C652.765,387.127 649.806,384.776 648.506,383.746C636.958,374.592 622.474,369.408 609.351,363.01C609.228,362.949 608.694,362.703 607.926,362.341C609.265,362.111 610.251,361.624 610.785,361.121C611.667,360.29 612.079,359.257 611.938,357.986C611.792,356.668 611.187,355.343 610.078,354.1C608.944,352.828 607.191,351.58 605.035,350.453C597.935,346.742 586.053,344.034 582.96,343.261C569.726,339.952 555.841,338.041 542.208,337.512C539.278,337.399 534.052,338.156 529.622,338.128C528.383,338.12 527.217,338.05 526.223,337.842C525.678,337.728 525.191,337.633 524.886,337.353C522.508,335.173 519.156,333.695 515.465,332.774C510.509,331.536 504.936,331.27 500.855,331.172C499.514,331.14 496.83,331.172 496.83,331.172C495.562,331.187 494.429,331.966 493.962,333.145C493.495,334.324 493.786,335.668 494.7,336.548C494.7,336.548 496.185,337.977 497.507,339.779ZM503.524,337.514C503.672,337.748 503.814,337.984 503.949,338.221C504.965,340.008 505.529,341.868 505.431,343.425C505.326,345.109 504.339,346.401 502.456,346.975C501.368,347.307 498.831,347.277 498.543,347.272C494.591,347.841 486.457,350.378 479.88,353.655C479.23,353.979 478.594,354.305 477.979,354.637C478.774,354.516 479.573,354.367 480.382,354.181C482.063,353.793 483.742,354.842 484.13,356.523C484.518,358.203 483.468,359.883 481.788,360.27C478.422,361.047 475.228,361.267 471.81,361.452C471.199,361.485 470.026,361.909 469.37,361.974C468.487,362.061 467.797,361.876 467.355,361.673C466.493,361.275 465.957,360.641 465.66,359.871C465.414,359.23 465.227,358.301 465.826,357.104C467.023,354.71 469.842,352.187 473.579,349.967C476.778,348.065 480.655,346.319 484.452,344.881C480.699,344.12 477.082,343.239 475.491,343.249C462.341,343.337 449.115,345.347 436.33,348.504L436.412,348.622C437.055,349.601 437.339,350.656 437.236,351.741C437.143,352.732 436.738,353.834 435.611,354.922C432.954,357.488 428.965,359.347 424.559,360.814C418.804,362.731 412.299,364.001 407.978,366.048C390.619,374.27 369.391,387.652 356.029,402.413C357.229,402.244 358.365,402.118 359.221,402.148C361.135,402.216 362.352,403.066 362.946,403.952C363.404,404.635 363.671,405.47 363.545,406.519C363.162,409.708 360.446,414.667 356.415,420.205C347.989,431.78 333.941,446.596 329.606,453.1C327.178,456.742 328.021,458.666 328.44,461.268C328.857,463.852 329.087,466.898 327.595,471.477C322.678,486.567 315.147,500.908 308.532,515.29C305.978,520.845 298.159,535.056 294.133,545.952C293.243,548.36 292.509,550.571 292.127,552.428C292.433,552.247 292.729,552.062 292.993,551.882C295.47,550.189 297.926,548.127 298.395,547.714C298.431,547.683 299.859,546.354 300.699,545.864C301.742,545.257 302.701,545.256 303.245,545.359C304.536,545.603 305.486,546.343 305.814,547.872C306.462,550.898 306.097,554.823 305.325,558.958C304.33,564.291 302.659,570.032 302.607,574.217C302.461,586.064 305.357,622.259 309.841,647.316C311.313,655.539 312.897,662.531 314.646,666.899C315.249,666.089 315.924,665.138 316.459,664.273C319.64,659.126 323.309,652.409 325.484,650.465C327.442,648.714 329.299,648.95 330.525,649.738C332.828,651.219 335.158,655.159 336.957,660.879C340.52,672.204 342.969,691.013 344.37,706.552C344.601,709.115 345.375,716.201 346.797,721.193L346.946,721.714C347.848,720.704 348.654,719.786 348.859,719.613C352.952,716.172 358.643,714.615 363.85,716.26C370.96,718.505 374.375,724.875 377.232,731.654C378.424,734.48 379.542,737.35 380.993,739.817C381.554,740.77 382.162,741.662 382.86,742.446C382.989,741.046 383.059,739.612 383.179,738.752C383.46,736.749 384.623,735.803 385.047,735.576C386.096,735.014 387.223,734.952 388.406,735.787C397.919,742.502 416.811,771.748 424.925,782.1C426.564,784.192 429.871,789.723 433.37,793.923C434.399,795.159 435.439,796.272 436.457,797.091L436.527,797.147C436.718,796.347 436.926,795.372 437.056,794.459C437.976,788.018 438.424,778.458 439.474,774.361C439.86,772.858 440.692,771.805 441.634,771.304C442.509,770.838 443.664,770.57 445.217,771.26C461.69,778.582 479.053,799.445 487.898,814.337C488.679,815.65 492.71,824.272 496.006,831.035C496.143,827.787 496.32,824.489 496.764,822.394C497.059,821.002 497.53,819.97 498.002,819.355C498.543,818.652 499.18,818.233 499.826,818.005C501.392,817.453 502.894,817.749 504.24,819.105C505.298,820.171 506.372,822.671 507.25,825.669C507.967,828.114 508.664,830.927 509.508,833.072C509.676,833.501 509.941,834.006 510.152,834.383C511.354,833.799 512.623,832.491 513.971,831.088C517.343,827.579 520.646,823.029 522.639,821.093C534.057,810.001 546.212,799.293 558.303,788.929C559.66,787.766 560.843,787.818 561.507,787.947C562.38,788.116 563.109,788.57 563.645,789.374C563.88,789.727 564.097,790.193 564.199,790.799C564.295,791.374 564.254,792.418 563.975,793.726C563.741,794.817 563.332,796.63 562.945,798.32C567.524,795.132 572.504,789.902 577.417,783.995C587.549,771.813 597.197,756.645 601.985,748.683C604.077,745.205 606.098,740.125 608.552,735.672C610.411,732.299 612.531,729.274 614.987,727.279C616.196,726.297 617.484,726.189 618.852,727.115C619.159,727.323 619.532,727.648 619.865,728.173C620.132,728.595 620.507,729.482 620.844,730.741C621.678,733.856 623.223,741.302 624.098,745.608C624.913,744.755 625.732,743.697 626.568,742.586C629.916,738.136 632.964,732.477 634.683,730.005C643.227,717.718 651.63,705.124 658.222,691.661C661.806,684.341 663.556,675.332 667.708,668.413C668.609,666.911 669.799,666.482 670.883,666.443C671.629,666.417 672.447,666.607 673.263,667.175C673.915,667.629 674.713,668.526 675.45,669.808C676.432,671.515 677.492,674.15 678.422,676.429C678.797,675.679 679.181,674.857 679.572,673.983C683.295,665.651 687.426,652.84 688.572,649.485C699.179,618.433 696.633,598.327 691.738,577.021C688.374,562.381 683.939,547.19 681.704,527.742C681.494,525.915 681.647,524.738 681.865,524.076C682.202,523.051 682.784,522.454 683.352,522.078C684.43,521.366 686.149,521.042 687.989,522.568C688.628,523.098 689.437,524.125 690.293,525.375C690.138,524.923 690.013,524.541 689.928,524.242C684.22,504.209 674.615,484.432 670.886,463.921C670.569,462.176 671.174,461.092 671.881,460.381C672.439,459.82 673.2,459.398 674.223,459.289C674.975,459.208 676.11,459.365 677.424,459.781C678.539,460.134 679.893,460.671 681.202,461.049C681.507,461.137 681.905,461.211 682.253,461.266C682.231,460.988 682.194,460.675 682.135,460.397C681.699,458.348 679.437,454.873 676.509,450.663C668.85,439.649 656.473,424.514 652.665,416.953C651.315,414.272 646.643,407.244 643.961,401.904C642.527,399.049 641.696,396.531 641.696,395.043C641.696,393.715 642.209,392.794 642.944,392.112C643.634,391.473 644.702,390.999 646.099,390.963C646.495,390.953 646.941,390.98 647.41,391.023C646.396,390.002 645.246,389.137 644.624,388.644C633.427,379.769 619.336,374.832 606.612,368.627C606.217,368.435 601.771,366.399 598.652,364.686C596.963,363.758 595.625,362.842 595.087,362.278C593.625,360.742 593.945,359.21 594.381,358.338C594.763,357.575 595.477,356.812 596.719,356.398C597.811,356.034 600.042,356.026 602.376,356.118L602.14,355.992C595.491,352.516 584.341,350.049 581.444,349.324C568.624,346.119 555.173,344.269 541.966,343.758C538.543,343.625 531.991,344.676 527.226,344.28C524.379,344.043 522.055,343.237 520.662,341.96C518.982,340.42 516.56,339.489 513.951,338.838C510.519,337.981 506.757,337.657 503.524,337.514Z"/>
                <path d="M309.638,501.741C310.193,502.28 310.948,502.615 311.782,502.623C314.315,502.647 314.827,500.84 314.981,500.229C315.17,499.483 315.196,498.472 314.351,497.445C314.183,497.241 313.826,496.875 313.234,496.552C312.936,496.39 312.069,495.977 311.917,495.905C310.771,495.061 309.753,494.016 308.75,493.014C305.87,490.134 303.25,487.048 301.099,483.582C294.811,473.448 293.713,459.959 295.647,448.358C298.509,431.187 312.977,418.298 329.954,416.67C333.411,416.338 338.223,416.257 342.27,417.532C344.487,418.23 346.486,419.323 347.632,421.233C348.52,422.712 350.441,423.192 351.92,422.305C353.399,421.417 353.879,419.496 352.992,418.017C351.067,414.809 347.872,412.743 344.148,411.57C339.285,410.039 333.51,410.05 329.357,410.448C309.613,412.342 292.81,427.36 289.482,447.33C287.31,460.364 288.724,475.491 295.788,486.877C298.193,490.753 301.111,494.213 304.331,497.433C305.582,498.684 306.874,499.966 308.31,501.011C308.549,501.185 309.165,501.505 309.638,501.741ZM311.44,496.395L311.418,496.398L311.478,496.391L311.44,496.395ZM311.566,496.382L311.542,496.385L311.651,496.378L311.566,496.382ZM311.688,496.375L311.841,496.373C311.788,496.372 311.737,496.373 311.688,496.375Z"/>
                <path d="M336.531,434.709C336.814,435.017 337.165,435.273 337.573,435.452C339.153,436.143 340.998,435.422 341.689,433.842C342.365,432.298 342.17,430.14 339.398,428.995C337.134,428.06 330.552,427.682 330.076,427.699C322.751,427.967 315.532,431.206 311.204,437.329C306.569,443.886 304.548,453.317 305.616,462.241C306.706,471.355 311.002,479.868 318.615,484.435C320.093,485.322 322.015,484.842 322.902,483.363C323.789,481.884 323.309,479.963 321.83,479.076C315.844,475.484 312.679,468.666 311.822,461.499C310.941,454.142 312.486,446.341 316.307,440.936C319.503,436.415 324.895,434.143 330.304,433.945C330.589,433.934 335.041,434.514 336.531,434.709ZM335.818,431.744L335.818,431.747L335.823,431.729L335.818,431.744ZM335.859,431.609L335.856,431.619L335.887,431.53L335.859,431.609ZM335.905,431.479L335.964,431.336C335.943,431.384 335.923,431.431 335.905,431.479Z"/>
                <path d="M661.47,420.872C662.573,420.561 667.479,419.178 667.955,419.039C676.16,416.638 682.855,419.193 689.503,422.571C699.202,427.5 704.843,438.481 706.685,450.122C708.549,461.899 706.537,474.469 700.339,482.526C697.879,485.724 691.064,491.971 685.572,495.292C684.096,496.185 683.623,498.108 684.515,499.584C685.408,501.059 687.331,501.533 688.806,500.64C694.948,496.926 702.542,489.912 705.292,486.337C712.416,477.076 715.001,462.682 712.859,449.145C710.695,435.472 703.727,422.789 692.334,417C684.287,412.91 676.132,410.134 666.199,413.041C665.549,413.231 660.253,414.298 658.136,415.515C656.388,416.519 655.799,417.961 655.779,419.032C655.747,420.756 657.121,422.182 658.845,422.214C659.928,422.234 660.894,421.7 661.47,420.872Z"/>
                <g transform="matrix(0.998966,0.0454565,-0.0454565,0.998966,25.9243,-18.6729)">
                    <path d="M428.537,474.618C425.472,474.857 421.586,476.571 418.78,479.65C415.365,483.398 414.624,486.742 413.894,491.67C412.413,501.665 414.277,513.201 419.19,522.066C421.689,526.576 427.895,530.491 433.549,529.758C440.373,528.874 444.161,521.979 445.442,516.124C446.024,513.466 446.298,510.685 446.468,507.974C446.871,501.527 446.699,490.838 443.21,483.57C440.47,477.862 435.883,474.047 428.538,474.618L428.537,474.618ZM429.022,480.849C434.632,480.413 437.318,484.53 438.776,489.447C440.566,495.482 440.527,502.839 440.23,507.584C440.08,509.98 439.85,512.439 439.337,514.788C438.905,516.76 438.139,518.971 436.883,520.754C435.886,522.168 434.569,523.324 432.746,523.56C429.529,523.977 426.078,521.602 424.656,519.036C420.382,511.324 418.788,501.282 420.076,492.586C420.602,489.039 420.942,486.557 423.4,483.86C425.03,482.071 427.241,480.988 429.022,480.849L429.022,480.849Z"/>
                </g>
                <g transform="matrix(-0.998966,0.0454565,0.0454565,0.998966,973.332,-18.9562)">
                    <path d="M428.538,474.618C435.883,474.047 440.47,477.862 443.21,483.57C446.699,490.838 446.871,501.527 446.468,507.974C446.298,510.685 446.024,513.466 445.442,516.124C444.161,521.979 440.373,528.874 433.549,529.758C427.895,530.491 421.689,526.576 419.19,522.066C414.277,513.201 412.413,501.665 413.894,491.67C414.624,486.742 415.365,483.398 418.78,479.65C421.586,476.571 425.472,474.857 428.537,474.618L428.538,474.618ZM429.022,480.849C427.241,480.988 425.03,482.071 423.4,483.86C420.942,486.557 420.602,489.039 420.076,492.586C418.788,501.282 420.382,511.324 424.656,519.036C426.078,521.602 429.529,523.977 432.746,523.56C434.569,523.324 435.886,522.168 436.883,520.754C438.139,518.971 438.905,516.76 439.337,514.788C439.85,512.439 440.08,509.98 440.23,507.584C440.527,502.839 440.566,495.482 438.776,489.447C437.318,484.53 434.632,480.413 429.022,480.849L429.022,480.849Z"/>
                </g>
                <path d="M258.905,1004.36L258.905,1004.36C258.905,1004.36 258.804,1002.25 258.804,1002.1C258.804,999.392 258.864,996.683 258.92,993.978C259.08,986.259 259.216,978.532 259.542,970.818C260.578,946.266 263.037,921.753 265.838,897.345C269.527,865.194 278.711,830.931 293.981,802.234C310.176,771.798 334.531,743.754 344.304,705.591C344.732,703.92 343.723,702.216 342.052,701.788C340.381,701.36 338.678,702.369 338.25,704.04C328.609,741.686 304.439,769.275 288.463,799.298C272.835,828.668 263.404,863.727 259.628,896.633C256.81,921.189 254.34,945.853 253.297,970.554C252.97,978.313 252.832,986.085 252.672,993.849C252.615,996.597 252.554,999.349 252.554,1002.1C252.554,1002.27 252.643,1004.31 252.665,1004.71C252.682,1005.01 252.721,1005.19 252.726,1005.21C253.241,1007.75 255.493,1007.73 255.898,1007.72C256.694,1007.69 257.759,1007.44 258.5,1006.15C258.824,1005.58 258.952,1004.96 258.905,1004.36Z"/>
                <g transform="matrix(-1,0,0,1,998.069,-1.53962)">
                    <path d="M258.904,1004.35C258.953,1004.96 258.826,1005.58 258.5,1006.15C258.448,1006.24 252.888,1008.65 252.665,1004.71C252.643,1004.31 252.554,1002.27 252.554,1002.1C252.554,999.349 252.615,996.597 252.672,993.849C252.832,986.085 252.97,978.313 253.297,970.554C254.34,945.853 256.81,921.189 259.628,896.633C263.404,863.727 272.835,828.668 288.463,799.298C304.435,769.283 328.821,741.354 338.125,703.297C338.535,701.621 340.228,700.594 341.903,701.003C343.578,701.413 344.606,703.106 344.196,704.781C334.759,743.381 310.18,771.79 293.981,802.234C278.711,830.931 269.527,865.194 265.838,897.345C263.037,921.753 260.578,946.266 259.542,970.818C259.216,978.532 259.08,986.259 258.92,993.978C258.864,996.683 258.804,999.392 258.804,1002.1C258.804,1002.25 258.905,1004.36 258.905,1004.36L258.904,1004.35ZM258.852,1003.97L258.855,1004L258.844,1003.94L258.852,1003.97ZM255.726,1001.47C256.274,1001.46 256.833,1001.59 257.344,1001.88C258.128,1002.33 258.644,1003.07 258.833,1003.89C258.305,1001.51 256.224,1001.46 255.726,1001.47ZM255.705,1001.47C254.653,1001.5 253.64,1002.06 253.079,1003.04C253.82,1001.75 254.885,1001.5 255.681,1001.47L255.705,1001.47Z"/>
                </g>
                <path d="M363.012,904.304C362.999,905.417 362.986,907.349 363.028,908.104C363.221,911.541 363.406,914.977 363.601,918.414C364.123,927.617 364.469,936.819 364.61,946.037C365.036,974.006 364.56,1002.19 366.112,1030.12C366.207,1031.85 367.683,1033.17 369.405,1033.07C371.127,1032.97 372.448,1031.5 372.352,1029.78C370.805,1001.93 371.284,973.827 370.859,945.941C370.717,936.637 370.368,927.35 369.841,918.06C369.646,914.625 369.462,911.189 369.269,907.754C369.189,906.344 369.264,902.709 369.123,902.188C368.604,900.274 367.148,899.932 366.444,899.847C366.04,899.799 363.62,899.613 362.916,902.514C362.766,903.13 362.811,903.748 363.012,904.304ZM368.938,904.174L368.925,904.214L368.933,904.19L368.938,904.174Z"/>
                <g transform="matrix(-1,0,0,1,998.069,-1.53962)">
                    <path d="M363.012,904.304C362.811,903.748 362.766,903.13 362.916,902.514C363.62,899.613 366.04,899.799 366.444,899.847C367.148,899.932 368.604,900.274 369.123,902.188C369.264,902.709 369.189,906.344 369.269,907.754C369.462,911.189 369.646,914.625 369.841,918.06C370.368,927.35 370.717,936.637 370.859,945.941C371.284,973.827 370.805,1001.93 372.352,1029.78C372.448,1031.5 371.127,1032.97 369.405,1033.07C367.683,1033.17 366.207,1031.85 366.112,1030.12C364.56,1002.19 365.036,974.006 364.61,946.037C364.469,936.819 364.123,927.617 363.601,918.414C363.406,914.977 363.221,911.541 363.028,908.104C362.986,907.349 362.999,905.417 363.012,904.304ZM368.938,904.176L368.932,904.192L368.94,904.167L368.938,904.176Z"/>
                </g>
                <path d="M672.21,434.825C672.382,434.826 672.943,434.837 673.305,434.92C674.205,435.125 675.191,435.529 676.206,436.034C680.386,438.113 684.989,441.87 685.97,443.288C689.99,449.103 691.103,459.809 688.877,468.727C687.48,474.326 684.775,479.289 680.248,481.552C678.706,482.324 678.079,484.202 678.851,485.745C679.622,487.287 681.501,487.914 683.043,487.142C689.097,484.116 693.073,477.727 694.941,470.241C697.614,459.532 695.939,446.717 691.111,439.734C689.666,437.644 682.144,431.328 676.325,429.3C672.663,428.023 669.535,428.505 667.726,430.475C666.559,431.745 666.643,433.723 667.913,434.89C669.141,436.018 671.031,435.977 672.21,434.825Z"/>
            </g>
        </g>
    </g>
</svg>
