<?xml version="1.0" encoding="UTF-8" standalone="no"?>
<!DOCTYPE svg PUBLIC "-//W3C//DTD SVG 1.1//EN" "http://www.w3.org/Graphics/SVG/1.1/DTD/svg11.dtd">
<svg width="100%" height="100%" viewBox="0 0 1000 1000" version="1.1" xmlns="http://www.w3.org/2000/svg" xmlns:xlink="http://www.w3.org/1999/xlink" xml:space="preserve" xmlns:serif="http://www.serif.com/" style="fill-rule:evenodd;clip-rule:evenodd;stroke-linejoin:round;stroke-miterlimit:2;">
    <g>
        <g id="Layer3">
            <path d="M481.404,461.34C478.826,461.137 473.337,461.584 470.756,461.43C463.052,460.97 455.35,460.768 447.633,460.727C429.479,460.63 411.147,459.973 393.054,461.807C387.1,462.41 381.297,463.479 375.525,465.021C374.012,465.425 371.256,465.127 370.135,466.434C366.828,470.291 367.57,478.925 368.298,483.527C369.512,491.2 372.419,498.485 375.619,505.484C377.245,509.038 378.768,512.934 381.369,515.91C386.549,521.835 393.802,525.791 400.846,529.025C405.562,531.191 410.433,534.815 415.585,535.855C424.931,537.741 434.096,536.169 443.149,533.624C447.322,532.451 450.714,531.203 454.712,529.446C460.979,526.691 466.286,521.082 470.93,516.102C473.405,513.448 476.433,508.489 477.385,504.823C479.059,498.373 481.06,491.764 481.262,485.117C481.378,481.284 480.867,478.153 481.678,474.463C482.2,472.084 481.993,469.458 482.572,467.142L481.404,461.34ZM523.115,462.479C523.031,462.299 523.037,466.751 523.015,467.475C522.904,471.199 522.481,474.8 522.74,478.527C523.482,489.175 525.465,501.068 530.187,510.805C534.881,520.485 542.562,525.933 552.122,530.072C567.612,536.779 585.073,537.85 600.804,531.229C611.98,526.525 621.819,516.715 628.145,506.42C629.962,503.463 632.008,500.631 633.144,497.319C634.703,492.77 635.009,488.045 635.144,483.275C635.267,478.91 634.766,474.607 635.474,470.279C635.592,469.556 636.502,466.729 635.585,466.214C634.3,465.493 632.282,465.314 630.872,464.979C626.531,463.947 622.047,463.592 617.632,462.99C611.75,462.187 605.753,460.957 599.82,460.659C590.19,460.175 580.8,460.94 571.197,461.171L523.115,462.479Z" style="fill:rgb(31,31,31);fill-opacity:0.84;"/>
            <clipPath id="_clip7">
                <path d="M481.404,461.34C478.826,461.137 473.337,461.584 470.756,461.43C463.052,460.97 455.35,460.768 447.633,460.727C429.479,460.63 411.147,459.973 393.054,461.807C387.1,462.41 381.297,463.479 375.525,465.021C374.012,465.425 371.256,465.127 370.135,466.434C366.828,470.291 367.57,478.925 368.298,483.527C369.512,491.2 372.419,498.485 375.619,505.484C377.245,509.038 378.768,512.934 381.369,515.91C386.549,521.835 393.802,525.791 400.846,529.025C405.562,531.191 410.433,534.815 415.585,535.855C424.931,537.741 434.096,536.169 443.149,533.624C447.322,532.451 450.714,531.203 454.712,529.446C460.979,526.691 466.286,521.082 470.93,516.102C473.405,513.448 476.433,508.489 477.385,504.823C479.059,498.373 481.06,491.764 481.262,485.117C481.378,481.284 480.867,478.153 481.678,474.463C482.2,472.084 481.993,469.458 482.572,467.142L481.404,461.34ZM523.115,462.479C523.031,462.299 523.037,466.751 523.015,467.475C522.904,471.199 522.481,474.8 522.74,478.527C523.482,489.175 525.465,501.068 530.187,510.805C534.881,520.485 542.562,525.933 552.122,530.072C567.612,536.779 585.073,537.85 600.804,531.229C611.98,526.525 621.819,516.715 628.145,506.42C629.962,503.463 632.008,500.631 633.144,497.319C634.703,492.77 635.009,488.045 635.144,483.275C635.267,478.91 634.766,474.607 635.474,470.279C635.592,469.556 636.502,466.729 635.585,466.214C634.3,465.493 632.282,465.314 630.872,464.979C626.531,463.947 622.047,463.592 617.632,462.99C611.75,462.187 605.753,460.957 599.82,460.659C590.19,460.175 580.8,460.94 571.197,461.171L523.115,462.479Z"/>
            </clipPath>
            <g clip-path="url(#_clip7)">
                <g>
                    <path d="M363.653,541.635C364.292,544.576 372.622,530.863 374.069,528.824C381.601,518.208 389.056,507.542 396.511,496.872C407.857,480.636 419.214,464.406 430.65,448.232C449.415,421.692 453.623,408.798 479.29,429.118C481.733,431.053 469.658,445.401 468.782,446.663C456.081,464.953 443.43,483.275 430.887,501.674C415.754,523.873 400.532,546.035 386.051,568.668C385.074,570.194 374.794,591.443 371.739,591.443" style="fill:white;fill-opacity:0.49;"/>
                    <path d="M388.372,583.791C384.281,589.503 394.653,573.545 394.99,573.042C401.876,562.741 408.883,552.517 415.863,542.279C434.171,515.427 452.895,488.877 471.54,462.258C475.311,456.874 485.801,439.103 487.563,439.103C488.134,439.103 487.556,440.252 487.658,440.815C488.569,445.824 498.919,446.7 496.835,452.606C493.647,461.638 481.977,471.049 476.39,478.472C456.15,505.359 437.16,533.306 419.143,561.726C412.267,572.573 405.987,589.716 396.844,598.86" style="fill:white;fill-opacity:0.49;"/>
                </g>
                <g transform="matrix(1,0,0,1,149.099,-0.488166)">
                    <path d="M363.653,541.635C364.292,544.576 372.622,530.863 374.069,528.824C381.601,518.208 389.056,507.542 396.511,496.872C407.857,480.636 419.214,464.406 430.65,448.232C449.415,421.692 453.623,408.798 479.29,429.118C481.733,431.053 469.658,445.401 468.782,446.663C456.081,464.953 443.43,483.275 430.887,501.674C415.754,523.873 400.532,546.035 386.051,568.668C385.074,570.194 374.794,591.443 371.739,591.443" style="fill:white;fill-opacity:0.49;"/>
                    <path d="M388.372,583.791C384.281,589.503 394.653,573.545 394.99,573.042C401.876,562.741 408.883,552.517 415.863,542.279C434.171,515.427 452.895,488.877 471.54,462.258C475.311,456.874 485.801,439.103 487.563,439.103C488.134,439.103 487.556,440.252 487.658,440.815C488.569,445.824 498.919,446.7 496.835,452.606C493.647,461.638 481.977,471.049 476.39,478.472C456.15,505.359 437.16,533.306 419.143,561.726C412.267,572.573 405.987,589.716 396.844,598.86" style="fill:white;fill-opacity:0.49;"/>
                </g>
            </g>
            <path d="M491.638,450.54C494.506,448.991 497.782,449.524 501.223,449.503C508.732,449.458 516.161,448.937 523.646,449.783C540.727,451.714 557.955,451.248 574.91,449.946C581.982,449.403 590.442,451.502 597.492,452.292C599.93,452.565 602.753,452.382 605.51,452.362L605.858,452.138C606.323,451.73 608.571,452.284 609.08,452.335C612.488,452.677 615.889,452.945 619.312,453.093C622.617,453.235 625.925,453.316 629.227,453.503C631.786,453.649 634.346,453.83 636.899,454.062C638.728,454.228 640.557,454.407 642.386,454.578C643.929,454.722 645.48,454.833 647.018,455.022C650.978,455.511 661.689,456.693 662.838,462.026C664.07,467.746 662.514,472.279 661.833,477.887C661.483,480.775 662.034,484.124 660.702,486.839C660.189,487.884 657.406,487.588 656.414,487.831C653.357,488.579 647.456,489.53 645.441,492.261C641.859,497.116 641.769,504.193 638.995,509.566C635.047,517.212 628.767,523.691 622.649,529.594C617.855,534.218 613.747,538.274 607.69,541.281C603.919,543.153 599.507,545.824 595.179,545.894C595.073,545.896 594.969,545.891 594.868,545.88C594.854,545.951 594.838,546.021 594.821,546.089C594.56,547.132 591.824,547.438 591.133,547.68C586.101,549.445 580.453,549.44 575.176,548.906C565.389,547.914 557.814,546.33 549.287,541.834C547.448,540.864 544.79,539.19 542.982,538.175C537.8,535.267 531.998,529.833 528.013,525.448C521.634,518.43 517.566,508.203 515.127,499.244C514.406,496.596 512.895,494.336 512.441,491.579C511.729,487.263 514.833,476.17 509.414,474.471C505.325,473.188 499.071,473.133 496.28,476.865C493.92,480.021 494.583,486.499 493.65,490.231C492.63,494.309 489.697,500.512 488.663,504.646C487.605,508.874 480.916,522.097 479.384,524.005C476.623,527.444 472.486,532.301 468.436,534.065C468.132,534.197 467.538,534.563 466.896,534.927C466.315,538.34 463.62,540.756 459.322,542.419C452.643,545.003 443.983,546.147 436.838,546.696C421.492,547.874 406.094,543.531 392.668,536.508C389.827,535.022 386.533,534.193 383.936,532.277C379.467,528.979 376.001,523.818 372.218,519.768C370.889,518.346 369.138,517.334 367.886,515.869C363.19,510.373 362.123,502.976 359.309,496.579C358.24,494.15 355.574,490.991 355.374,488.389C355.352,488.1 353.059,487.662 352.864,487.613C350.095,486.92 347.396,486.409 344.587,485.968C344.347,485.931 341.656,485.004 341.584,485.088C341.394,485.309 341.72,484.514 341.717,484.222C341.711,483.578 341.711,482.931 341.683,482.287C341.594,480.286 341.186,478.329 340.956,476.344C340.272,470.456 341.964,464.423 341.512,458.533C341.511,458.525 343.655,458.4 343.724,458.392C345.398,458.188 347.095,457.888 348.745,457.536C356.718,455.835 364.946,455.133 373.055,454.401C384.704,453.35 396.382,452.689 408.009,451.447C410.942,451.133 413.845,450.87 416.798,450.857C417.394,450.855 418.955,450.457 419.526,450.947L491.638,450.54ZM599.501,461.713L599.139,461.962C598.562,462.634 596.243,462.245 595.542,462.238C592.107,462.201 588.662,462.149 585.228,462.26C570.266,462.742 555.116,462.349 540.096,462.242C535.967,462.212 531.77,461.986 527.657,462.408C527.339,462.441 523.954,462.39 523.748,462.631C523.368,463.074 523.665,465.625 523.597,466.184C523.112,470.18 523.168,474.257 522.715,478.261C521.945,485.07 524.666,491.849 526.875,498.48C528.528,503.443 530.743,509.745 534.34,513.358C542.905,521.959 549.137,529.542 561.078,533.003C568.503,535.156 577.758,536.703 585.462,537.242C587.599,537.392 589.457,537.075 591.428,536.245C591.881,536.055 593.513,534.963 594.056,535.175C598.351,531.978 603.635,529.97 608.01,526.92C613.824,522.865 618.416,517.661 623.073,512.38C627.94,506.86 633.446,500.613 635.203,493.225C636.727,486.815 637.773,480.683 637.597,474.099C637.54,471.964 637.835,468.83 636.575,466.993C634.383,463.799 628.056,464.346 624.784,464.043C616.441,463.272 607.938,462.255 599.501,461.713ZM483.019,462.243C482.953,462.252 482.886,462.257 482.819,462.26C474.873,462.575 466.937,460.65 458.954,460.615C442.683,460.546 426.353,462.117 410.075,461.846C405.19,461.765 400.338,461.408 395.457,461.858C390.826,462.284 386.213,463.476 381.579,463.721C378.117,463.904 372.329,463.212 369.719,466.256C368.089,468.157 367.775,472.12 367.702,474.504C367.501,481.051 368.262,488.267 370.083,494.569C374.631,510.307 386.422,520.867 400.301,528.655C407.285,532.575 413.13,534.609 421.127,535.819C424.633,536.35 427.959,537.117 431.531,536.588C436.693,535.822 441.957,535.178 446.926,533.51C450.102,532.444 453.014,530.736 456.173,529.609C458.48,528.785 460.545,527.535 462.53,526.114C462.645,526.032 463.665,525.206 464.502,524.566C465.56,522.707 467.795,520.887 468.92,519.574C473.064,514.741 477.141,508.397 479.084,502.3C481.414,494.988 480.977,488.067 481.126,480.53C481.181,477.782 482.431,475.028 482.646,472.254C482.888,469.152 483.263,465.39 483.019,462.243Z" style="fill:rgb(52,52,52);"/>
            <g>
                <path d="M505.288,450.227C505.798,450.122 504.921,451.22 504.909,451.74C504.876,453.119 504.939,454.502 504.975,455.879C505.056,459.066 505.779,464.313 503.866,467.153C502.518,469.154 498.247,466.893 496.203,468.076C494.786,468.896 494.499,473.898 496.05,474.651C498.781,475.978 503.573,475.367 506.479,475.189C507.301,475.139 509.684,475.182 510.178,474.234C510.94,472.774 510.665,470.044 510.782,468.471C511.086,464.383 511.261,460.275 511.342,456.176C511.374,454.554 511.433,452.924 511.408,451.301C511.406,451.212 511.451,450.083 511.276,450.083" style="fill-opacity:0.21;"/>
                <path d="M342.957,459.246C342.688,459.368 344.25,460.797 344.355,460.902C345.423,461.963 347.458,463.513 347.582,465.17C347.869,469.023 347.108,472.864 347.668,476.721C347.77,477.426 347.875,479.938 348.356,480.242C351.496,482.222 356.585,481.383 359.356,484.345C362.961,488.199 363.487,492.875 365.531,497.556C369.192,505.939 372.908,514.173 379.166,521.002C388.635,531.336 401.858,535.466 414.549,540.225C418.725,541.791 423.082,541.72 427.472,541.978C434.469,542.387 441.046,542.934 447.958,541.369C451.619,540.54 455.129,538.897 458.644,537.604C459.802,537.178 460.95,536.729 462.082,536.239C462.219,536.18 463.905,535.517 463.739,535.822C462.671,537.787 458.981,539.2 457.139,540.062C450.442,543.197 442.941,545.085 435.676,546.351C410.906,550.667 382.502,535.992 368.304,515.612C364.928,510.766 362.428,505.197 360.218,499.739C359.459,497.866 359.185,493.814 357.568,492.487C353.524,489.169 347.567,489.943 342.94,487.81C339.546,486.246 339.825,477.926 339.488,474.998C339.417,474.382 338.657,470.9 339.379,470.477" style="fill-opacity:0.21;"/>
                <path d="M368.529,469.824C368.582,469.954 368.463,468.933 368.455,468.799C368.414,468.106 368.383,467.412 368.383,466.718C368.382,464.469 368.698,462.534 370.448,461.021C374.217,457.764 382.286,458.791 386.828,458.531C406.731,457.394 426.596,456.905 446.504,456.068C451.989,455.838 457.319,454.7 462.821,454.585C468.217,454.473 473.732,454.25 479.12,454.569C480.855,454.671 483.779,454.566 485.148,455.845C485.976,456.619 486.685,459.196 486.948,460.265C487.179,461.199 487.028,462.11 486.871,463.042C486.788,463.537 486.702,464.03 486.604,464.523C485.975,467.671 484.961,465.023 483.211,463.754C482.106,462.952 480.422,462.727 479.133,462.416C473.877,461.146 468.64,460.464 463.222,460.581C438.267,461.121 413.49,463.792 388.625,465.449" style="fill-opacity:0.21;"/>
                <path d="M523.196,462.764C519.427,459.101 526.733,456.671 529.272,456.326C539.221,454.975 549.777,455.962 559.796,456.047C580.061,456.22 600.547,456.769 620.736,458.558C625.524,458.982 630.372,458.622 634.984,460.2C636.505,460.72 638.604,461.314 639.127,463.095C639.736,465.17 637.026,466.659 635.423,466.952C631.04,467.753 625.938,465.389 621.641,464.718C601.778,461.613 580.616,456.667 560.476,460.184" style="fill-opacity:0.21;"/>
                <path d="M516.446,451.128C516.659,450.322 516.423,452.796 516.437,453.629C516.465,455.298 516.613,456.944 516.759,458.605C517.198,463.597 517.165,468.627 517.512,473.635C518.554,488.672 518.187,507.579 528.971,519.764C533.26,524.61 537.413,529.353 542.814,533.013C551.49,538.893 562.745,541.127 572.822,543.139C578.398,544.252 583.996,544.248 589.642,543.721C590.46,543.644 598.362,543.637 597.657,544.107C589.521,549.535 575.467,546.629 566.62,545.216C560.852,544.295 554.385,543.633 549.128,540.904C538.829,535.558 529.994,529.027 523.248,519.386C518.913,513.191 517.264,506.011 515.2,498.898C512.482,489.535 510.173,481.52 510.318,471.615C510.401,465.965 512.131,460.398 512.357,454.815C512.427,453.08 511.347,451.488 511.503,449.689" style="fill-opacity:0.21;"/>
                <path d="M661.654,481.332C661.799,481.389 662.168,480.763 662.074,480.723C660.816,480.2 657.762,481.311 656.511,481.512C653.097,482.06 643.846,481.93 643.635,487.124C643.384,493.343 653.903,488.847 656.405,488.009C657.472,487.653 659.283,487.495 660.231,486.863" style="fill-opacity:0.21;"/>
            </g>
            <g>
                <path d="M581.038,452.326C581.153,453.129 582.636,452.607 583.441,452.707C586.249,453.054 589.055,453.381 591.851,453.818C596.752,454.584 601.625,455.977 606.581,456.325C612.681,456.753 618.964,456.115 625.003,456.983C632.847,458.109 640.73,458.593 648.565,459.641C651.002,459.967 655.228,459.825 657.362,461.26C659.948,462.998 659.508,469.735 659.699,472.382C659.724,472.723 659.738,476.484 660.217,476.546C660.873,476.63 661.641,472.81 661.712,472.49C662.451,469.189 664.125,462.821 661.93,459.623C661.309,458.718 657.681,458.611 656.759,458.462C651.656,457.636 646.433,457.663 641.328,456.751" style="fill:white;fill-opacity:0.49;"/>
                <path d="M491.708,451.422C491.307,451.265 492.255,452.127 492.338,452.55C492.567,453.717 492.663,454.906 492.81,456.086C493.38,460.637 494.36,464.393 493.542,469.012C493.503,469.233 492.832,473.051 492.802,473.047C491.986,472.951 490.855,469.706 490.607,469.144C489.843,467.416 489.133,465.564 488.873,463.681C488.495,460.941 489.895,454.752 486.253,454.306C480.77,453.635 475.009,453.966 469.499,453.899C458.034,453.76 446.591,453.89 435.129,454.251C430.232,454.405 425.338,454.682 420.437,454.531C419.644,454.507 416.801,454.849 416.162,454.219C416.142,454.199 418.379,453.604 418.509,453.577C420.153,453.231 421.801,452.903 423.454,452.599C428.714,451.632 434.047,450.942 439.383,450.576C446.682,450.075 454.009,450.142 461.308,449.667C468.535,449.196 476.78,447.99 483.95,449.684" style="fill:white;fill-opacity:0.49;"/>
            </g>
        </g>
        <g>
            <g>
                <path d="M344.033,483.751C343.619,482.306 343.469,479.811 343.408,476.981C343.279,471.018 343.692,463.665 343.893,460.552C344.7,460.358 345.669,460.134 346.321,460.01C348.974,459.509 352.208,459.075 354.882,458.717C363.09,457.617 371.289,456.887 379.568,456.218C403.853,454.256 428.188,453.481 452.53,452.547C463.233,452.136 473.932,451.936 484.641,452.083C486.621,452.11 489.901,451.904 492.324,452.841C493.396,453.256 494.603,452.722 495.018,451.649C495.433,450.577 494.899,449.37 493.827,448.955C490.944,447.84 487.055,447.949 484.698,447.917C473.917,447.769 463.146,447.97 452.37,448.383C427.97,449.319 403.576,450.098 379.232,452.065C370.88,452.74 362.609,453.477 354.329,454.587C351.586,454.955 348.269,455.402 345.547,455.916C344.155,456.179 341.406,456.874 341.406,456.874C340.537,457.094 339.906,457.845 339.84,458.739C339.84,458.739 339.07,469.116 339.242,477.071C339.322,480.737 339.639,483.919 340.236,485.545C340.554,486.41 341.317,487.167 342.455,487.626C343.739,488.144 345.687,488.27 346.412,488.44C350.233,489.336 353.504,491.233 357.376,491.83C358.512,492.005 359.577,491.225 359.752,490.088C359.928,488.952 359.147,487.887 358.011,487.712C354.247,487.132 351.078,485.255 347.364,484.383C346.877,484.269 345.8,484.189 344.784,483.978C344.558,483.931 344.23,483.821 344.033,483.751Z"/>
                <path d="M491.072,450.551C491.208,454.675 491.36,462.503 491.314,466.628C491.114,484.496 490.658,502.559 481.116,518.325C478.579,522.516 474.906,525.942 471.323,529.224C443.726,554.5 401.441,548.554 376.357,522.523C371.717,517.709 367.712,511.709 365.011,505.53C363.348,501.728 361.301,495.66 359.904,490.165C359.621,489.051 358.486,488.376 357.372,488.659C356.257,488.942 355.582,490.077 355.866,491.192C357.321,496.917 359.461,503.238 361.193,507.199C364.089,513.823 368.383,520.254 373.356,525.414C399.972,553.034 444.855,559.116 474.138,532.296C478.009,528.75 481.939,525.012 484.68,520.483C494.619,504.062 495.272,485.285 495.48,466.675C495.527,462.502 495.374,454.585 495.236,450.413C495.198,449.264 494.234,448.362 493.085,448.4C491.936,448.438 491.034,449.402 491.072,450.551Z"/>
                <path d="M481.961,463.641C482.581,463.831 483.28,463.731 483.835,463.309C484.751,462.613 484.929,461.305 484.234,460.39C484.124,460.246 483.643,459.667 482.57,459.516C480.978,459.292 473.651,459.031 473.206,459.011C466.363,458.716 458.754,458.874 451.91,458.843C419.556,458.697 398.694,459.17 369.507,464.042C368.373,464.232 367.606,465.306 367.795,466.44C367.984,467.574 369.059,468.342 370.193,468.152C399.13,463.321 419.814,462.865 451.891,463.009C458.684,463.04 466.236,462.882 473.027,463.174C473.438,463.192 481.416,463.612 481.961,463.641Z"/>
                <path d="M480.588,462.116C480.483,465.348 480.088,473.86 479.849,477.086C478.825,490.905 475.839,507.176 465.852,517.616C448.672,535.574 421.077,539.82 399.857,526.466C393.096,522.211 385.01,515.63 380.159,509.407C373.283,500.587 371.798,492.012 370.768,480.834C370.411,476.968 370.104,470.449 370.756,466.203C370.931,465.066 370.15,464.002 369.013,463.827C367.877,463.653 366.812,464.434 366.638,465.57C365.94,470.111 366.238,477.082 366.619,481.216C367.729,493.264 369.462,502.463 376.873,511.969C381.992,518.535 390.504,525.503 397.638,529.993C420.536,544.403 450.323,539.875 468.862,520.496C479.504,509.373 482.914,492.117 484.004,477.394C484.246,474.131 484.647,465.521 484.753,462.251C484.79,461.101 483.887,460.138 482.738,460.101C481.589,460.064 480.625,460.966 480.588,462.116Z"/>
            </g>
            <g transform="matrix(-1,0,0,1,1004.41,-5.68434e-14)">
                <path d="M344.033,483.751C344.23,483.821 344.558,483.931 344.784,483.978C345.8,484.189 346.877,484.269 347.364,484.383C351.078,485.255 354.247,487.132 358.011,487.712C359.147,487.887 359.928,488.952 359.752,490.088C359.577,491.225 358.512,492.005 357.376,491.83C353.504,491.233 350.233,489.336 346.412,488.44C345.687,488.27 343.739,488.144 342.455,487.626C341.317,487.167 340.554,486.41 340.236,485.545C339.639,483.919 339.322,480.737 339.242,477.071C339.07,469.116 339.84,458.739 339.84,458.739C339.906,457.845 340.537,457.094 341.406,456.874C341.406,456.874 344.155,456.179 345.547,455.916C348.269,455.402 351.586,454.955 354.329,454.587C362.609,453.477 370.88,452.74 379.232,452.065C403.576,450.098 427.97,449.319 452.37,448.383C463.146,447.97 473.917,447.769 484.698,447.917C487.055,447.949 490.944,447.84 493.827,448.955C494.899,449.37 495.433,450.577 495.018,451.649C494.603,452.722 493.396,453.256 492.324,452.841C489.901,451.904 486.621,452.11 484.641,452.083C473.932,451.936 463.233,452.136 452.53,452.547C428.188,453.481 403.853,454.256 379.568,456.218C371.289,456.887 363.09,457.617 354.882,458.717C352.208,459.075 348.974,459.509 346.321,460.01C345.669,460.134 344.7,460.358 343.893,460.552C343.692,463.665 343.279,471.018 343.408,476.981C343.469,479.811 343.619,482.306 344.033,483.751Z"/>
                <path d="M495.236,450.413C495.374,454.585 495.527,462.502 495.48,466.675C495.272,485.285 494.619,504.062 484.68,520.483C481.939,525.012 478.009,528.75 474.138,532.296C444.855,559.116 399.972,553.034 373.356,525.414C368.383,520.254 364.089,513.823 361.193,507.199C359.461,503.238 357.321,496.917 355.866,491.192C355.582,490.077 356.257,488.942 357.372,488.659C358.486,488.376 359.621,489.051 359.904,490.165C361.301,495.66 363.348,501.728 365.011,505.53C367.712,511.709 371.717,517.709 376.357,522.523C401.441,548.554 443.726,554.5 471.323,529.224C474.906,525.942 478.579,522.516 481.116,518.325C490.658,502.559 491.114,484.496 491.314,466.628C491.36,462.503 491.208,454.675 491.072,450.551C491.034,449.402 491.936,448.438 493.085,448.4C494.234,448.362 495.198,449.264 495.236,450.413Z"/>
                <path d="M481.961,463.641C481.416,463.612 473.438,463.192 473.027,463.174C466.236,462.882 458.684,463.04 451.891,463.009C419.814,462.865 399.13,463.321 370.193,468.152C369.059,468.342 367.984,467.574 367.795,466.44C367.606,465.306 368.373,464.232 369.507,464.042C398.694,459.17 419.556,458.697 451.91,458.843C458.754,458.874 466.363,458.716 473.206,459.011C473.651,459.031 480.978,459.292 482.57,459.516C483.643,459.667 484.124,460.246 484.234,460.39C484.929,461.305 484.751,462.613 483.835,463.309C483.28,463.731 482.581,463.831 481.961,463.641Z"/>
                <path d="M484.753,462.251C484.647,465.521 484.246,474.131 484.004,477.394C482.914,492.117 479.504,509.373 468.862,520.496C450.323,539.875 420.536,544.403 397.638,529.993C390.504,525.503 381.992,518.535 376.873,511.969C369.462,502.463 367.729,493.264 366.619,481.216C366.238,477.082 365.94,470.111 366.638,465.57C366.812,464.434 367.877,463.653 369.013,463.827C370.15,464.002 370.931,465.066 370.756,466.203C370.104,470.449 370.411,476.968 370.768,480.834C371.798,492.012 373.283,500.587 380.159,509.407C385.01,515.63 393.096,522.211 399.857,526.466C421.077,539.82 448.672,535.574 465.852,517.616C475.839,507.176 478.825,490.905 479.849,477.086C480.088,473.86 480.483,465.348 480.588,462.116C480.625,460.966 481.589,460.064 482.738,460.101C483.887,460.138 484.79,461.101 484.753,462.251Z"/>
            </g>
            <path d="M489.95,448.495C489.043,447.935 487.842,448.152 487.191,449.021C486.502,449.942 486.691,451.249 487.611,451.937C488.203,452.38 489.282,452.708 490.616,452.743C492.481,452.792 495.062,452.372 496.048,452.383C502.473,452.454 508.925,452.271 515.323,452.357C516.472,452.373 517.419,451.452 517.434,450.302C517.45,449.153 516.529,448.207 515.379,448.191C508.978,448.105 502.522,448.288 496.095,448.216C495.237,448.207 493.191,448.514 491.433,448.573C490.894,448.591 490.112,448.512 489.95,448.495Z"/>
            <path d="M493.094,476.227C492.157,476.849 491.882,478.11 492.483,479.068C492.912,479.752 493.452,479.987 493.901,480.086C494.373,480.191 494.856,480.15 495.34,479.913C495.634,479.769 496,479.502 496.307,479.044C496.471,478.798 496.809,478.092 496.882,477.939C497.431,477.284 498.029,476.622 498.823,476.278C501.098,475.291 504.752,475.886 507.181,475.986C507.344,475.993 508.569,476.107 509.047,476.152C509.322,476.321 509.641,476.429 509.985,476.454C511.132,476.537 512.131,475.673 512.214,474.526C512.261,473.869 512.069,473.135 511.273,472.572C511.043,472.41 510.639,472.21 510.096,472.092C509.228,471.903 507.621,471.834 507.352,471.823C504.388,471.701 499.942,471.251 497.165,472.455C495.742,473.072 494.596,474.174 493.618,475.346C493.481,475.51 493.265,475.899 493.094,476.227ZM495.13,476.074C495.482,476.238 495.791,476.501 496.012,476.854C495.747,476.43 495.442,476.195 495.13,476.074ZM508.053,474.339C508.048,474.542 508.072,474.744 508.131,474.943C508.076,474.75 508.049,474.547 508.053,474.339ZM508.053,474.33L508.058,474.226C508.055,474.26 508.054,474.295 508.053,474.33Z"/>
        </g>
    </g>
</svg>
