<?xml version="1.0" encoding="UTF-8" standalone="no"?>
<!DOCTYPE svg PUBLIC "-//W3C//DTD SVG 1.1//EN" "http://www.w3.org/Graphics/SVG/1.1/DTD/svg11.dtd">
<svg width="100%" height="100%" viewBox="0 0 1000 1000" version="1.1" xmlns="http://www.w3.org/2000/svg" xmlns:xlink="http://www.w3.org/1999/xlink" xml:space="preserve" xmlns:serif="http://www.serif.com/" style="fill-rule:evenodd;clip-rule:evenodd;stroke-linejoin:round;stroke-miterlimit:2;">
    <g>
        <g id="Layer21" serif:id="Layer2">
            <path d="M349.087,430.932C345.716,431.469 340.517,435.586 337.151,433.674C335.446,432.706 337.981,425.13 337.858,423.348C337.589,419.431 333.624,411.217 335.419,407.399C336.673,404.734 340.858,402.744 341.249,399.747C342.258,391.999 336.198,385.946 340.533,379.11C345.128,371.864 354.434,370.49 357.895,362.339C359.854,357.723 362.234,352.126 363.902,347.275C367.714,336.183 371.444,326.406 377.333,316.245C389.949,294.476 421.078,283.313 443.206,275.714C464.784,268.304 482.909,263.824 505.794,261.953C534.418,259.614 562.201,263.921 589.977,270.395C608.079,274.614 628.784,280.95 644.277,291.65C648.212,294.367 654.538,297.016 656.814,301.538C659.571,307.015 649.204,311.847 645.381,313.799C643.713,314.651 640.146,316.205 641.196,318.614C642.452,321.497 653.157,327.283 656.308,331.432C658.733,334.626 656.799,341.983 658.445,345.421C660.163,349.01 663.051,355.351 666.656,357.545C668.473,358.651 671.821,361.146 672.914,362.99C675.615,367.544 670.896,375.102 670.967,380.266C671.014,383.661 677.091,388.448 676.466,391.618C675.59,396.059 672.283,396.979 671.532,401.173C670.328,407.899 675.884,416.452 670.365,422.65C668.061,425.238 665.836,421.182 664.238,419.955C659.902,416.624 654.438,414.137 649.456,411.962C635.573,405.903 620.428,403.642 605.418,403.074C536.288,400.457 466.543,395.237 399.046,413.845" style="fill:rgb(255,137,0);"/>
            <clipPath id="_clip5">
                <path d="M349.087,430.932C345.716,431.469 340.517,435.586 337.151,433.674C335.446,432.706 337.981,425.13 337.858,423.348C337.589,419.431 333.624,411.217 335.419,407.399C336.673,404.734 340.858,402.744 341.249,399.747C342.258,391.999 336.198,385.946 340.533,379.11C345.128,371.864 354.434,370.49 357.895,362.339C359.854,357.723 362.234,352.126 363.902,347.275C367.714,336.183 371.444,326.406 377.333,316.245C389.949,294.476 421.078,283.313 443.206,275.714C464.784,268.304 482.909,263.824 505.794,261.953C534.418,259.614 562.201,263.921 589.977,270.395C608.079,274.614 628.784,280.95 644.277,291.65C648.212,294.367 654.538,297.016 656.814,301.538C659.571,307.015 649.204,311.847 645.381,313.799C643.713,314.651 640.146,316.205 641.196,318.614C642.452,321.497 653.157,327.283 656.308,331.432C658.733,334.626 656.799,341.983 658.445,345.421C660.163,349.01 663.051,355.351 666.656,357.545C668.473,358.651 671.821,361.146 672.914,362.99C675.615,367.544 670.896,375.102 670.967,380.266C671.014,383.661 677.091,388.448 676.466,391.618C675.59,396.059 672.283,396.979 671.532,401.173C670.328,407.899 675.884,416.452 670.365,422.65C668.061,425.238 665.836,421.182 664.238,419.955C659.902,416.624 654.438,414.137 649.456,411.962C635.573,405.903 620.428,403.642 605.418,403.074C536.288,400.457 466.543,395.237 399.046,413.845"/>
            </clipPath>
            <g clip-path="url(#_clip5)">
                <g>
                    <path d="M374.312,359.325C374.257,359.592 372.641,360.862 372.387,361.346C371.011,363.971 369.74,367.047 369.488,370.019C369.366,371.449 369.55,372.803 369.913,374.185C372.787,385.128 383.034,379.618 390.925,378.119C397.498,376.871 404.256,376.457 410.881,375.511C434.51,372.136 458.159,368.152 481.952,366.138C492.962,365.206 503.97,364.771 515.02,364.885C518.346,364.919 521.673,365.035 524.995,365.191C526.145,365.244 526.786,365.297 527.889,365.394C528.407,365.439 529.745,365.219 529.431,365.633C528.749,366.534 522.593,365.828 521.638,365.831C513.319,365.853 505.017,366.031 496.723,366.761C468.386,369.255 440.771,375.949 413.244,382.778C405.152,384.786 397.049,386.624 389.113,389.207C388.257,389.486 381.234,391.072 381.026,392.186C380.997,392.343 385.745,391.563 385.841,391.545C388.463,391.05 391.08,390.524 393.703,390.031C401.387,388.584 409.113,387.442 416.869,386.451C419.679,386.092 422.494,385.794 425.307,385.46C426.396,385.331 429.552,384.641 428.584,385.158C423.208,388.028 416.541,389.4 410.906,391.877C410.401,392.099 402.705,395.874 403.045,396.132C405.085,397.676 413.012,394.886 415.121,394.538C426.967,392.578 438.953,391.873 450.872,390.5C476.298,387.572 501.487,385.163 527.12,386.018C543.106,386.552 559.022,389.061 574.906,390.827C597.241,393.311 619.284,397.067 641.142,402.314C648.16,403.999 655.094,406.364 661.205,410.302C663.143,411.551 665.097,412.934 666.525,414.772C667.07,415.473 667.503,416.294 667.783,417.137C667.918,417.546 668.713,418.548 668.369,418.288C662.768,414.048 654.713,411.695 648.06,409.982C632.018,405.853 614.848,404.887 598.409,403.143C585.648,401.789 572.82,399.651 559.974,399.404C534.452,398.914 509.243,403.32 484.005,406.085C453.11,409.471 422.207,412.426 391.372,416.453C380.063,417.93 369.293,419.426 358.733,423.908C353.458,426.147 346.182,432.89 340.154,432.109C332.889,431.168 338.018,422.308 336.971,417.638C336.226,414.316 332.818,410.159 334.512,406.763C336.528,402.722 343.114,400.633 344.099,396.26C344.75,393.366 340.056,391.625 338.866,389.692C335.704,384.558 339.586,378.38 343.076,374.676C347.638,369.835 353.355,365.494 359.194,362.315C361.291,361.173 363.5,360.303 365.745,359.498C366.057,359.386 368.855,358.425 368.651,358.694" style="fill-opacity:0.17;"/>
                    <path d="M658.471,369.666C658.553,369.333 655.204,368.719 655.158,368.709C651.575,367.952 648.011,367.117 644.434,366.335C630.784,363.35 617.049,361.018 603.154,359.506C599.775,359.138 596.393,358.822 592.996,358.676C592.847,358.669 590.056,358.365 589.938,358.84C589.809,359.359 598.051,360.827 598.528,360.921C607.754,362.746 616.943,364.704 626.079,366.944C634.25,368.947 642.439,370.965 650.311,373.966C653.019,374.998 655.787,375.718 658.582,376.467C660.018,376.853 662.82,377.857 662.82,377.857C662.82,377.857 661.206,376.744 660.363,376.245C658.955,375.412 657.228,374.752 656.085,373.544C655.575,373.005 655.577,371.285 656.531,371.153" style="fill-opacity:0.17;"/>
                    <path d="M657.286,389.303C654.43,386.846 647.754,386.06 644.197,385.371C643.916,385.317 639.713,384.426 639.678,385.008C639.639,385.647 641.813,386.298 642.182,386.449C645.282,387.723 648.567,388.573 651.762,389.57C652.817,389.899 653.87,390.232 654.914,390.592C655.08,390.65 657.144,391.496 656.763,391.207" style="fill-opacity:0.17;"/>
                    <path d="M473.797,267.376C473.5,268.205 472.087,267.811 471.265,268.128C468.953,269.017 466.768,270.243 464.562,271.359C455.599,275.895 446.411,279.682 437.727,284.806C427.999,290.546 421.643,298.52 414.405,306.987C408.921,313.404 403.278,319.798 398.645,326.876C395.977,330.953 394.047,335.398 391.76,339.682C391.704,339.787 389.755,343.536 389.858,343.614C390.179,343.857 391.752,342.974 391.99,342.873C394.611,341.753 397.282,340.69 400.023,339.904C410.003,337.042 420.773,334.902 431.044,333.428C442.656,331.761 454.327,330.772 466.055,330.469C483.631,330.015 501.2,329.558 518.766,330.496C536.192,331.427 553.619,333.318 570.913,335.634C574.981,336.179 579.031,336.847 583.089,337.455C584.318,337.639 587.566,337.579 588.627,338.383C589.399,338.968 586.689,338.339 585.721,338.291C583.783,338.194 581.842,338.136 579.904,338.06C573.612,337.814 567.312,337.917 561.018,337.896C541.37,337.828 521.732,336.77 502.087,336.424C467.918,335.822 430.04,335.683 397.276,347.081C387.97,350.318 378.906,353.705 369.712,357.124C369.019,357.382 362.866,361.075 361.928,360.364C359.962,358.876 361.366,354.31 361.798,352.621C363.45,346.162 366.054,339.904 369.15,334.012C381.126,311.226 398.672,294.796 421.888,284.221C426.669,282.044 431.48,280.017 436.015,277.352C436.714,276.941 439.842,274.423 440.737,275.1" style="fill-opacity:0.17;"/>
                    <path d="M642.091,316.259C641.467,313.079 637.334,310.438 634.677,308.859C626.126,303.78 615.384,301.43 605.728,299.519C602.631,298.906 595.428,296.844 592.668,299.607C590.52,301.757 595.138,304.351 596.475,305.049C601.931,307.9 608.245,309.138 614.171,310.638C616.055,311.115 617.923,311.639 619.788,312.188C620.195,312.307 622.928,313.331 622.673,313.048" style="fill-opacity:0.17;"/>
                </g>
                <g>
                    <path d="M511.849,266.366C513.261,266.905 516.851,266.142 518.334,266.111C523.288,266.007 528.243,265.842 533.198,265.796C546.367,265.675 558.837,267.661 571.623,270.658C594.363,275.988 618.262,282.711 639.037,293.692C643.608,296.108 649.591,298.796 652.459,303.36C652.718,303.773 655.037,308.092 654.245,308.47C654.23,308.478 654.875,307.047 654.934,306.939C655.422,306.047 655.755,305.027 655.797,304.006C655.914,301.116 654.159,298.584 652.303,296.535C645.364,288.873 635.409,283.778 626.102,279.676C601.091,268.652 572.929,264.209 545.764,263.31C537.923,263.05 529.718,262.295 521.878,262.959" style="fill:white;fill-opacity:0.5;"/>
                    <path d="M624.206,312.791C624.614,312.658 626.025,313.688 626.842,314.154C629.488,315.662 632.014,317.338 634.525,319.058C639.782,322.659 645.818,326.013 648.814,331.831C650.438,334.984 650.282,339.705 651.246,343.171C652.491,347.646 658.309,353.531 662.896,354.772C663.382,354.904 662.197,354.045 661.877,353.655C661.386,353.059 660.91,352.441 660.466,351.808C659.058,349.796 657.766,347.667 656.597,345.509C655.455,343.402 654.121,341.078 654.052,338.62C653.944,334.73 655.727,332.37 652.891,328.933C651.736,327.535 650.397,326.256 648.912,325.213C648.16,324.684 645.733,323.421 646.419,324.033" style="fill:white;fill-opacity:0.5;"/>
                    <path d="M643.668,353.589C642.341,353.549 649.294,356.91 650.239,357.317C654.39,359.103 661.516,360.247 664.832,363.551C669.224,367.927 664.599,373.407 666.038,378.489C666.217,379.12 667.626,384.239 668.386,384.195C668.708,384.177 668.06,381.053 668.031,380.891C667.63,378.614 667.267,376.286 667.395,373.966C667.626,369.775 675.058,359.002 665.162,360.337" style="fill:white;fill-opacity:0.5;"/>
                </g>
            </g>
        </g>
        <g>
            <path d="M333.581,438.431C334.837,438.468 337.335,437.847 340.318,436.749C346.09,434.625 354.18,430.86 357.214,429.761C374.568,423.471 391.67,417.076 409.828,413.435C468.856,401.598 531.921,398.185 591.895,404.221C611.524,406.197 632.548,408.349 651.002,415.824C653.881,416.99 658.527,418.963 662.039,421.679C663.896,423.116 665.492,424.703 665.882,426.62C666.225,428.311 667.876,429.404 669.566,429.061C671.256,428.718 672.35,427.067 672.007,425.377C671.347,422.13 669.009,419.168 665.863,416.736C661.872,413.649 656.619,411.356 653.349,410.032C634.352,402.336 612.727,400.037 592.521,398.003C531.936,391.905 468.228,395.349 408.599,407.307C390.133,411.01 372.733,417.488 355.084,423.885C352.045,424.986 343.941,428.756 338.159,430.884C336.19,431.609 334.592,432.208 333.763,432.184C332.039,432.134 330.598,433.493 330.548,435.217C330.498,436.941 331.857,438.381 333.581,438.431Z"/>
            <path d="M337.658,432.338C337.836,431.753 338.333,430.111 338.392,429.893C339.138,427.126 339.194,424.281 338.408,421.518C337.067,416.804 336.369,413.231 337.197,409.986C338.003,406.827 340.294,404.097 344.428,400.834C345.782,399.766 346.014,397.799 344.945,396.445C343.877,395.091 341.91,394.86 340.556,395.928C335.006,400.308 332.224,404.2 331.141,408.441C330.081,412.594 330.68,417.195 332.396,423.228C332.869,424.89 332.806,426.601 332.358,428.266C332.247,428.677 331.368,431.692 331.377,432.209C331.406,433.854 332.386,434.59 332.955,434.918C333.677,435.335 334.546,435.529 335.591,435.154C336.824,434.712 337.609,433.572 337.658,432.338ZM336.45,429.744C335.707,429.115 334.795,428.859 333.656,429.215C334.647,428.923 335.68,429.148 336.45,429.744Z"/>
            <path d="M336.919,397.699C335.867,399.021 336.058,400.951 337.362,402.04C338.685,403.146 340.658,402.969 341.764,401.646C343.285,399.826 343.513,397.125 342.734,394.165C342.347,392.696 341.746,391.144 341.227,389.712C340.87,388.729 340.512,387.843 340.491,387.156C340.351,382.559 344.64,376.474 347.956,373.516C352.76,369.231 359.969,366.895 365.684,364.413C379.536,358.397 393.923,353.565 408.57,349.904C467.934,335.065 527.212,335.202 587.446,343.646C609.075,346.678 630.108,351.14 650.987,357.551C653.094,358.198 661.023,360.168 666.181,362.201C667.457,362.703 669.053,363.596 669.309,363.741C670.418,365.568 670.049,367.579 669.555,369.58C668.787,372.691 667.575,375.82 667.439,378.664C667.327,381.007 668.049,383.065 669.105,385.025C670.133,386.931 671.645,388.673 672.037,390.841C672.409,392.894 671.572,394.443 670.858,396.05C670.104,397.746 669.375,399.474 669.096,401.447C668.508,405.597 669.643,410.633 669.927,415.459C670.139,419.044 669.885,422.55 666.729,425.02C665.371,426.083 665.131,428.048 666.194,429.407C667.257,430.765 669.222,431.005 670.581,429.942C675.548,426.055 676.499,420.733 676.167,415.091C675.907,410.691 674.748,406.107 675.284,402.323C675.54,400.513 676.406,399.015 677.064,397.454C678.049,395.118 678.726,392.703 678.187,389.728C677.819,387.693 676.865,385.873 675.806,384.105C674.826,382.467 673.587,380.944 673.682,378.963C673.801,376.486 674.955,373.786 675.623,371.078C676.552,367.313 676.681,363.575 674.438,360.158C673.722,359.067 671.527,357.589 668.472,356.385C663.157,354.292 654.993,352.243 652.822,351.577C631.625,345.068 610.272,340.535 588.314,337.456C527.277,328.9 467.21,328.804 407.055,343.84C392.075,347.585 377.361,352.528 363.194,358.681C356.913,361.409 349.076,364.142 343.795,368.852C339.357,372.812 334.056,381.193 334.244,387.347C334.298,389.13 335.435,391.877 336.325,394.549C336.578,395.308 336.8,396.06 336.904,396.765C336.95,397.08 336.925,397.6 336.919,397.699Z"/>
            <path d="M361.387,363.015C362.579,355.835 364.651,348.639 366.354,344.893C374.542,326.882 381.215,316.174 391.069,306.818C419.116,280.186 451.779,272.673 489.654,266.808C531.48,260.331 583.533,268.204 623.074,283.031C626.32,284.248 629.549,285.508 632.727,286.895C639.624,289.905 648.47,295.028 652.786,301.653C655.523,305.854 651.905,308.861 647.089,311.04C644,312.437 640.616,313.204 637.36,314.11C635.698,314.573 634.725,316.297 635.187,317.959C635.65,319.62 637.374,320.594 639.036,320.131C642.597,319.14 646.286,318.263 649.665,316.734C655.684,314.011 659.643,309.871 660.012,305.255C660.185,303.078 659.636,300.718 658.023,298.242C653.087,290.665 643.115,284.609 635.226,281.167C631.948,279.736 628.617,278.435 625.268,277.179C584.796,262.002 531.509,254.002 488.698,260.632C449.499,266.702 415.793,274.722 386.765,302.285C376.393,312.134 369.282,323.349 360.665,342.307C358.814,346.379 356.517,354.188 355.221,361.991C354.939,363.692 356.091,365.303 357.792,365.586C359.493,365.868 361.104,364.716 361.387,363.015Z"/>
            <path d="M616.718,311.239C631.724,315.843 647.486,325.423 652.297,334.083C652.988,335.327 653.095,336.73 653.277,338.131C653.56,340.299 653.911,342.474 655.003,344.499C656.179,346.677 658.006,348.857 659.555,351.144C660.684,352.811 661.713,354.519 661.713,356.45C661.713,358.174 663.113,359.575 664.838,359.575C666.563,359.575 667.963,358.174 667.963,356.45C667.963,353.851 667.046,351.423 665.68,349.128C664.096,346.467 661.84,344.007 660.503,341.53C659.598,339.853 659.582,337.988 659.324,336.206C659.063,334.405 658.656,332.66 657.76,331.047C652.421,321.437 635.206,310.374 618.551,305.264C616.902,304.758 615.153,305.686 614.647,307.335C614.141,308.984 615.069,310.733 616.718,311.239Z"/>
        </g>
    </g>

</svg>
