<?xml version="1.0" encoding="UTF-8" standalone="no"?>
<!DOCTYPE svg PUBLIC "-//W3C//DTD SVG 1.1//EN" "http://www.w3.org/Graphics/SVG/1.1/DTD/svg11.dtd">
<svg width="100%" height="100%" viewBox="0 0 1000 1000" version="1.1" xmlns="http://www.w3.org/2000/svg" xmlns:xlink="http://www.w3.org/1999/xlink" xml:space="preserve" xmlns:serif="http://www.serif.com/" style="fill-rule:evenodd;clip-rule:evenodd;stroke-linejoin:round;stroke-miterlimit:2;">
    <g>
        <g id="Layer22" serif:id="Layer2">
            <path d="M664.142,706.485C664.631,705.989 662.794,706.875 662.177,707.199C660.934,707.852 659.7,708.526 658.469,709.201C654.694,711.274 651.353,713.5 648.99,717.17C646.78,720.6 644.862,724.227 642.443,727.526C639.575,731.439 636.1,734.914 633.244,738.856C631.027,741.917 630.403,746.162 626.761,748.116C626.15,748.443 623.863,749.572 623.283,749.297C622.422,748.888 622.28,746.524 622.07,745.752C621.249,742.721 620.718,739.376 619.692,736.435C619.526,735.96 617.616,731.178 617.256,731.326C616.022,731.832 614.994,734.23 614.383,735.25C611.996,739.237 609.827,743.093 607.119,746.896C602.371,753.563 599.049,761.01 594.603,767.801C589.493,775.604 583.597,783.049 577.808,790.35C573.493,795.791 567.451,800.179 560.921,802.136C560.258,802.334 559.63,803.225 559.027,803.329C558.623,803.398 557.802,801.824 557.667,801.577C556.228,798.961 556.542,796.539 553.182,798.681C549.558,800.992 547.175,804.748 543.852,807.444C542.507,808.536 541.197,809.588 540.16,810.993C540.101,811.074 539.187,812.306 539.286,812.342C542.03,813.339 544.361,814.958 547.503,814.304C549.129,813.965 551.806,811.467 553.4,811.905C555.965,812.611 556.064,816.546 558.283,817.387C562.7,819.062 569.48,815.766 573.53,814.306C575.158,813.718 577.125,813.59 578.666,812.792C580.386,811.902 577.517,808.366 578.888,807.775C579.991,807.299 581.691,807.518 582.912,807.116C587.65,805.555 592.386,804.29 597.18,802.924C604.694,800.784 611.442,797.944 618.689,795.183C623.521,793.342 628.563,788.02 633.249,785.778C640.679,782.223 645.542,779.823 652.085,775.185C659.561,769.886 667.229,765.079 674.616,759.647C678.196,757.014 683.477,753.001 685.058,748.653C686.277,745.298 682.48,740.247 681.247,737.365C679.709,733.768 679.032,729.833 677.588,726.183C676.691,723.917 674.85,722.228 674.074,719.929C672.781,716.094 672.749,712.143 670.318,708.837L664.142,706.485ZM315.796,745.506C317.35,742.944 316.317,737.331 317.376,734.313C320.12,726.492 324.755,720.366 328.102,712.969C329.16,710.631 331.31,702.897 334.337,701.909C335.861,701.412 340.572,702.736 341.942,703.547C342.608,703.942 341.206,704.949 341.117,705.718C340.933,707.309 341.252,708.966 341.267,710.565C341.305,714.472 343.432,717.989 344.04,721.841C344.274,723.321 344.457,727.766 346.157,728.513C347.385,729.053 350.985,724.965 352.109,724.314C357.344,721.284 361.251,718.972 367.01,721.699C371.711,723.925 371.822,729.79 373.583,733.95C375.598,738.712 379.042,743.867 382.545,747.482C385.36,750.386 387.491,745.953 389.259,744.286C389.682,743.888 391.726,742.737 392.363,743.231C393.711,744.274 394.668,747.05 395.847,748.406C398.484,751.437 401.47,754.105 403.674,757.502C406.667,762.116 408.637,767.328 411.466,772.032C414.235,776.636 418.152,780.428 421.472,784.626C425.869,790.183 429.168,795.794 434.654,800.458C437.001,802.453 440.644,799.805 440.878,797.279C441.26,793.161 442.647,788.69 442.633,784.606C442.627,782.893 441.744,781.269 441.771,779.509C441.792,778.2 443.093,775.722 444.555,775.65C448.01,775.479 452.101,779.958 454.599,781.844C462.95,788.149 472.825,795.019 478.474,804.055C479.424,805.575 483.132,811.216 482.618,812.68C481.086,817.046 473.853,814.213 470.425,813.932C459.697,813.055 447.606,812.34 437.285,808.719C434.848,807.864 434.945,811.296 433.648,812.553C432.697,813.475 431.881,815.058 430.456,815.239C429.676,815.338 428.552,814.535 427.877,814.86C426.466,815.538 427.251,816.551 425.116,816.518C419.853,816.435 415.22,814.217 410.26,812.99C400.609,810.603 392.875,806.37 383.727,802.348C380.612,800.979 376.826,800.838 373.925,799.12C372.052,798.01 368.681,796.266 367.893,794.018C366.719,790.671 366.481,788.221 364.231,785.361C362.752,783.482 360.099,782.561 358.118,781.387C354.26,779.102 350.412,776.38 346.766,773.767C343.995,771.782 341.428,769.536 338.707,767.491C338.356,767.228 336.663,765.422 335.973,765.754L315.796,745.506Z" style="fill:rgb(97,67,36);"/>
            <clipPath id="_clip6">
                <path d="M664.142,706.485C664.631,705.989 662.794,706.875 662.177,707.199C660.934,707.852 659.7,708.526 658.469,709.201C654.694,711.274 651.353,713.5 648.99,717.17C646.78,720.6 644.862,724.227 642.443,727.526C639.575,731.439 636.1,734.914 633.244,738.856C631.027,741.917 630.403,746.162 626.761,748.116C626.15,748.443 623.863,749.572 623.283,749.297C622.422,748.888 622.28,746.524 622.07,745.752C621.249,742.721 620.718,739.376 619.692,736.435C619.526,735.96 617.616,731.178 617.256,731.326C616.022,731.832 614.994,734.23 614.383,735.25C611.996,739.237 609.827,743.093 607.119,746.896C602.371,753.563 599.049,761.01 594.603,767.801C589.493,775.604 583.597,783.049 577.808,790.35C573.493,795.791 567.451,800.179 560.921,802.136C560.258,802.334 559.63,803.225 559.027,803.329C558.623,803.398 557.802,801.824 557.667,801.577C556.228,798.961 556.542,796.539 553.182,798.681C549.558,800.992 547.175,804.748 543.852,807.444C542.507,808.536 541.197,809.588 540.16,810.993C540.101,811.074 539.187,812.306 539.286,812.342C542.03,813.339 544.361,814.958 547.503,814.304C549.129,813.965 551.806,811.467 553.4,811.905C555.965,812.611 556.064,816.546 558.283,817.387C562.7,819.062 569.48,815.766 573.53,814.306C575.158,813.718 577.125,813.59 578.666,812.792C580.386,811.902 577.517,808.366 578.888,807.775C579.991,807.299 581.691,807.518 582.912,807.116C587.65,805.555 592.386,804.29 597.18,802.924C604.694,800.784 611.442,797.944 618.689,795.183C623.521,793.342 628.563,788.02 633.249,785.778C640.679,782.223 645.542,779.823 652.085,775.185C659.561,769.886 667.229,765.079 674.616,759.647C678.196,757.014 683.477,753.001 685.058,748.653C686.277,745.298 682.48,740.247 681.247,737.365C679.709,733.768 679.032,729.833 677.588,726.183C676.691,723.917 674.85,722.228 674.074,719.929C672.781,716.094 672.749,712.143 670.318,708.837L664.142,706.485ZM315.796,745.506C317.35,742.944 316.317,737.331 317.376,734.313C320.12,726.492 324.755,720.366 328.102,712.969C329.16,710.631 331.31,702.897 334.337,701.909C335.861,701.412 340.572,702.736 341.942,703.547C342.608,703.942 341.206,704.949 341.117,705.718C340.933,707.309 341.252,708.966 341.267,710.565C341.305,714.472 343.432,717.989 344.04,721.841C344.274,723.321 344.457,727.766 346.157,728.513C347.385,729.053 350.985,724.965 352.109,724.314C357.344,721.284 361.251,718.972 367.01,721.699C371.711,723.925 371.822,729.79 373.583,733.95C375.598,738.712 379.042,743.867 382.545,747.482C385.36,750.386 387.491,745.953 389.259,744.286C389.682,743.888 391.726,742.737 392.363,743.231C393.711,744.274 394.668,747.05 395.847,748.406C398.484,751.437 401.47,754.105 403.674,757.502C406.667,762.116 408.637,767.328 411.466,772.032C414.235,776.636 418.152,780.428 421.472,784.626C425.869,790.183 429.168,795.794 434.654,800.458C437.001,802.453 440.644,799.805 440.878,797.279C441.26,793.161 442.647,788.69 442.633,784.606C442.627,782.893 441.744,781.269 441.771,779.509C441.792,778.2 443.093,775.722 444.555,775.65C448.01,775.479 452.101,779.958 454.599,781.844C462.95,788.149 472.825,795.019 478.474,804.055C479.424,805.575 483.132,811.216 482.618,812.68C481.086,817.046 473.853,814.213 470.425,813.932C459.697,813.055 447.606,812.34 437.285,808.719C434.848,807.864 434.945,811.296 433.648,812.553C432.697,813.475 431.881,815.058 430.456,815.239C429.676,815.338 428.552,814.535 427.877,814.86C426.466,815.538 427.251,816.551 425.116,816.518C419.853,816.435 415.22,814.217 410.26,812.99C400.609,810.603 392.875,806.37 383.727,802.348C380.612,800.979 376.826,800.838 373.925,799.12C372.052,798.01 368.681,796.266 367.893,794.018C366.719,790.671 366.481,788.221 364.231,785.361C362.752,783.482 360.099,782.561 358.118,781.387C354.26,779.102 350.412,776.38 346.766,773.767C343.995,771.782 341.428,769.536 338.707,767.491C338.356,767.228 336.663,765.422 335.973,765.754L315.796,745.506Z"/>
            </clipPath>
            <g clip-path="url(#_clip6)">
                <g>
                    <path d="M377.572,741.361C375.282,745.106 373.896,749.559 372.501,753.685C369.617,762.221 367.513,770.665 366.411,779.599C366.051,782.517 365.413,785.333 364.869,788.214C364.707,789.07 364.127,790.685 364.516,791.55C367.069,797.234 374.813,800.835 380.089,802.99C390.441,807.22 400.224,811.425 411.196,813.689C414.735,814.419 418,815.18 421.633,815.097C423.542,815.054 425.423,815.818 427.316,815.633C427.887,815.577 428.168,814.744 428.917,814.643C429.887,814.513 431.249,814.873 432.122,814.338C434.6,812.822 434.808,809.296 432.697,807.521C430.469,805.647 427.822,806.098 425.21,805.47C423.555,805.072 422.198,804.047 420.691,803.315C417.043,801.543 412.744,800.738 408.891,799.463C401.164,796.907 393.897,794.156 386.503,790.821C382.51,789.021 377.481,787.935 374.712,784.284C372.799,781.763 375.094,778.157 375.627,775.49C376.109,773.082 376.418,770.677 377.168,768.328C377.404,767.589 377.622,766.102 378.3,765.587C379.044,765.023 382.276,767.408 382.878,767.82C387.32,770.859 390.766,772.939 396.133,773.86C398.445,774.257 400.624,775.409 402.97,775.566C403.682,775.613 404.837,775.59 405.202,774.814C406.921,771.154 404.698,767.567 401.49,766.012C395.451,763.085 388.616,762.08 382.797,758.494C380.006,756.773 382.454,752.025 383.175,749.637C383.328,749.129 383.286,747.2 383.691,746.893" style="fill:rgb(165,165,165);"/>
                    <path d="M350.662,742.034C345.008,748.591 355.434,755.638 359.983,748.29C361.665,745.574 356.96,742.393 355.211,741.461C354.918,741.305 352.713,740.188 352.32,740.824" style="fill:rgb(66,66,66);"/>
                    <path d="M323.051,723.675C322.707,724.269 322.304,724.827 322.105,725.494C321.436,727.732 322.94,730.05 325.482,729.228C328.414,728.279 330.139,723.866 328.432,721.294C327.748,720.262 326.587,719.71 325.563,719.076" style="fill:rgb(66,66,66);"/>
                    <path d="M448.271,786.209C447.589,787.876 445.828,789.197 446.171,791.168C446.755,794.523 451.358,796.991 453.668,793.675C454.936,791.854 455.803,788.976 455.287,786.781C455.08,785.901 451.924,785.078 451.222,785.662" style="fill:rgb(66,66,66);"/>
                    <path d="M557.534,795.588C554.122,793.409 554.872,808.281 555.017,809.563C555.369,812.678 562.222,818.359 565.597,818.359C567.728,818.359 570.11,816.384 572.204,815.846C574.185,815.336 577.519,815.463 578.892,813.697C582.432,809.147 579.091,803.981 578.203,799.145C577.754,796.703 579.029,793.521 576.217,793.024C571.377,792.17 565.427,803.065 561.665,805.752C559.869,807.035 558.425,803.838 558.868,802.51" style="fill:rgb(138,89,38);"/>
                </g>
                <g>
                    <path d="M338.892,707.004C338.958,707.011 338.06,708.29 337.982,708.403C337.467,709.153 336.964,709.913 336.469,710.677C335.109,712.776 333.943,714.921 333.07,717.27C330.514,724.148 327.698,730.81 325.252,737.736C324.321,740.369 322.802,744.118 324.157,746.88C326.005,750.648 331.288,753.533 334.734,755.508C342.118,759.741 349.648,763.87 357.337,767.528C359.709,768.656 364.362,769.232 366.181,770.947C366.395,771.149 365.731,773.111 365.69,773.386C365.414,775.233 364.73,779.525 362.493,780.254C361.312,780.64 358.434,778.213 357.548,777.694C353.44,775.285 349.335,772.857 345.195,770.503C337.075,765.885 328.153,760.699 321.299,754.236C319.081,752.144 315.546,751.236 315.737,747.603C316.395,735.063 321.436,722.207 328.764,712.158C330.354,709.978 332.062,707.879 333.617,705.674C334.033,705.085 335.549,702.332 335.708,702.431" style="fill-opacity:0.17;"/>
                    <path d="M401.56,776.818C401.074,775.749 400.531,777.738 399.861,778.399C398.758,779.488 397.399,779.579 395.929,779.402C393.026,779.054 389.051,778.292 386.403,777.063C385.499,776.644 383.5,775.016 382.43,775.924C381.58,776.646 381.623,778.435 381.343,779.441C381.02,780.602 380.802,781.958 381.278,783.122C382.15,785.256 387.586,786.483 389.449,787.211C396.494,789.966 402.882,794.101 409.905,796.869C412.899,798.05 416.06,798.818 418.984,800.174C420.321,800.794 422.958,802.114 422.958,802.114C422.958,802.114 419.427,801.315 417.663,800.905C414.384,800.145 411.093,799.422 407.834,798.575C401.335,796.887 395.583,794.006 389.403,791.541C384.637,789.64 378.456,787.97 374.916,783.894C372.785,781.44 377.396,772.957 378.865,770.965C379.334,770.328 380.342,768.307 381.226,768.103C381.782,767.975 381.765,769.166 382.241,769.48C383.363,770.222 384.804,770.509 386.108,770.73" style="fill-opacity:0.17;"/>
                    <path d="M481.854,810.32C481.532,809.165 476.212,809.317 475.415,809.231C469.469,808.586 463.572,807.657 457.734,806.352C452.343,805.147 447.059,803.727 441.612,802.756C438.516,802.204 435.437,801.631 432.361,800.972C429.084,800.269 425.794,799.806 422.451,800.332C422.109,800.386 419.223,801.117 419.927,802.073C421.944,804.811 430.02,805.754 433.006,806.71C444.013,810.235 455.798,813.213 467.341,814.359C469.144,814.538 476.348,816.358 477.724,814.898" style="fill-opacity:0.17;"/>
                    <path d="M475.16,815.314C474.88,815.467 473.13,813.222 472.996,813.089C470.355,810.483 467.623,807.84 464.639,805.63C459.604,801.9 454.086,798.074 448.82,794.666C445.977,792.826 441.416,790.623 439.861,787.354C438.115,783.681 442.851,776.939 447.109,777.661C452.047,778.499 456.56,783.461 459.992,786.698C463.842,790.328 467.753,793.902 471.545,797.592C475.333,801.277 479.163,804.947 482.424,809.111C483.999,811.123 484.675,813.799 486.531,815.549" style="fill-opacity:0.17;"/>
                    <path d="M437.249,801.271C437.617,801.108 436.915,802.008 436.819,802.399C436.529,803.574 435.837,805.458 434.356,805.502C431.4,805.588 428.232,803.072 426.158,801.262C417.994,794.136 411.591,784.526 404.476,776.359C398.622,769.64 393.427,763.081 386.938,756.962C386.612,756.655 381.328,751.673 381.328,751.673C378.105,755.091 377.102,758.896 372.235,754.537C369.791,752.348 368.944,748.806 367.482,745.976C366.072,743.246 364.05,740.899 362.643,738.175C361.584,736.125 360.487,732.192 358.11,731.209C356.197,730.418 353.438,732.561 351.965,733.488C348.483,735.68 343.217,738.225 339.171,735.596C337.265,734.358 337.303,730.009 336.786,728.09C335.079,721.754 334.067,715.117 333.875,708.567C333.83,707.05 332.809,703.644 333.472,702.215C333.542,702.065 335.445,702.9 335.528,702.934C337.419,703.703 340.246,704.604 341.388,706.442C343.63,710.051 342.164,720.779 347.636,722.426C352.54,723.902 359.52,717.081 364.472,719.378C373.802,723.705 375.993,736.35 382.437,743.004C385.761,746.436 386.479,737.713 389.703,740.562C396.121,746.234 399.756,753.799 405.001,760.328C408.212,764.325 412.861,767.148 415.863,771.285C419.337,776.072 421.62,783.189 425.92,787.244" style="fill-opacity:0.17;"/>
                    <path d="M589.075,773.908C588.688,773.91 588.324,774.043 587.944,774.088C587.036,774.194 589.468,773.079 590.215,772.553C591.66,771.533 591.684,771.544 593.174,770.3C595.736,768.161 598.179,765.834 600.54,763.476C603.2,760.821 605.662,757.925 607.984,754.97C608.912,753.789 610.216,750.736 611.621,749.994C613.554,748.972 617.256,755.412 619.639,752.129C622.386,748.345 623.44,739.264 622.302,734.732C620.836,728.896 619.247,726.344 614.051,730.859C613.091,731.694 612.173,732.618 611.475,733.687C610.148,735.72 609.687,738.183 608.981,740.474" style="fill-opacity:0.17;"/>
                    <path d="M650.295,761.378C650.317,761.362 648.981,762.003 648.201,763.366C647.131,765.239 645.792,766.837 644.223,768.315C639.631,772.639 634.631,777.029 629.122,780.156C616.626,787.248 604.721,794.565 590.427,797.284C585.943,798.137 577.354,798.127 578.703,804.529C579.096,806.397 581.207,806.372 582.728,806.113C586.494,805.474 590.13,803.763 593.774,802.651C604.794,799.29 613.936,792.438 624.304,787.7C625.76,787.035 631.874,782.583 633.81,782.739" style="fill-opacity:0.17;"/>
                    <path d="M561.902,803.009C561.022,802.88 560.97,811.169 563.027,811.771C566.042,812.652 571.751,809.772 574.773,809.224C577.82,808.671 580.995,807.615 579.026,811.886C577.414,815.384 571.776,814.819 568.672,815.29C566.257,815.657 557.991,818.475 555.772,816.513C553.369,814.388 554.26,808.102 553.472,804.901" style="fill-opacity:0.17;"/>
                    <path d="M540.504,812.299C539.141,812.26 542.544,808.529 542.618,808.465C544.082,807.173 550.012,801.638 552.255,802.941C554.861,804.456 553.369,810.468 551.692,812.06C550.973,812.743 549.085,814.879 548.563,813.583" style="fill-opacity:0.17;"/>
                    <path d="M683.942,748.753C684.034,748.503 674.662,754.588 672.421,755.639C664.72,759.252 655.101,761.54 650.047,768.899C649.189,770.148 645.214,774.021 646.116,775.741C647.142,777.699 652.955,774.212 653.926,773.707C661.254,769.901 667.815,764.949 674.698,760.433C675.373,759.99 680.538,757.618 680.617,756.643" style="fill-opacity:0.17;"/>
                    <path d="M429.386,812.12C429.367,812.429 428.638,813.539 428.869,813.736C429.225,814.042 430.461,813.371 430.745,813.219C432.114,812.486 433.822,811.099 433.789,809.371C433.755,807.573 431.519,807.397 430.285,808.05C430.136,808.129 429.079,808.931 429.347,809.199" style="fill-opacity:0.17;"/>
                    <path d="M426.095,812.66C426.169,812.896 424.509,812.714 424.463,812.706C422.505,812.361 420.586,811.801 418.662,811.308C413.982,810.111 409.465,808.624 405.03,806.713C395.757,802.719 385.602,799.632 376.866,794.537C374.163,792.96 369.818,792.411 368.251,789.501C366.671,786.567 368.433,781.289 369.132,778.32C370.91,770.762 372.736,763.022 374.646,755.384C375.606,751.541 376.866,747.885 377.422,743.992C377.505,743.409 378.097,739.676 376.866,740.565C374.67,742.152 373.705,745.335 372.884,747.764C371.315,752.405 369.511,756.451 368.653,761.338C367.481,768.008 365.577,774.512 364.766,781.23C364.505,783.395 363.365,786.217 364.135,788.372C365.216,791.401 369.063,793.368 371.525,795.073C379.559,800.635 389.119,804.177 398.157,807.709C405.15,810.442 412.03,813.137 419.447,814.506C422.472,815.064 425.795,815.981 428.388,813.759" style="fill-opacity:0.17;"/>
                    <path d="M379.223,759.514C379.176,759.209 378.887,760.033 378.765,760.316C378.456,761.036 378.533,761.702 379.002,762.338C380.255,764.038 382.752,765.263 384.672,766.02C389.254,767.828 393.78,769.712 398.398,771.433C398.895,771.619 402.94,773.063 402.319,774.084C401.31,775.744 397.096,774.464 395.841,774.168C390.292,772.862 384.947,770.427 379.942,767.739C379.022,767.245 378.043,766.7 377.138,766.167C376.341,765.698 376.173,765.588 375.473,765.134C373.508,763.858 374.355,763.185 376.23,761.869" style="fill-opacity:0.17;"/>
                </g>
                <g>
                    <path d="M380.871,759.982C379.919,759.861 377.823,760.096 379.544,761.171C380.848,761.984 382.393,762.475 383.818,763.021C387.657,764.491 391.5,765.924 395.479,766.972C396.576,767.261 397.682,767.563 398.807,767.726C398.906,767.74 399.871,767.925 399.903,767.644C399.941,767.3 398.941,766.881 398.754,766.783C397.692,766.222 396.58,765.74 395.474,765.273C394.38,764.81 393.277,764.369 392.171,763.935C390.237,763.176 388.185,762.092 386.128,761.692" style="fill:white;fill-opacity:0.66;"/>
                    <path d="M378.655,756.549C378.652,756.557 378.848,756.418 378.88,756.295C378.942,756.06 378.979,755.812 379.018,755.573C379.179,754.589 379.374,753.622 379.732,752.689C379.747,752.65 380.028,751.939 380.104,751.98C380.225,752.046 380.174,752.731 380.175,752.838C380.182,753.913 379.931,754.896 379.598,755.913C379.467,756.312 379.32,756.708 379.237,757.12C379.212,757.243 379.255,757.633 379.251,757.583" style="fill:white;fill-opacity:0.66;"/>
                    <path d="M375.326,765.694C373.844,770.248 371.893,776.225 370.934,781.397C370.616,783.114 369.926,785.564 370.903,787.22C371.878,788.872 374.026,790.077 375.643,790.949C377.583,791.994 379.434,793.075 381.532,793.779C382.518,794.11 383.472,794.529 384.422,794.949C384.483,794.977 385.279,795.289 385.302,795.192C385.386,794.832 385.677,794.079 385.555,793.728C385.275,792.927 382.536,792.56 381.845,792.211C379.285,790.918 376.676,789.554 374.462,787.711C373.771,787.135 372.789,786.56 372.417,785.711C371.849,784.414 372.499,782.662 372.666,781.344C373.112,777.821 374.339,774.203 375.419,770.831C375.831,769.542 376.954,767.396 376.832,766.056" style="fill:white;fill-opacity:0.66;"/>
                    <path d="M386.678,794.992C388.586,796.27 390.98,797.139 393.06,798.088C395.965,799.415 398.858,800.763 401.847,801.896C405.027,803.102 408.24,804.178 411.441,805.321C414.579,806.44 418.095,807.84 421.387,808.389C422.2,808.524 422.933,808.781 423.752,808.798C423.882,808.801 424.428,808.871 424.419,808.622C424.396,808.004 423.137,807.778 422.721,807.677C420.935,807.242 419.24,806.509 417.467,806.026C409.831,803.945 402.579,800.767 395.326,797.655C393.093,796.697 390.867,795.697 388.724,794.552C388.467,794.415 386.832,794.127 386.689,793.826" style="fill:white;fill-opacity:0.66;"/>
                    <path d="M646.533,719.173C645.925,719.174 647.605,718.587 648.181,718.391C649.569,717.921 650.958,717.476 652.229,716.731C653.097,716.221 653.903,715.627 654.747,715.083C655.478,714.612 656.238,714.181 656.988,713.741C658.244,713.004 663.226,708.998 664.988,710.905C665.826,711.811 666.278,713.697 666.876,714.789C668.153,717.121 670.002,719.251 670.975,721.728C672.53,725.684 672.327,729.062 675.096,732.585C676.489,734.357 677.576,736.062 678.647,738.039C678.999,738.688 679.459,739.306 679.728,739.997C679.851,740.314 679.909,741.208 680.117,740.939C680.312,740.689 679.707,739.066 679.649,738.836C679.079,736.565 678.537,734.288 677.954,732.021C676.041,724.586 673.254,717.804 669.585,711.089C668.752,709.565 668.153,705.864 666.771,704.866C663.871,702.774 660.077,707.136 657.907,708.533C657.051,709.083 656.24,709.695 655.481,710.372C655.056,710.75 653.64,711.573 654.204,711.502" style="fill:white;fill-opacity:0.49;"/>
                    <path d="M630.622,746.323C630.915,746.351 629.721,746.718 629.953,746.898C630.551,747.362 632.517,745.979 633.796,747.178C634.981,748.289 635.296,750.019 636.519,751.07C637.495,751.908 638.92,753.248 640.137,753.676C640.76,753.895 641.925,753.733 642.376,754.272C642.962,754.972 642.448,756.267 642.665,757.097C642.901,757.999 643.763,758.689 644.146,759.545C644.223,759.716 644.455,761.172 644.667,760.989C645.987,759.846 644.252,756.874 643.803,755.759C642.261,751.934 640.468,748.431 636.936,745.993C635.406,744.937 633.994,745.573 632.88,744.207C632.426,743.65 628.505,743.107 628.562,743.559" style="fill:white;fill-opacity:0.49;"/>
                    <path d="M571.978,799.235C571.655,798.196 570.914,798.707 571.129,799.844C571.485,801.718 571.819,803.632 572.401,805.451C572.448,805.596 572.84,807.066 573.255,807.033C573.685,806.999 573.767,805.461 573.782,805.322C574.054,802.828 573.899,800.254 573.749,797.756C573.717,797.212 573.673,796.669 573.633,796.126C573.63,796.075 573.56,795.045 573.593,795.095" style="fill:white;fill-opacity:0.49;"/>
                </g>
            </g>
        </g>
        <g>
            <path d="M364.181,779.168C351.977,773.255 340.55,764.885 329.632,756.897C327.58,755.396 324.905,753.612 322.539,751.551C320.554,749.822 318.741,747.93 318.042,745.762C317.412,743.81 317.908,741.732 318.62,739.702C319.542,737.071 320.909,734.52 321.846,732.294C323.895,727.43 326.851,723.069 328.899,718.234C329.833,716.032 330.638,712.33 332.031,709.227C332.462,708.266 332.948,707.369 333.558,706.66C334.108,706.022 334.769,705.556 335.679,705.608C336.203,705.638 336.549,705.985 336.948,706.22C337.741,706.685 338.56,707.106 339.503,707.343C341.175,707.764 342.875,706.748 343.296,705.075C343.717,703.403 342.7,701.703 341.028,701.282C340.315,701.103 339.789,700.621 339.175,700.296C338.239,699.801 337.235,699.437 336.037,699.368C332.162,699.146 329.376,701.263 327.412,704.563C325.34,708.045 324.313,713.038 323.145,715.796C321.094,720.635 318.137,725 316.086,729.868C314.886,732.719 313.059,736.085 312.147,739.481C311.404,742.249 311.241,745.039 312.094,747.681C312.925,750.257 314.68,752.669 316.88,754.83C319.719,757.619 323.302,760.01 325.942,761.941C337.158,770.148 348.918,778.718 361.455,784.792C363.008,785.544 364.878,784.895 365.63,783.342C366.382,781.79 365.733,779.92 364.181,779.168Z"/>
            <path d="M576.032,811.313C575.536,811.527 574.949,811.679 574.345,811.835C571.94,812.454 569.188,812.708 567.495,813.089C565.263,813.591 562.966,814.384 560.66,814.396C559.177,814.404 558.567,813.288 558.145,812.069C557.348,809.773 557.228,806.949 556.979,804.879C556.822,803.571 556.685,802.258 556.59,800.944C556.558,800.499 556.527,800.054 556.51,799.608C556.522,799.443 556.564,798.84 556.563,798.77C556.505,796.358 554.497,795.867 554.091,795.78C553.901,795.739 551.032,795.208 550.371,798.213C550.317,798.459 550.293,798.705 550.299,798.946C550.279,799.209 550.255,799.585 550.26,799.742C550.279,800.293 550.317,800.843 550.357,801.393C550.459,802.806 550.605,804.217 550.774,805.624C551.138,808.662 551.457,812.993 553.043,815.982C554.52,818.767 556.874,820.667 560.694,820.646C563.445,820.631 566.204,819.786 568.867,819.186C570.607,818.795 573.432,818.524 575.904,817.887C578.132,817.313 580.094,816.406 581.319,815.187C581.886,814.622 582.42,813.656 582.459,812.294C582.505,810.679 581.607,807.626 581.459,806.924C580.755,803.608 580.239,800.275 579.67,796.935C579.562,796.3 579.362,795.45 579.246,794.599C579.195,794.224 579.084,793.85 579.178,793.568C579.728,791.933 578.847,790.159 577.212,789.61C575.577,789.061 573.804,789.942 573.254,791.577C572.666,793.326 573.213,796.252 573.509,797.985C574.092,801.408 574.624,804.823 575.345,808.221C575.419,808.574 575.8,810.28 576.032,811.313ZM551.792,801.55C552.08,801.727 552.403,801.86 552.751,801.936C552.811,801.949 552.871,801.961 552.931,801.97C552.537,801.923 552.155,801.791 551.792,801.55ZM554.708,801.732C555.259,801.54 556.153,801.019 556.475,799.556C556.255,800.557 555.576,801.34 554.708,801.732Z"/>
            <path d="M539.281,816.521C540.465,816.299 541.888,816.642 543.096,816.593C546.551,816.451 550.141,816.078 553.555,815.474C555.253,815.173 556.388,813.55 556.088,811.852C555.787,810.154 554.164,809.019 552.466,809.319C549.324,809.875 546.02,810.217 542.84,810.348C541.348,810.409 539.592,810.103 538.129,810.378C536.434,810.695 535.316,812.33 535.633,814.025C535.951,815.72 537.585,816.838 539.281,816.521Z"/>
            <path d="M581.988,803.963C581.638,803.942 580.758,803.896 580.417,803.94C579.788,804.021 579.288,804.238 578.912,804.483C578.214,804.938 577.765,805.56 577.542,806.327C577.391,806.846 577.326,807.485 577.56,808.259C578.059,809.91 579.804,810.845 581.455,810.346C581.608,810.3 581.755,810.243 581.896,810.176C582.388,810.179 582.961,810.164 583.241,810.094C584.545,809.766 585.84,809.406 587.139,809.059C591.208,807.97 595.197,806.627 599.226,805.403C611.457,801.689 622.076,796.18 632.701,789.119C641.593,783.21 650.108,774.449 653.245,763.982C656.935,751.671 647.1,739.429 634.824,737.863C633.113,737.645 631.547,738.857 631.328,740.568C631.11,742.279 632.322,743.845 634.033,744.063C642.651,745.162 649.848,753.546 647.258,762.188C644.531,771.287 636.973,778.776 629.242,783.914C619.135,790.63 609.044,795.89 597.41,799.423C593.448,800.626 589.526,801.951 585.525,803.021C584.346,803.336 583.171,803.662 581.988,803.963ZM583.589,806.625C583.673,806.971 583.695,807.32 583.661,807.658C583.701,807.348 583.685,807.006 583.589,806.625Z"/>
            <path d="M617.67,742.936C618.092,742.98 618.529,742.938 618.957,742.798C619.953,742.473 620.333,741.94 620.49,741.741C621.173,740.876 621.246,740.015 621.119,739.274C620.994,738.54 620.594,737.278 618.889,736.79C618.699,736.735 617.402,736.683 616.898,736.727C616.385,736.771 615.877,736.838 615.366,736.902C613.555,737.128 611.354,737.294 609.657,738.017C608.07,738.692 607.33,740.529 608.005,742.116C608.681,743.703 610.518,744.443 612.105,743.768C613.299,743.259 614.868,743.263 616.142,743.104C616.573,743.05 617.002,742.991 617.434,742.954L617.67,742.936ZM615.38,738.108C615.021,738.612 614.882,739.117 614.872,739.594C614.912,739.06 615.089,738.549 615.38,738.108ZM616.458,737.101L616.446,737.109L616.557,737.049L616.458,737.101ZM616.619,737.016L616.581,737.036L616.687,736.986L616.619,737.016ZM616.805,736.934L616.752,736.957L616.838,736.922L616.805,736.934Z"/>
            <path d="M651.182,708.32C650.823,708.396 650.472,708.538 650.146,708.749C648.696,709.684 648.279,711.619 649.214,713.069C649.632,713.717 650.679,714.893 652.68,714.424C653.438,714.247 656.643,712.448 656.832,712.341C658.009,711.676 660.728,709.366 663.289,708.104C663.717,707.893 664.393,707.692 664.703,707.604C666.688,709.388 667.904,711.952 668.948,714.618C670.263,717.978 671.265,721.528 672.585,724.451C675.259,730.375 678.074,736.134 680.589,742.094C680.991,743.047 681.646,744.022 682.3,745.012C682.723,745.65 683.323,746.228 683.266,746.951C683.108,748.954 681.802,750.374 680.315,751.631C678.232,753.39 675.711,754.804 673.761,756.255C666.312,761.8 658.53,766.787 650.443,771.323C647.241,773.12 643.958,775.883 640.387,776.914C638.73,777.392 637.773,779.126 638.252,780.783C638.73,782.44 640.464,783.397 642.121,782.919C646.135,781.759 649.901,778.793 653.501,776.774C661.822,772.107 669.829,766.974 677.493,761.269C680.007,759.397 683.372,757.541 685.783,755.079C687.828,752.991 689.254,750.51 689.497,747.444C689.618,745.915 689.181,744.443 688.421,743.047C687.779,741.865 686.812,740.765 686.347,739.664C683.812,733.656 680.977,727.85 678.281,721.879C677.001,719.045 676.043,715.597 674.768,712.34C673.273,708.522 671.34,704.972 668.388,702.53C666.82,701.232 664.629,700.96 662.18,701.801C659.068,702.869 655.246,706.058 653.756,706.901L651.182,708.32ZM652.901,708.436C653.523,708.66 654.08,709.082 654.466,709.681C654.134,709.166 653.647,708.686 652.901,708.436Z"/>
            <path d="M397.143,777.144C397.511,778.022 398.45,778.56 399.427,778.387C401.591,778.003 403.858,777.724 405.557,775.86C406.791,774.506 407.203,772.743 406.962,770.941C406.651,768.608 405.183,766.241 403.458,765.002C400.622,762.966 396.236,762.061 392.968,760.931C389.01,759.561 384.985,757.226 380.86,756.466C379.037,756.13 376.037,756.681 374.291,758.13C372.771,759.391 371.98,761.183 372.864,763.523C373.247,764.537 374.095,765.562 375.181,766.452C376.441,767.486 378.014,768.37 379.029,768.938C381.245,770.178 383.476,771.423 385.738,772.577C389.421,774.456 393.423,775.394 397.098,777.124L397.143,777.144ZM399.74,774.116C400.064,774.065 400.388,774.009 400.708,773.938C401.346,773.795 401.979,773.601 402.478,773.053C403,772.48 402.926,771.665 402.708,770.909C402.416,769.897 401.782,768.928 401.028,768.387C398.494,766.567 394.527,765.879 391.606,764.868C387.839,763.565 384.031,761.287 380.105,760.564C379.353,760.425 378.199,760.61 377.334,761.082C376.956,761.289 376.579,761.567 376.762,762.052C376.924,762.482 377.361,762.852 377.822,763.23C378.881,764.098 380.212,764.825 381.064,765.302C383.233,766.517 385.417,767.736 387.632,768.866C391.275,770.724 395.237,771.642 398.873,773.355C399.242,773.528 399.536,773.796 399.74,774.116Z"/>
            <path d="M376.849,768.113C376.665,768.652 376.044,770.478 375.98,770.697C374.86,774.523 372.857,778.748 372.648,782.75C372.563,784.369 373.331,785.877 374.732,787.149C376.969,789.178 381.047,790.627 382.855,791.415C389.758,794.427 396.583,797.496 403.564,800.338C407.265,801.844 410.946,803.416 414.719,804.739C416.744,805.449 420.038,805.857 422.889,806.665C424.194,807.035 425.411,807.448 426.195,808.149C426.137,808.688 425.882,810.874 425.433,812.107C425.242,812.629 424.885,813.289 424.702,813.613C420.427,814.088 415.141,811.662 411.301,810.465C400.399,807.067 389.539,803.558 379.408,798.185C375.271,795.99 369.95,794.472 366.602,791.07C365.619,790.071 365.48,788.727 365.549,787.373C365.642,785.534 366.161,783.644 366.472,782.076C368.287,772.944 371.209,763.826 373.884,754.912C374.831,751.758 375.75,748.596 376.7,745.443C376.751,745.273 377.135,743.898 377.27,743.412C377.694,743.014 377.95,742.443 377.927,741.817C377.885,740.668 376.918,739.769 375.769,739.811C375.153,739.834 374.316,740.137 373.736,741.112C373.252,741.926 372.8,743.943 372.711,744.241C371.76,747.395 370.841,750.559 369.894,753.714C367.18,762.754 364.226,772.002 362.385,781.264C361.961,783.402 361.255,786.075 361.386,788.534C361.494,790.566 362.127,792.464 363.632,793.993C367.268,797.687 372.964,799.483 377.456,801.866C387.816,807.36 398.913,810.968 410.061,814.443C414.588,815.854 420.946,818.486 425.889,817.653C426.437,817.561 427.062,817.267 427.633,816.655C428.219,816.028 428.856,814.883 429.347,813.534C430.008,811.721 430.441,809.539 430.39,808.097C430.35,806.95 429.979,806.101 429.543,805.614C428.338,804.264 426.323,803.308 424.026,802.657C421.26,801.873 418.061,801.495 416.098,800.807C412.389,799.507 408.773,797.959 405.134,796.478C398.185,793.65 391.392,790.594 384.521,787.596C383.163,787.004 380.313,786.047 378.296,784.659C377.877,784.371 377.497,784.066 377.203,783.732C376.991,783.491 376.794,783.259 376.809,782.968C377.002,779.273 378.945,775.399 379.979,771.868C380.072,771.552 380.908,769.478 381.033,768.486C381.187,767.273 380.64,766.502 380.222,766.16C379.331,765.432 378.018,765.564 377.29,766.455C376.896,766.937 376.754,767.543 376.849,768.113Z"/>
            <path d="M380.582,755.37C380.452,755.528 380.141,755.913 380.047,756.062C379.803,756.448 379.72,756.802 379.693,757.046C379.604,757.839 379.898,758.423 380.371,758.854C380.674,759.13 381.205,759.525 382.159,759.388C382.999,759.269 383.65,758.662 383.868,757.895C384.073,757.616 384.309,757.275 384.381,757.098C384.687,756.347 384.888,755.552 385.094,754.769C385.326,753.89 385.476,752.672 385.713,751.49C385.869,750.712 386.013,749.932 386.407,749.449C387.135,748.559 387.002,747.245 386.112,746.518C385.222,745.79 383.908,745.923 383.181,746.813C382.546,747.589 382.093,748.692 381.796,749.91C381.474,751.23 381.33,752.702 381.065,753.709C380.919,754.264 380.786,754.831 380.582,755.37ZM381.783,755.244C381.953,755.237 382.12,755.251 382.28,755.285C382.135,755.252 381.97,755.234 381.783,755.244ZM381.705,755.248L381.685,755.251L381.782,755.244L381.705,755.248Z"/>
            <path d="M428.506,812.689L428.189,812.539C428.093,812.471 427.989,812.411 427.879,812.359C427.057,811.974 426.554,812.159 426.474,812.176C425.341,812.42 424.945,813.164 424.845,813.953C424.819,814.157 424.658,815.154 425.7,815.911C425.907,816.061 427.467,816.817 428.124,816.844C429.372,816.897 430.751,816.832 431.943,816.421C433.78,815.789 434.794,814.632 435.489,813.231C435.972,812.257 436.256,811.132 436.703,810.073C437.15,809.014 436.653,807.791 435.594,807.344C434.534,806.897 433.311,807.394 432.864,808.453C432.516,809.278 432.273,810.145 431.95,810.944C431.689,811.589 431.388,812.206 430.587,812.482C429.94,812.704 429.196,812.713 428.506,812.689Z"/>
            <path d="M483.045,811.875L480.386,811.636C477.076,811.388 473.764,811.034 470.478,810.57C461.141,809.254 451.857,807.571 442.624,805.662C438.11,804.728 433.13,802.922 428.529,802.564C426.81,802.43 425.305,803.718 425.171,805.437C425.038,807.157 426.325,808.661 428.045,808.795C432.395,809.134 437.09,810.9 441.358,811.782C450.722,813.719 460.137,815.425 469.605,816.759C473.026,817.241 476.474,817.61 479.919,817.868C480.054,817.879 482.9,818.165 483.509,818.122C485.51,817.982 486.142,816.53 486.308,816.095C486.924,814.484 486.115,812.676 484.504,812.061C484.023,811.877 483.524,811.82 483.045,811.875ZM480.55,813.673L480.538,813.701L480.584,813.603L480.55,813.673ZM481.349,812.613C481.003,812.905 480.769,813.231 480.608,813.555C480.796,813.187 481.049,812.87 481.349,812.613ZM481.433,812.543L481.395,812.574L481.439,812.539L481.433,812.543Z"/>
            <path d="M389.392,744.647C389.489,744.705 389.591,744.772 389.678,744.838C393.015,747.388 395.735,751.454 398.167,754.808C401.718,759.704 405.211,764.575 408.622,769.562C412.847,775.739 416.872,782.127 421.352,788.122C424.4,792.2 427.835,795.936 430.695,800.167C431.338,801.119 432.635,801.37 433.587,800.726C434.54,800.082 434.791,798.786 434.147,797.833C431.251,793.548 427.777,789.758 424.689,785.627C420.244,779.679 416.254,773.339 412.061,767.21C408.628,762.191 405.114,757.288 401.54,752.361C398.883,748.699 395.852,744.312 392.208,741.527C390.505,740.226 389.18,740.136 388.216,740.395C387.42,740.609 386.738,741.099 386.183,741.847C385.634,742.588 385.214,743.689 384.76,744.729C384.649,744.982 384.535,745.23 384.403,745.454C383.774,745.063 382.473,744.243 382.142,743.953C379.433,741.571 377.867,738.413 376.438,735.155C374.832,731.493 373.405,727.699 371.154,724.459C369.458,722.018 367.887,719.473 365.073,718.223C359.903,715.927 354.349,718.743 350.293,721.841C349.766,722.243 348.732,723.394 347.643,724.351C347.401,724.565 347.03,724.822 346.764,724.999L346.674,724.859C346.422,724.46 346.225,723.98 346.055,723.483C345.627,722.235 345.377,720.883 345.162,719.999C343.609,713.642 343.586,709.4 343.546,704.611C343.537,703.461 342.595,702.535 341.446,702.544C340.296,702.554 339.37,703.495 339.38,704.645C339.422,709.732 339.465,714.235 341.114,720.987C341.406,722.185 341.778,724.139 342.46,725.744C343.092,727.234 344.02,728.43 345.162,729.023C346.152,729.537 347.473,729.473 348.837,728.653C350.338,727.749 352.081,725.718 352.822,725.152C354.402,723.945 356.251,722.721 358.217,722.037C359.894,721.453 361.664,721.268 363.382,722.031C365.476,722.961 366.47,725.019 367.732,726.836C369.831,729.858 371.125,733.413 372.622,736.828C374.297,740.646 376.217,744.292 379.392,747.082C380.011,747.627 381.704,748.972 383.103,749.508C384.27,749.955 385.344,749.891 386.109,749.486C387.18,748.919 387.985,747.755 388.578,746.397C388.805,745.878 389.174,745.1 389.392,744.647Z"/>
            <path d="M437.324,799.595C436.705,799.666 436.145,799.24 435.599,798.825C434.659,798.111 433.836,797.193 433.203,796.564C432.389,795.752 431.068,795.755 430.257,796.57C429.446,797.384 429.448,798.704 430.263,799.516C431.173,800.423 432.443,801.794 433.854,802.682C435.141,803.492 436.546,803.918 437.951,803.717C439.471,803.499 440.516,802.575 441.185,801.262C441.8,800.053 442.027,798.431 442.241,797.362C443.243,792.347 443.213,787.776 444.108,782.747C444.231,782.058 444.289,780.317 444.586,778.749C444.653,778.397 444.803,777.943 444.916,777.625C447.358,778.428 450.27,780.897 452.09,782.259C455.965,785.158 458.802,787.746 461.583,790.412C470.238,798.71 477.434,808.144 483.479,818.507C485.746,822.391 487.711,826.761 489.673,830.808C491.396,834.362 492.693,838.283 494.713,841.677C495.561,843.1 496.57,843.47 497.349,843.517C498.24,843.571 499.194,843.183 499.966,842.223C500.94,841.011 501.708,838.436 501.908,837.646C502.347,835.915 502.535,834.211 502.714,832.478C503.387,833.687 503.984,834.966 504.448,836.166C504.642,836.669 504.816,837.177 504.995,837.685C505.045,837.825 505.181,838.048 505.318,838.252C505.369,838.472 505.458,838.687 505.586,838.889C506.202,839.86 507.49,840.149 508.461,839.534C509.455,838.904 509.663,838.072 509.425,837.124C509.369,836.901 509.045,836.391 508.857,836.106C508.687,835.624 508.519,835.143 508.335,834.665C507.458,832.394 506.159,829.88 504.748,827.877C504.553,827.6 503.419,826.209 502.699,825.818C501.771,825.314 500.935,825.46 500.333,825.818C499.918,826.066 499.496,826.499 499.23,827.163C498.926,827.925 498.859,829.416 498.803,829.886C498.53,832.175 498.439,834.375 497.869,836.622C497.817,836.828 497.617,837.36 497.398,837.919C495.923,835.034 494.825,831.883 493.422,828.99C491.415,824.849 489.397,820.382 487.079,816.407C480.837,805.708 473.402,795.972 464.467,787.405C461.573,784.63 458.618,781.94 454.587,778.923C452.228,777.159 448.22,774.031 445.175,773.382C443.459,773.017 442.122,773.792 441.271,775.484C440.337,777.339 440.204,780.907 440.006,782.017C439.116,787.016 439.151,791.561 438.155,796.545C438.04,797.119 437.941,797.895 437.738,798.637C437.674,798.874 437.598,799.106 437.498,799.318C437.455,799.407 437.361,799.544 437.324,799.595ZM505.733,836.455L505.727,836.463L505.747,836.438L505.733,836.455ZM506.14,836.075C505.99,836.181 505.866,836.295 505.765,836.417C505.873,836.29 505.999,836.175 506.14,836.075Z"/>
            <path d="M560.733,802.333C560.621,801.572 560.451,800.41 560.34,799.635C559.926,796.744 558.557,794.779 555.983,795.013C554.899,795.112 554.139,795.548 553.464,796.16C553.128,796.464 552.831,796.844 552.432,797.18C550.692,798.648 548.999,800.034 547.358,801.628C542.162,806.673 536.585,811.305 531.359,816.327C526.074,821.407 521.267,827.064 515.688,831.805C513.85,833.368 512.124,834.595 510.006,835.736C509.712,835.894 509.462,836.038 509.13,835.951C509.044,835.928 508.875,835.893 508.708,835.86C508.056,835.412 507.175,835.358 506.453,835.793C505.668,836.267 505.483,836.879 505.413,837.297C505.313,837.89 505.428,838.486 505.893,839.033C506.074,839.246 506.4,839.537 506.918,839.719C507.207,839.821 507.791,839.906 508.064,839.979C509.522,840.365 510.693,840.098 511.981,839.404C514.368,838.119 516.316,836.74 518.387,834.98C524.029,830.184 528.901,824.469 534.247,819.332C539.477,814.305 545.06,809.667 550.26,804.617C551.831,803.092 553.454,801.769 555.119,800.365C555.43,800.102 555.698,799.824 555.954,799.556L556.058,799.449C556.096,799.578 556.131,799.713 556.151,799.827C556.314,800.728 556.373,801.76 556.497,802.66C556.622,803.563 556.822,804.365 557.114,804.956C557.482,805.701 558.004,806.214 558.625,806.517C559.286,806.839 560.115,806.972 561.172,806.62C565.883,805.049 570.02,800.714 573.707,797.553C574.848,796.576 575.935,795.521 576.825,794.304C576.872,794.239 577.1,793.874 577.22,793.68C577.677,793.298 577.967,792.724 577.967,792.083C577.967,790.933 577.033,790 575.884,790C575.534,790 575.111,790.081 574.678,790.364C574.333,790.59 573.41,791.918 573.41,791.918C573.41,791.918 573.448,791.862 573.46,791.845C572.761,792.803 571.893,793.621 570.996,794.39C567.919,797.027 564.584,800.699 560.733,802.333ZM508.78,839.243C508.724,839.285 508.666,839.325 508.604,839.361C508.668,839.323 508.727,839.283 508.78,839.243ZM508.856,839.183L508.786,839.238L508.847,839.191L508.856,839.183ZM508.919,839.128L508.899,839.147L508.916,839.132L508.919,839.128Z"/>
            <path d="M623.061,748.195C623.021,747.676 623.005,747.178 622.951,746.814C622.424,743.242 621.242,739.677 620.312,736.191C620.243,735.932 619.875,734.505 619.316,733.366C618.973,732.667 618.544,732.068 618.107,731.686C617.439,731.102 616.691,730.875 615.94,730.946C615.302,731.006 614.563,731.281 613.869,732.113C610.287,736.412 607.935,741.507 605.005,746.253C598.712,756.445 592.749,767.061 585.677,776.731C583.095,780.262 580.466,783.852 577.547,787.112L575.608,789.243C575.028,789.458 574.549,789.928 574.347,790.562C573.997,791.657 574.602,792.83 575.697,793.18C576.166,793.33 577.087,793.383 578.04,792.659C578.907,792 580.437,790.132 580.652,789.891C583.662,786.529 586.378,782.831 589.04,779.191C596.177,769.433 602.201,758.726 608.55,748.442C611.065,744.369 613.112,740.014 615.968,736.183C616.144,736.704 616.255,737.146 616.286,737.264C617.176,740.599 618.325,744.005 618.829,747.422C618.96,748.308 618.961,749.892 619.439,750.887C619.789,751.614 620.314,752.157 621.005,752.483C621.616,752.77 622.402,752.915 623.429,752.658C625.039,752.256 626.425,750.712 627.485,749.569C629.591,747.296 631.485,744.847 633.362,742.386C638.699,735.384 643.179,727.794 648.315,720.637C650.102,718.147 651.044,715.436 653.224,713.256C654.037,712.443 654.037,711.122 653.224,710.309C652.411,709.496 651.091,709.496 650.278,710.309C647.932,712.656 646.853,715.528 644.93,718.208C639.817,725.332 635.361,732.89 630.048,739.859C628.252,742.215 626.445,744.562 624.429,746.736C624.05,747.145 623.637,747.653 623.171,748.092L623.061,748.195Z"/>
            <path d="M350.061,740.063C349.773,740.09 349.475,740.185 349.167,740.35C348.901,740.492 348.48,740.811 348.154,741.391C347.777,742.063 347.353,743.496 347.343,743.566C347.038,745.601 347.374,747.96 348.423,749.753C350.678,753.602 355.957,754.224 359.175,751.276C363.552,747.266 360.801,741.607 356.773,739.539C355.045,738.652 353.143,738.465 351.531,739.137C351.014,739.353 350.516,739.655 350.061,740.063ZM351.406,744.758C351.351,745.748 351.529,746.811 352.019,747.647C352.928,749.199 355.063,749.392 356.36,748.203C357.524,747.137 357.3,745.787 356.591,744.764C356.067,744.008 355.305,743.387 354.495,743.078C354.007,742.892 353.498,742.794 353.065,743.015C352.788,743.156 352.572,743.427 352.388,743.797C352.171,744.237 351.819,744.566 351.406,744.758Z"/>
            <path d="M324.409,726.838C324.229,726.684 323.985,726.484 323.875,726.425C323.393,726.168 322.941,726.137 322.575,726.185C322.158,726.239 321.782,726.403 321.453,726.692C321.194,726.918 320.911,727.255 320.775,727.82C320.53,728.841 321.086,729.869 322.037,730.243C322.218,730.383 322.409,730.52 322.524,730.571C323.193,730.865 323.894,731.045 324.62,731.128C326.648,731.361 328.615,730.699 329.975,729.138C331.218,727.713 331.838,725.249 331.483,723.001C331.09,720.51 329.582,718.398 327.046,717.876C325.919,717.644 324.817,718.371 324.585,719.497C324.353,720.623 325.08,721.726 326.206,721.957C326.974,722.116 327.248,722.897 327.368,723.652C327.525,724.648 327.385,725.769 326.834,726.4C326.397,726.902 325.747,727.063 325.095,726.989C324.86,726.962 324.631,726.914 324.409,726.838ZM323.981,730.021C324.345,729.805 324.671,729.44 324.827,728.79C324.702,729.311 324.391,729.74 323.981,730.021Z"/>
            <path d="M450.397,783.564C449.614,783.664 448.435,784.033 448.374,784.067C446.904,784.874 445.621,786.368 445.213,788.018C444.713,790.039 445.394,792.788 446.89,794.637C448.035,796.051 449.604,796.928 451.333,796.901C456.793,796.816 458.714,791.775 457.542,787.871C456.721,785.135 454.466,783.029 451.076,783.375C450.834,783.4 450.605,783.466 450.397,783.564ZM452.012,787.534C451.587,787.771 451.082,787.858 450.584,787.756L450.18,787.84C449.757,788.12 449.378,788.535 449.258,789.019C449.069,789.783 449.341,790.756 449.807,791.548C450.163,792.153 450.617,792.745 451.268,792.735C453.42,792.701 454.013,790.607 453.551,789.069C453.327,788.323 452.818,787.664 452.012,787.534ZM449.004,785.111C448.95,785.288 448.923,785.456 448.916,785.617C448.924,785.448 448.953,785.279 449.004,785.111ZM449.005,785.107L449.039,785.006C449.027,785.04 449.015,785.073 449.005,785.107Z"/>
        </g>
    </g>
</svg>
