<?xml version="1.0" encoding="UTF-8" standalone="no"?>
<!DOCTYPE svg PUBLIC "-//W3C//DTD SVG 1.1//EN" "http://www.w3.org/Graphics/SVG/1.1/DTD/svg11.dtd">
<svg width="100%" height="100%" viewBox="0 0 1000 1000" version="1.1" xmlns="http://www.w3.org/2000/svg" xmlns:xlink="http://www.w3.org/1999/xlink" xml:space="preserve" xmlns:serif="http://www.serif.com/" style="fill-rule:evenodd;clip-rule:evenodd;stroke-linejoin:round;stroke-miterlimit:2;">
    <g>
        <clipPath id="_clip3">
            <rect x="220.859" y="301.95" width="552.876" height="698.05"/>
        </clipPath>
        <g clip-path="url(#_clip3)">
            <g id="Layer2">
                <path d="M569.428,801.441C571.129,799.862 573.354,798.677 575.001,797.097C576.68,795.486 577.502,793.354 579.392,791.872C589.961,783.582 601.297,776.063 611.912,767.787C615.888,764.686 619.234,760.791 623.51,758.035C628.508,754.814 634.237,752.548 639.287,749.365C646.615,744.745 650.89,734.58 654.467,727.138C656.093,723.756 658.572,720.909 659.686,717.278C660.841,713.51 662.034,708.982 662.356,705.049C662.421,704.26 661.781,701.44 662.942,701.405C673.976,701.067 678.932,718.043 682.797,725.061C684.088,727.404 685.419,729.72 686.968,731.905C689.622,735.645 695.261,742.189 695.754,746.939C696.019,749.483 694.865,753.515 693.673,755.687C692.825,757.232 690.862,759.067 691.646,760.984C693.087,764.505 697.459,766.214 699.457,769.559C704.028,777.21 709.545,784.157 714.27,791.644C716.184,794.677 716.878,798.294 718.53,801.47C721.005,806.224 724.171,810.586 726.503,815.444C729.514,821.717 730.071,828.474 732.237,834.931C733.526,838.772 736.1,841.633 736.759,845.805C738.743,858.368 737.952,870.841 738.753,883.406C739.11,889.018 741.128,894.759 741.896,900.378C742.508,904.852 742.131,909.351 742.263,913.848C742.539,923.269 743.132,932.775 743.68,942.192C743.706,942.641 743.764,943.212 743.838,943.856C749.879,956.623 748.225,970.819 747.673,986.634C747.48,992.147 747.216,997.649 746.952,1003.16C746.852,1005.24 747.647,1008.81 746.914,1010.76L722.248,1015.36C721.36,1021.56 720.327,1027.81 719.149,1034.16L283.792,1025.83C286.46,1025.28 282.076,1020.65 281.46,1018C280.477,1013.76 279.682,1009.49 278.81,1005.23C275.08,1004.81 271.329,1004.58 267.596,1005.17C261.281,1006.16 253.921,1009.18 247.669,1006.15C242.883,1003.83 247.613,991.163 248.063,987.146C250.356,966.673 251.781,946.122 252.897,925.552C254.099,903.399 257.057,881.288 261.596,859.602C264.489,845.781 267.121,833 273.239,820.115C278.362,809.323 284.522,798.084 291.454,788.35C297.247,780.216 301.743,772.066 306.157,763.014C308.302,758.616 303.339,756.227 304.543,750.986C305.863,745.242 310.14,740.641 313.237,735.812C318.319,727.886 321.461,717.029 327.502,709.771C328.729,708.298 331.614,707.328 333.233,706.305C336.974,703.942 336.095,714.866 336.488,717.215C337.835,725.271 340.817,730.339 345.746,736.477C347.982,739.262 351.369,743.168 354.44,745.008C361.587,749.289 370.056,753.207 374.592,760.771C375.428,762.166 376.034,763.76 376.483,765.473C376.787,765.523 377.071,765.583 377.329,765.651C384.988,767.68 391.691,772.916 397.933,777.567C419.521,793.655 444.515,803.646 463.801,822.961C468.076,827.242 473.402,830.992 476.461,836.377C482.542,847.082 488.928,858.832 493.81,870.141C495.48,874.008 496.164,878.303 497.644,882.26C498.122,883.542 498.647,884.794 499.044,886.106C499.25,886.789 499.281,888.739 499.684,888.15C500.263,887.303 500.224,885.386 500.662,884.372C502.003,881.274 504.003,878.467 505.829,875.644C507.685,872.775 509.533,869.489 511.85,866.976C513.023,865.705 514.802,865.028 515.692,863.504C517.407,860.568 516.544,856.574 518.237,853.756C523.204,845.491 531.071,839.413 537.323,832.265C540.936,828.134 543.198,822.999 547.188,819.061C551.959,814.352 555.094,808.74 560.032,804.28C562.925,801.666 564.958,799.642 569.072,801.291C569.192,801.339 569.311,801.389 569.428,801.441Z" style="fill:rgb(241,241,241);"/>
                <clipPath id="_clip4">
                    <path d="M569.428,801.441C571.129,799.862 573.354,798.677 575.001,797.097C576.68,795.486 577.502,793.354 579.392,791.872C589.961,783.582 601.297,776.063 611.912,767.787C615.888,764.686 619.234,760.791 623.51,758.035C628.508,754.814 634.237,752.548 639.287,749.365C646.615,744.745 650.89,734.58 654.467,727.138C656.093,723.756 658.572,720.909 659.686,717.278C660.841,713.51 662.034,708.982 662.356,705.049C662.421,704.26 661.781,701.44 662.942,701.405C673.976,701.067 678.932,718.043 682.797,725.061C684.088,727.404 685.419,729.72 686.968,731.905C689.622,735.645 695.261,742.189 695.754,746.939C696.019,749.483 694.865,753.515 693.673,755.687C692.825,757.232 690.862,759.067 691.646,760.984C693.087,764.505 697.459,766.214 699.457,769.559C704.028,777.21 709.545,784.157 714.27,791.644C716.184,794.677 716.878,798.294 718.53,801.47C721.005,806.224 724.171,810.586 726.503,815.444C729.514,821.717 730.071,828.474 732.237,834.931C733.526,838.772 736.1,841.633 736.759,845.805C738.743,858.368 737.952,870.841 738.753,883.406C739.11,889.018 741.128,894.759 741.896,900.378C742.508,904.852 742.131,909.351 742.263,913.848C742.539,923.269 743.132,932.775 743.68,942.192C743.706,942.641 743.764,943.212 743.838,943.856C749.879,956.623 748.225,970.819 747.673,986.634C747.48,992.147 747.216,997.649 746.952,1003.16C746.852,1005.24 747.647,1008.81 746.914,1010.76L722.248,1015.36C721.36,1021.56 720.327,1027.81 719.149,1034.16L283.792,1025.83C286.46,1025.28 282.076,1020.65 281.46,1018C280.477,1013.76 279.682,1009.49 278.81,1005.23C275.08,1004.81 271.329,1004.58 267.596,1005.17C261.281,1006.16 253.921,1009.18 247.669,1006.15C242.883,1003.83 247.613,991.163 248.063,987.146C250.356,966.673 251.781,946.122 252.897,925.552C254.099,903.399 257.057,881.288 261.596,859.602C264.489,845.781 267.121,833 273.239,820.115C278.362,809.323 284.522,798.084 291.454,788.35C297.247,780.216 301.743,772.066 306.157,763.014C308.302,758.616 303.339,756.227 304.543,750.986C305.863,745.242 310.14,740.641 313.237,735.812C318.319,727.886 321.461,717.029 327.502,709.771C328.729,708.298 331.614,707.328 333.233,706.305C336.974,703.942 336.095,714.866 336.488,717.215C337.835,725.271 340.817,730.339 345.746,736.477C347.982,739.262 351.369,743.168 354.44,745.008C361.587,749.289 370.056,753.207 374.592,760.771C375.428,762.166 376.034,763.76 376.483,765.473C376.787,765.523 377.071,765.583 377.329,765.651C384.988,767.68 391.691,772.916 397.933,777.567C419.521,793.655 444.515,803.646 463.801,822.961C468.076,827.242 473.402,830.992 476.461,836.377C482.542,847.082 488.928,858.832 493.81,870.141C495.48,874.008 496.164,878.303 497.644,882.26C498.122,883.542 498.647,884.794 499.044,886.106C499.25,886.789 499.281,888.739 499.684,888.15C500.263,887.303 500.224,885.386 500.662,884.372C502.003,881.274 504.003,878.467 505.829,875.644C507.685,872.775 509.533,869.489 511.85,866.976C513.023,865.705 514.802,865.028 515.692,863.504C517.407,860.568 516.544,856.574 518.237,853.756C523.204,845.491 531.071,839.413 537.323,832.265C540.936,828.134 543.198,822.999 547.188,819.061C551.959,814.352 555.094,808.74 560.032,804.28C562.925,801.666 564.958,799.642 569.072,801.291C569.192,801.339 569.311,801.389 569.428,801.441Z"/>
                </clipPath>
                <g clip-path="url(#_clip4)">
                    <g>
                        <path d="M510.945,905.967C505.381,903.085 504.368,912.942 504.699,916.255C504.848,917.75 505.202,919.641 506.757,920.311C510.995,922.14 513.307,915.571 513.346,912.574C513.363,911.301 513.23,909.891 512.812,908.676C512.623,908.127 511.783,906.69 511.783,907.271" style="fill:rgb(67,67,67);"/>
                        <path d="M510.945,955.779C510.966,955.639 509.251,956.226 509.151,956.306C508.017,957.214 507.352,958.703 506.856,960.026C505.586,963.413 504.773,970.22 509.428,971.504C514.413,972.879 514.576,964.142 514.158,961.333C514.009,960.338 513.46,958.302 512.436,957.79" style="fill:rgb(67,67,67);"/>
                    </g>
                    <g>
                        <path d="M548.346,932.886C547.237,943.76 547.677,956.583 548.55,968.16C548.928,973.165 548.707,978.593 550.262,983.429C552.296,989.758 557.454,994.261 559.805,1000.44C559.93,1000.77 562.108,1007.12 562.009,1007.15C561.569,1007.3 559.785,1005.58 559.541,1005.38C556.952,1003.18 554.511,1000.83 552.203,998.336C540.767,985.99 540.518,969.632 540.784,953.549C540.869,948.452 541.311,943.381 541.311,938.28C541.311,936.574 541.353,935.089 541.706,933.443C541.787,933.061 542.232,930.931 542.232,931.37" style="fill-opacity:0.17;"/>
                        <path d="M496.693,877.53C495.867,876.797 495.126,878.724 494.978,879.113C493.977,881.739 493.234,884.478 492.575,887.208C490.133,897.326 489.408,908.163 488.363,918.503C486.858,933.401 484.482,948.155 484.908,963.191C485.142,971.459 486.767,979.6 487.902,987.772C488.627,992.992 489.298,998.231 490.107,1003.44C490.219,1004.15 490.359,1007.82 491.391,1008.01C494.885,1008.65 496.127,1001.96 495.998,999.981C495.299,989.268 492.909,979.17 493.365,968.324C493.986,953.541 493.39,938.334 495.043,923.636C495.959,915.495 496.767,906.875 498.071,898.792C498.449,896.446 499.848,893.919 499.848,891.552" style="fill-opacity:0.17;"/>
                        <path d="M506.731,883.357C507.559,879.341 513.415,877.94 516.795,876.842C524.946,874.196 530.203,873.681 534.993,865.983C536.13,864.156 538.569,860.343 537.559,857.987C536.974,856.62 531.685,859.267 531.011,859.5C527.483,860.722 522.92,861.375 519.987,863.844C518.546,865.058 517.736,866.864 516.268,868.122C515.783,868.538 511.934,871.329 512.451,872.104" style="fill-opacity:0.17;"/>
                        <path d="M539.374,852.888C540.274,852.239 537.141,853.236 536.046,853.051C534.053,852.713 532.162,851.74 530.879,850.155C529.476,848.421 529.038,846.252 528.773,844.1C528.757,843.965 528.563,840.684 528.181,840.875C526.972,841.479 526.042,843.927 525.417,844.988C522.895,849.27 519.78,853.601 518.045,858.283C517.425,859.958 516.719,864.527 519.395,865.062C523.348,865.852 529.14,859.925 532.393,858.217C534.596,857.061 535.804,858.232 537.625,857.625" style="fill-opacity:0.17;"/>
                        <path d="M550.906,834.315C552.402,835.773 555.187,833.579 557.172,834.228C561.653,835.693 566.574,839.887 568.196,844.33C571.153,852.43 573.383,861.351 575.205,869.8C575.647,871.851 576.002,877.744 578.529,878.587C580.301,879.177 582.956,875.656 583.564,874.44C586.182,869.203 585.596,861.897 585.538,856.243C585.412,843.888 584.48,832.565 580.931,820.736C580.014,817.68 579.616,813.324 577.904,810.633C575.959,807.577 571.881,805.843 569.216,803.525C567.998,802.466 566.78,800.893 565.004,800.991C562.859,801.111 560.936,803.303 559.706,804.842C556.268,809.139 551.94,814.94 551.94,820.703" style="fill-opacity:0.17;"/>
                        <path d="M439.856,814.536C424.212,818.162 423.26,841.069 421.246,853.553C420.573,857.723 420.116,861.906 419.62,866.099C419.573,866.494 418.696,871.969 418.563,871.872C417.796,871.314 417.537,869.141 417.355,868.347C416.455,864.405 416.149,860.264 415.954,856.236C415.313,842.99 415.315,827.615 420.018,814.952C421.781,810.207 424.752,805.989 429.083,803.277C430.1,802.641 432.787,801.402 433.958,802.565" style="fill-opacity:0.17;"/>
                        <path d="M497.64,881.515C497.936,881.619 496.982,882.026 496.746,881.818C495.786,880.971 494.929,880.061 493.889,879.298C491.057,877.219 487.701,875.846 484.441,874.595C475.125,871.021 464.74,874.685 455.56,871.188C451.767,869.743 451.824,865.502 451.478,862.038C450.638,853.603 450.669,845.025 450.817,836.549C450.858,834.219 449.611,829.232 450.391,827.089C450.735,826.141 451.583,828.725 452.049,829.619C453.04,831.515 453.766,833.552 454.479,835.565C456.776,842.047 458.02,848.581 461.118,854.752C463.758,860.011 468.922,859.086 473.832,860.937C478.38,862.652 483.488,863.384 487.696,865.909C490.293,867.467 492.192,869.866 494.567,871.704" style="fill-opacity:0.17;"/>
                        <path d="M270.308,1008.14C270.214,1009.35 270.494,1005.97 270.496,1005.93C270.581,1004.05 270.596,1002.15 270.602,1000.26C270.616,994.928 270.59,989.595 270.665,984.259C270.889,968.284 271.269,952.468 272.479,936.533C276.204,887.49 276.881,839.967 304.211,797.23C305.839,794.685 307.75,792.119 308.94,789.353C309.451,788.166 314.251,792.448 314.379,792.567C319.933,797.742 324.629,803.798 329.82,809.325C341.84,822.119 355.732,834.304 369.209,845.565C375.438,850.769 382.323,857.665 389.364,861.667C392.375,863.379 395.195,864.469 398.459,865.463C399.636,865.822 401.282,867.844 401.282,867.844C401.282,867.844 400.069,864.973 399.312,863.615C397.673,860.671 395.521,858.018 393.155,855.632C386.024,848.438 379.541,840.261 373.235,832.343C364.937,821.923 355.402,812.701 346.538,802.786C342.772,798.574 339.951,793.646 336.049,789.558C331.316,784.599 325.562,780.692 320.948,775.6C316.244,770.408 313.781,766.695 308.498,761.645C308.04,761.208 305.599,757.206 305.03,757.239C303.362,757.335 301.185,764.186 300.716,765.236C296.433,774.824 292.315,784.515 287.647,793.924C278.106,813.157 269.044,833.289 263.25,854.032C256.767,877.238 254.162,902.596 252.232,926.541C250.81,944.194 247.95,961.742 247.887,979.475C247.867,985.079 246.233,990.461 245.839,996.026C245.715,997.786 245.605,999.558 245.544,1001.32C245.536,1001.57 245.488,1004.24 245.519,1004.23" style="fill-opacity:0.17;"/>
                        <path d="M344.273,909.099C344.508,909.755 337.361,904.164 336.386,903.427C332.047,900.146 327.75,896.819 323.566,893.34C314.006,885.393 304.873,876.8 296.792,867.337C294.098,864.183 289.541,859.974 288.024,855.967C287.847,855.498 288.822,856.578 289.185,856.924C289.985,857.689 290.736,858.497 291.466,859.328C293.409,861.54 295.427,863.681 297.497,865.774C304.205,872.555 310.918,879.197 317.914,885.654" style="fill-opacity:0.17;"/>
                        <path d="M364.98,1003.37C365.44,1007.73 367.345,1002.39 367.204,1000.3C366.769,993.847 365.619,987.46 365.148,981.01C364.056,966.026 364.889,951.237 365.736,936.291C365.929,932.886 363.599,917.183 370.062,916.53C374.888,916.042 377.365,926.79 377.937,929.726C381.143,946.208 380.575,964.556 381.318,981.314C381.594,987.536 382.052,993.709 382.479,999.917C382.629,1002.1 382.618,1004.3 382.505,1006.49C382.457,1007.43 382.796,1010.19 382.431,1009.32" style="fill-opacity:0.17;"/>
                        <path d="M634.011,1008.61C634.064,1008.71 634.754,1002.34 634.723,1001.8C634.38,995.864 633.68,989.943 633.044,984.032C631.263,967.459 630.705,950.333 630.821,933.651C630.84,930.95 630.949,919.657 635.466,919.225C641.024,918.692 644.241,935.298 644.584,938.406C646.224,953.251 646.376,968.172 647.662,983.039C648.371,991.23 650.908,1000.25 650.065,1008.5" style="fill-opacity:0.17;"/>
                        <path d="M656.966,898.558C656.868,898.512 659.053,896.57 663.554,892.703C668.261,888.66 672.877,884.544 677.42,880.317C689.479,869.097 700.517,856.806 711.671,844.696C714.965,841.12 717.938,837.407 720.769,833.461C722.282,831.351 724.769,826.775 724.769,826.775C724.769,826.775 724.222,831.061 723.289,832.968C721.311,837.014 718.506,840.685 715.727,844.202C707.794,854.24 699.268,863.969 690.517,873.303" style="fill-opacity:0.17;"/>
                        <path d="M346.023,737.745C347.027,738.399 344.156,736.24 343.306,735.397C341.521,733.628 338.717,729.324 335.629,731.064C329.049,734.77 325.395,745.09 321.116,751.089C319.987,752.672 316.262,755.895 317.503,758.173C327.221,776.016 341.624,790.991 354.52,806.535C360.747,814.041 366.452,822.096 373.104,829.339C379.869,836.706 387.326,843.221 394.598,850.05C396.971,852.277 399.402,854.399 402.196,856.084C403.595,856.928 406.365,858.662 406.365,858.662C406.365,858.662 403.265,856.968 401.72,856.112C398.472,854.315 395.301,852.379 392.183,850.365C384.042,845.106 376.265,839.341 369.215,832.678C351.953,816.361 337.324,797.456 322.589,778.915C317.983,773.12 308.109,764.635 305.214,758.223C303.472,754.364 305.612,749.216 307.097,745.592C311.245,735.469 317.108,726.61 323.847,718.054C324.664,717.017 325.481,715.98 326.297,714.943C326.622,714.531 333.487,704.395 335.282,708.208" style="fill-opacity:0.17;"/>
                        <path d="M677.025,779.017C675.136,780.456 674.012,783.612 672.59,785.475C669.747,789.199 666.277,792.991 662.844,796.18C646.706,811.176 628.08,823.741 612.434,839.23C608.091,843.53 603.14,847.567 599.153,852.188C597.472,854.136 595.817,856.121 594.186,858.11C594.091,858.226 592.813,859.907 592.768,859.876C592.598,859.76 592.987,856.373 592.994,856.155C593.134,851.842 593.338,847.431 593.202,843.119C592.764,829.236 594.242,814.829 583.998,803.909C580.896,800.603 578.205,799.765 574.068,798.984C573.216,798.823 572.38,798.573 571.534,798.383C571.137,798.294 570.256,797.778 570.331,798.178C570.504,799.105 572.489,800.905 573.028,801.63C575.197,804.547 577.715,807.372 579.638,810.454C584.207,817.776 586.515,828.667 587.855,837.125C589.146,845.269 589.966,854.77 589.463,863.036C589.374,864.506 587.728,870.4 589.322,871.493C590.171,872.075 591.595,870.292 591.986,869.831C594.263,867.146 596.276,864.216 598.492,861.477C608.137,849.549 621.578,840.734 632.476,829.935C640.812,821.675 648.014,812.402 656.908,804.797C658.853,803.133 660.59,801.15 662.388,799.331" style="fill-opacity:0.17;"/>
                        <path d="M510.394,903.995C507.001,901.24 503.714,903.2 501.82,906.749C499.575,910.957 499.813,917.091 502.095,921.196C503.081,922.969 504.346,924.776 506.535,925.035C508.234,925.236 511.047,924.559 512.225,923.219C512.686,922.695 512.893,922.013 513.172,921.387C513.191,921.345 513.518,920.466 513.482,920.469C513.051,920.508 512.526,921.084 512.038,921.175C510.36,921.488 507.936,920.639 506.753,919.429C504.273,916.893 504.374,911.439 505.352,908.295C505.619,907.435 506.088,905.526 506.942,904.997" style="fill-opacity:0.17;"/>
                        <path d="M513.612,957.35C514,956.845 512.939,955.116 512.679,954.759C511.189,952.71 508.662,953.708 506.874,954.771C503.553,956.745 502.787,959.951 502.201,963.548C501.74,966.386 501.405,968.931 502.659,971.617C503.534,973.489 504.875,975.562 506.988,976.178C509.456,976.897 512.707,975.476 514.43,973.703C515.02,973.095 515.481,972.3 515.75,971.499C515.774,971.427 515.968,970.917 515.877,970.841C515.815,970.789 514.728,971.801 514.652,971.854C513.793,972.458 512.884,972.772 511.832,972.529C506.083,971.203 504.479,963.718 507.616,959.261" style="fill-opacity:0.17;"/>
                    </g>
                </g>
            </g>
            <g>
                <path d="M493.603,1002.53C493.51,1002.75 493.441,1002.98 493.398,1003.22C493.096,1004.92 494.23,1006.54 495.928,1006.84C497.075,1007.05 497.896,1006.74 498.502,1006.35C499.066,1005.98 499.509,1005.48 499.794,1004.8C500.009,1004.29 500.153,1003.58 500.051,1002.72C499.967,1002.01 499.457,1000.21 499.4,1000.01C499.4,997.121 499.38,994.229 499.343,991.336C499.226,982.149 498.768,972.971 498.544,963.787C497.98,940.692 496.844,901.786 509.158,880.853C513.064,874.213 518.756,868.909 525.871,865.875C528.005,864.965 531.475,864.611 534.437,863.734C537.203,862.914 539.572,861.644 540.959,859.795C543.961,855.792 544.804,850.012 546.216,845.356C547.284,841.829 548.443,838.315 549.723,834.86C551.182,830.92 553.358,823.026 556.498,815.987C558.027,812.557 559.776,809.331 561.826,806.982C563.389,805.19 565.065,803.884 567.072,803.9C568.904,803.915 570.832,804.994 573.045,807.137C574.558,808.602 575.856,810.285 576.898,812.116C578.949,815.725 580.062,819.852 580.824,823.906C582.079,830.585 582.342,837.449 582.599,844.225C582.942,853.257 584.399,863.984 582.6,872.976C582.262,874.668 583.361,876.315 585.052,876.653C586.743,876.992 588.391,875.893 588.729,874.202C590.619,864.752 589.205,853.479 588.844,843.988C588.576,836.905 588.278,829.733 586.966,822.752C586.078,818.025 584.723,813.234 582.331,809.027C580.996,806.68 579.332,804.524 577.393,802.647C573.215,798.602 569.354,797.361 565.973,797.704C562.558,798.049 559.437,800.076 556.753,803.3C550.247,811.112 546.148,826.518 543.862,832.69C542.539,836.263 541.339,839.896 540.234,843.543C539.021,847.547 538.54,852.603 535.959,856.045C535.043,857.266 533.139,857.661 531.241,858.118C528.389,858.806 525.396,859.283 523.419,860.126C515.066,863.689 508.357,869.888 503.771,877.684C490.956,899.47 491.709,939.904 492.295,963.939C492.519,973.099 492.977,982.253 493.094,991.416C493.131,994.314 493.151,997.211 493.151,1000.11C493.151,1000.63 493.402,1001.74 493.603,1002.53ZM496.13,1000.66L496.114,1000.66L496.222,1000.65L496.13,1000.66ZM496.718,1000.65L496.827,1000.66L496.78,1000.65L496.718,1000.65ZM496.551,1000.64C496.479,1000.64 496.407,1000.64 496.334,1000.64L496.391,1000.64C496.443,1000.64 496.495,1000.64 496.547,1000.64L496.551,1000.64Z"/>
                <path d="M505.876,873.88C505.223,874.782 505.074,876.004 505.592,877.075C506.342,878.628 508.212,879.279 509.765,878.529C509.939,878.444 510.79,877.987 511.462,876.686C512.771,874.152 517.967,862.098 518.485,861.102C524.883,848.784 533.416,837.951 542.163,827.247C546.519,821.917 550.601,816.84 555.751,812.247C557.338,810.832 558.859,809.409 560.546,808.108L562.383,806.726C562.705,806.576 563.007,806.368 563.272,806.103C564.571,804.805 564.273,803.602 564.245,803.385C564.129,802.502 563.714,801.849 563.114,801.362C562.858,801.155 561.372,799.993 559.454,801.148C559.004,801.419 556.997,802.952 556.728,803.16C554.923,804.552 553.289,806.068 551.591,807.583C546.191,812.399 541.891,817.703 537.323,823.293C528.304,834.329 519.535,845.52 512.939,858.221C512.42,859.218 507.22,871.281 505.91,873.817L505.876,873.88ZM558.005,803.252C558.124,802.677 558.407,802.129 558.853,801.683C558.285,802.251 558.07,802.806 558.005,803.252Z"/>
                <path d="M659.254,706.704C659.399,707.015 659.806,707.961 659.715,708.504C659.278,711.129 658.98,713.527 657.674,715.802C652.983,723.973 646.624,730.768 640.762,738.096C624.986,757.816 604.448,768.951 584.469,783.652C582.955,784.766 574.861,791.496 569.22,795.432C567.702,796.492 565.695,797.608 565.403,797.769C563.866,797.963 562.675,799.278 562.675,800.868C562.675,802.593 564.076,803.993 565.8,803.993C566.62,803.993 568.336,803.44 570.414,802.144C575.928,798.702 586.417,789.978 588.173,788.686C608.601,773.655 629.512,762.163 645.643,742C651.705,734.422 658.243,727.365 663.094,718.914C664.781,715.976 665.315,712.922 665.88,709.531C666.233,707.415 664.984,704.159 664.764,703.741C663.883,702.063 662.413,702.064 662.217,702.049C661.012,701.957 660.029,702.397 659.334,703.499C659.182,703.742 658.599,704.535 658.948,705.932C659.017,706.209 659.121,706.467 659.254,706.704ZM663.662,707.808C663.003,708.262 662.206,708.478 661.245,708.212C661.72,708.328 662.229,708.334 662.737,708.207C663.074,708.123 663.385,707.986 663.662,707.808ZM664.233,707.339C664.629,706.966 665.419,706.051 665.011,704.418C665.281,705.499 664.952,706.59 664.233,707.339Z"/>
                <path d="M666.273,705.689C669.574,709.214 671.855,712.519 674.703,716.516C679.686,723.509 683.334,731.467 686.955,739.248C688.212,741.949 689.341,744.706 690.509,747.446C690.818,748.171 691.332,749.251 691.757,750.126C691.184,751.193 690.42,752.624 689.943,753.543C688.366,756.579 686.729,759.584 685.097,762.59C668.605,792.969 640.597,817.261 615.554,840.501C607.55,847.928 600,855.905 592.453,863.796C591.788,864.491 587.667,867.571 586.041,869.444C584.962,870.686 584.63,871.9 584.63,872.597C584.63,874.322 586.031,875.722 587.755,875.722C589.12,875.722 590.282,874.845 590.707,873.624C590.995,873.325 591.879,872.419 592.583,871.81C594.416,870.222 596.505,868.602 596.969,868.116C604.431,860.315 611.892,852.425 619.805,845.082C645.333,821.392 673.779,796.538 690.589,765.572C692.24,762.532 693.894,759.494 695.489,756.424C696.316,754.832 698.02,751.673 698.02,751.673C698.504,750.777 698.52,749.702 698.065,748.791C698.065,748.791 696.808,746.284 696.259,744.995C695.064,742.192 693.907,739.374 692.621,736.611C688.84,728.485 684.997,720.192 679.793,712.889C676.693,708.539 674.208,704.973 670.56,701.122C669.942,700.47 668.817,699.82 667.33,699.505C665.026,699.017 661.693,699.254 659.817,700.155C658.263,700.902 657.607,702.771 658.354,704.325C659.101,705.88 660.969,706.536 662.524,705.789C663.057,705.532 663.869,705.48 664.643,705.486C665.195,705.49 665.989,705.633 666.273,705.689Z"/>
                <path d="M251.229,1003.34C250.811,999.317 251.693,994.892 251.906,990.917C252.74,975.313 253.291,959.712 254.261,944.111C256.428,909.268 261.208,860.96 269.195,839.02C272.519,829.89 277.84,817.733 282.371,809.191C290.878,793.15 299.436,777.142 309.542,761.983C310.499,760.548 310.111,758.606 308.675,757.649C307.24,756.693 305.299,757.081 304.342,758.516C294.119,773.85 285.455,790.037 276.849,806.262C272.198,815.032 266.735,827.51 263.323,836.882C255.201,859.191 250.226,908.294 248.023,943.723C247.052,959.342 246.5,974.961 245.665,990.583C245.423,995.102 244.489,1000.16 245.095,1004.69C245.163,1005.19 245.409,1006.01 245.798,1006.56C246.296,1007.25 246.976,1007.71 247.787,1007.9C249.466,1008.29 251.149,1007.25 251.543,1005.57C251.728,1004.78 251.596,1003.99 251.229,1003.34Z"/>
                <path d="M695.561,759.836C695.485,759.541 695.364,759.252 695.196,758.979C694.29,757.511 692.363,757.054 690.895,757.959C690.219,758.377 688.945,759.465 689.518,761.561C689.708,762.253 691.493,765.237 691.868,765.868C694.038,769.518 696.187,773.181 698.338,776.842C707.015,791.618 716.762,806.169 723.96,821.747C729.803,834.393 732.671,850.45 734.636,864.101C738.387,890.166 739.508,910.577 741.893,936.791C743.4,953.36 743.748,973.696 744.139,990.333C744.255,995.3 744.332,1000.27 744.478,1005.23C744.528,1006.96 745.969,1008.32 747.693,1008.26C749.417,1008.21 750.776,1006.77 750.725,1005.05C750.58,1000.1 750.503,995.141 750.387,990.187C749.993,973.419 749.636,952.924 748.117,936.224C745.722,909.894 744.59,889.392 740.822,863.21C738.776,848.996 735.718,832.294 729.634,819.126C722.35,803.363 712.508,788.628 703.727,773.677C701.571,770.006 699.416,766.334 697.24,762.674L695.561,759.836ZM695.504,761.591C695.284,762.269 694.83,762.876 694.176,763.279C694.741,762.93 695.261,762.409 695.504,761.591Z"/>
                <path d="M629.498,929.232C629.563,929.86 629.7,931.233 629.723,931.786C629.799,933.569 629.855,935.353 629.869,937.137C629.912,942.905 629.836,948.674 629.81,954.442C629.756,966.758 629.858,979.073 629.937,991.389C629.953,993.767 630.481,997.528 630.474,1000.97C630.471,1002.71 630.389,1004.36 629.791,1005.5C628.991,1007.03 629.583,1008.92 631.112,1009.72C632.64,1010.52 634.53,1009.93 635.329,1008.4C636.314,1006.52 636.718,1003.85 636.724,1000.98C636.731,997.522 636.203,993.74 636.187,991.348C636.108,979.055 636.006,966.763 636.06,954.469C636.086,948.677 636.162,942.883 636.118,937.09C636.104,935.233 636.046,933.376 635.967,931.521C635.93,930.637 635.698,928.349 635.654,928.033C635.295,925.499 632.891,925.329 632.773,925.321C632.717,925.317 629.175,925.512 629.452,928.895C629.461,929.009 629.476,929.122 629.498,929.232Z"/>
                <path d="M609.823,924.795C608.698,924.819 601.518,924.97 600.872,925.043C588.842,926.409 576.811,927.591 564.696,927.821C559.865,927.913 555.035,927.772 550.209,927.568C548.456,927.494 546.706,927.405 544.96,927.226C544.732,927.203 544.204,927.169 543.782,927.143C543.113,926.868 542.346,926.823 541.607,927.071C539.187,927.881 539.303,929.779 539.358,930.394C539.427,931.171 539.743,932.16 540.929,932.847C541.159,932.981 541.631,933.202 542.312,933.297C542.82,933.368 543.86,933.396 544.325,933.444C546.194,933.635 548.068,933.733 549.944,933.812C554.898,934.022 559.856,934.164 564.815,934.07C577.126,933.836 589.353,932.641 601.577,931.253C602.243,931.178 607.989,931.367 610.512,931.032C612.527,930.765 613.612,929.711 613.926,929.191C614.819,927.716 614.345,925.793 612.869,924.9C611.907,924.318 610.755,924.317 609.823,924.795ZM543.733,932.946L543.591,932.998C543.64,932.981 543.687,932.964 543.733,932.946ZM543.863,932.892L543.775,932.929L543.843,932.901L543.863,932.892ZM543.967,932.843L543.937,932.857L543.956,932.849L543.967,932.843Z"/>
                <path d="M538.609,931.245C538.56,931.433 538.417,931.966 538.318,932.269C537.985,933.289 537.722,934.33 537.745,935.34C537.869,940.866 537.897,946.394 537.971,951.921C538.113,962.576 536.764,975.765 539.698,986.195C542.185,995.039 552.355,1007.31 559.195,1013.29C560.493,1014.43 562.469,1014.3 563.605,1013C564.741,1011.7 564.609,1009.73 563.311,1008.59C557.199,1003.24 547.937,992.405 545.714,984.503C542.919,974.565 544.356,961.99 544.22,951.837C544.146,946.291 544.118,940.745 543.993,935.2C543.977,934.467 544.435,933.74 544.624,933.011C544.973,931.662 544.989,930.345 544.47,929.092C543.81,927.499 541.98,926.741 540.387,927.401C538.872,928.029 538.113,929.712 538.609,931.245Z"/>
                <path d="M610.061,931.105C610.089,931.299 610.367,933.231 610.431,934.838C610.651,940.314 610.307,948.432 610.322,950.591C610.463,972.178 609.974,986.27 602.089,1005.98C601.449,1007.58 602.229,1009.4 603.83,1010.04C605.432,1010.68 607.252,1009.9 607.892,1008.3C616.115,987.745 616.719,973.063 616.571,950.55C616.557,948.362 616.899,940.136 616.676,934.588C616.556,931.571 616.124,929.205 615.647,928.307C614.838,926.784 612.944,926.204 611.421,927.014C609.942,927.8 609.353,929.607 610.061,931.105Z"/>
                <path d="M496.29,890.144C495.826,891.545 496.413,893.123 497.752,893.859C499.264,894.69 501.165,894.137 501.996,892.626C502.429,891.837 502.682,890.402 502.417,888.679C502.097,886.594 501.117,883.75 500.885,882.791C498.929,874.689 495.649,866.614 491.828,859.227C489.028,853.814 485.892,848.571 482.766,843.342C480.157,838.976 477.547,834.58 474.654,830.394C472.477,827.245 469.972,824.328 467.261,821.626C462.327,816.708 456.738,813.359 451.168,809.31C447.701,806.79 444.038,803.791 440.32,801.828C437.017,800.084 433.645,799.141 430.31,799.578C426.924,800.022 423.471,801.841 420.17,806.073C418.516,808.193 417.254,810.613 416.258,813.101C414.743,816.884 413.622,820.798 412.87,824.801C411.69,831.078 411.226,837.364 411.29,843.746C411.353,850.13 412.192,856.48 412.251,862.863C412.264,864.349 411.942,866.476 411.943,868.443C411.944,870.308 412.238,872.053 412.924,873.376C413.719,874.907 415.606,875.505 417.137,874.71C418.668,873.916 419.266,872.028 418.472,870.497C418.081,869.743 418.166,868.661 418.213,867.58C418.289,865.848 418.512,864.094 418.5,862.806C418.442,856.421 417.603,850.069 417.539,843.684C417.48,837.712 417.908,831.829 419.012,825.955C419.689,822.353 420.697,818.829 422.06,815.424C422.839,813.478 423.805,811.575 425.098,809.917C427.102,807.348 429.066,806.044 431.122,805.775C433.227,805.499 435.317,806.255 437.402,807.355C440.869,809.185 444.261,812.016 447.493,814.366C452.797,818.221 458.15,821.369 462.849,826.052C465.29,828.487 467.552,831.111 469.513,833.948C472.328,838.021 474.862,842.3 477.402,846.549C480.461,851.668 483.535,856.799 486.277,862.099C489.871,869.047 492.97,876.637 494.81,884.258C494.981,884.966 495.587,886.745 495.996,888.436C496.136,889.015 496.254,889.871 496.29,890.144Z"/>
                <path d="M415.916,869.307C412.147,868.531 408.143,864.732 404.98,862.171C396.408,855.23 388.495,847.455 380.834,839.533C361.363,819.4 343.937,797.846 326.166,776.302C321.706,770.896 316.825,764.669 312.596,759.064C311.743,757.933 310.532,756.705 309.499,755.38C308.861,754.563 308.228,753.739 308.144,752.802C308.104,752.361 308.48,751.867 308.746,751.331C309.338,750.136 310.025,748.964 310.363,748.097C312.427,742.806 315.19,737.793 317.379,732.554C321.733,722.136 326.948,713.685 332.784,709.134C333.203,708.806 333.803,708.663 334.372,708.65C334.722,708.642 335.095,708.604 335.312,708.821C336.531,710.041 338.512,710.041 339.731,708.822C340.951,707.603 340.952,705.623 339.733,704.403C338.634,703.304 337.075,702.617 335.35,702.444C333.112,702.219 330.629,702.888 328.94,704.205C322.446,709.271 316.457,718.551 311.612,730.144C309.404,735.429 306.623,740.488 304.54,745.825C304.179,746.752 303.345,748.058 302.777,749.336C302.143,750.762 301.814,752.19 301.919,753.361C302.074,755.08 302.811,756.737 303.874,758.279C305.017,759.935 306.571,761.455 307.607,762.828C311.887,768.503 316.83,774.806 321.344,780.279C339.22,801.95 356.756,823.627 376.341,843.878C384.178,851.982 392.279,859.928 401.047,867.028C404.922,870.165 410.041,874.479 414.656,875.429C416.346,875.776 417.999,874.687 418.347,872.998C418.694,871.308 417.605,869.655 415.916,869.307Z"/>
                <path d="M493.464,878.527C493.716,879.219 494.213,879.826 494.912,880.203C496.429,881.023 498.327,880.457 499.147,878.939C499.441,878.394 499.723,877.54 499.379,876.423C499.182,875.781 497.639,873.733 497.483,873.525C495.728,871.185 493.843,868.938 491.534,867.118C485.068,862.023 476.679,860.108 468.914,857.966C467.661,857.62 464.904,857.331 462.573,856.795C462.007,856.665 461.237,856.386 460.856,856.243C460.782,855.907 460.657,855.301 460.617,854.888C460.484,853.539 460.46,852.157 460.337,851.36C459.478,845.78 458.359,840.165 456.742,834.753C452.882,821.84 445.317,810.37 436.299,800.602C435.129,799.335 433.15,799.256 431.883,800.426C430.616,801.596 430.537,803.575 431.707,804.842C440.087,813.918 447.167,824.544 450.753,836.543C452.289,841.681 453.344,847.014 454.16,852.311C454.33,853.412 454.308,855.641 454.667,857.33C454.945,858.636 455.456,859.717 456.082,860.427C456.812,861.255 458.158,862.04 459.888,862.552C462.345,863.278 465.81,863.593 467.252,863.991C474.233,865.916 481.852,867.447 487.665,872.027C489.547,873.51 491.053,875.368 492.482,877.275L493.464,878.527Z"/>
                <path d="M361.858,926.849C361.826,927.693 361.79,928.909 361.824,929.426C361.958,931.506 362.087,933.586 362.188,935.667C362.482,941.723 362.649,947.775 362.674,953.838C362.748,971.821 362.615,989.778 363.461,1007.75C363.542,1009.47 365.006,1010.81 366.729,1010.72C368.452,1010.64 369.785,1009.18 369.704,1007.46C368.862,989.573 368.997,971.706 368.924,953.812C368.898,947.657 368.729,941.513 368.431,935.364C368.328,933.25 368.197,931.137 368.061,929.024C368.01,928.233 368.177,926.503 368.134,925.638C368.09,924.776 367.853,924.159 367.68,923.84C366.865,922.338 365.629,922.009 364.416,922.18C363.887,922.255 362.831,922.466 361.991,923.85C361.417,924.795 361.404,925.925 361.858,926.849Z"/>
                <path d="M509.685,903.37C508.281,902.897 506.913,903.345 505.732,904.421C504.521,905.525 503.544,907.421 503.138,908.407C502.199,910.683 501.568,914.02 502.007,916.837C502.54,920.254 504.469,922.966 508.618,923.213C511.822,923.405 513.767,921.564 514.745,918.816C515.871,915.649 515.502,911.113 514.768,908.715C514.472,907.746 513.755,905.771 512.735,904.656C511.956,903.805 511.008,903.347 509.994,903.347C509.889,903.347 509.786,903.355 509.685,903.37ZM508.648,907.445C508.431,907.677 507.887,908.274 507.648,908.678C507.354,909.176 507.126,909.664 506.99,909.996C506.299,911.671 505.801,914.122 506.124,916.195C506.354,917.669 507.077,918.947 508.866,919.054C509.948,919.119 510.489,918.347 510.819,917.419C511.654,915.073 511.328,911.712 510.784,909.935C510.644,909.477 510.389,908.667 510.004,907.975C509.926,907.834 509.782,907.64 509.688,907.521C509.348,907.583 508.99,907.562 508.648,907.445Z"/>
                <g transform="matrix(1,0,0,1,1.39954,51.3379)">
                    <path d="M509.685,903.37C508.281,902.897 506.913,903.345 505.732,904.421C504.521,905.525 503.544,907.421 503.138,908.407C502.199,910.683 501.568,914.02 502.007,916.837C502.54,920.254 504.469,922.966 508.618,923.213C511.822,923.405 513.767,921.564 514.745,918.816C515.871,915.649 515.502,911.113 514.768,908.715C514.472,907.746 513.755,905.771 512.735,904.656C511.956,903.805 511.008,903.347 509.994,903.347C509.889,903.347 509.786,903.355 509.685,903.37ZM508.648,907.445C508.431,907.677 507.887,908.274 507.648,908.678C507.354,909.176 507.126,909.664 506.99,909.996C506.299,911.671 505.801,914.122 506.124,916.195C506.354,917.669 507.077,918.947 508.866,919.054C509.948,919.119 510.489,918.347 510.819,917.419C511.654,915.073 511.328,911.712 510.784,909.935C510.644,909.477 510.389,908.667 510.004,907.975C509.926,907.834 509.782,907.64 509.688,907.521C509.348,907.583 508.99,907.562 508.648,907.445Z"/>
                </g>
                <path d="M435.805,799.389C435.541,799.225 434.091,798.319 433.244,797.658C431.89,796.6 430.613,795.541 429.933,795.124C423.773,791.34 417.458,787.816 411.315,784C404.894,780.011 398.728,775.673 392.654,771.176C375.4,758.4 357.201,745.797 344.579,728.122C342.568,725.307 340.078,722.056 338.582,718.625C337.387,715.884 336.814,713.015 338.305,710.239C339.121,708.719 338.55,706.823 337.03,706.007C335.511,705.191 333.614,705.763 332.798,707.282C330.339,711.861 330.882,716.601 332.853,721.122C334.522,724.952 337.249,728.613 339.493,731.755C352.496,749.963 371.16,763.038 388.935,776.199C395.145,780.797 401.452,785.231 408.017,789.309C414.169,793.131 420.492,796.66 426.662,800.449C427.622,801.039 429.864,803.071 431.698,804.247C433.101,805.147 434.44,805.592 435.334,805.612C437.058,805.649 438.488,804.279 438.526,802.555C438.56,800.944 437.368,799.59 435.805,799.389Z"/>
            </g>
        </g>
    </g>
</svg>
